<svg xmlns="http://www.w3.org/2000/svg" xml:space="preserve" width="685.0188" height="669.77527" viewBox="0 0 685.01879 669.77527"><defs><clipPath id="c" clipPathUnits="userSpaceOnUse"><path d="M0 38.685h.002v508.684H0Z"/></clipPath><clipPath id="e" clipPathUnits="userSpaceOnUse"><path d="M223.187 380.946h7.862v-5.08h-7.862z"/></clipPath><clipPath id="f" clipPathUnits="userSpaceOnUse"><path d="M550.25 374.198h6.209v-4.891h-6.209z"/></clipPath><clipPath id="g" clipPathUnits="userSpaceOnUse"><path d="M568.525 381.03h41.962v-41.757h-41.962z"/></clipPath><clipPath id="h" clipPathUnits="userSpaceOnUse"><path d="M608 381.03s-20.5-5.875-30.75-17-11.75-25.125-3-24.75 33.125 13.125 35.5 25-1.75 16.75-1.75 16.75"/></clipPath><clipPath id="k" clipPathUnits="userSpaceOnUse"><path d="M492.299 382.905h39.637v-40.881h-39.637z"/></clipPath><clipPath id="l" clipPathUnits="userSpaceOnUse"><path d="M494.25 382.905s19-3 29.25-14.125 11.25-27.125 2.5-26.75-30.5 13.375-32.875 25.25 1.125 15.625 1.125 15.625"/></clipPath><clipPath id="o" clipPathUnits="userSpaceOnUse"><path d="M183.602 447.405h24.773v-21.591h-24.773z"/></clipPath><clipPath id="p" clipPathUnits="userSpaceOnUse"><path d="M240.175 446.562h26.992v-18.115h-26.992z"/></clipPath><clipPath id="q" clipPathUnits="userSpaceOnUse"><path d="M276.804 399.894h11.603v-41.601h-11.603z"/></clipPath><clipPath id="r" clipPathUnits="userSpaceOnUse"><path d="M212.167 324.792h7.88v-21.967h-7.88z"/></clipPath><clipPath id="s" clipPathUnits="userSpaceOnUse"><path d="M206.872 262.229h5.187v-20.45h-5.187z"/></clipPath><clipPath id="t" clipPathUnits="userSpaceOnUse"><path d="M211.723 141.781h13.416V96.553h-13.416z"/></clipPath><clipPath id="u" clipPathUnits="userSpaceOnUse"><path d="M197.525 86.48h16.442V67.52h-16.442z"/></clipPath><clipPath id="v" clipPathUnits="userSpaceOnUse"><path d="M279.318 162.917h16.758V85.114h-16.758z"/></clipPath><clipPath id="w" clipPathUnits="userSpaceOnUse"><path d="M208.091 222.658h3.764v-27.13h-3.764z"/></clipPath><clipPath id="x" clipPathUnits="userSpaceOnUse"><path d="M255.455 205.047h17.704v-34.071h-17.704z"/></clipPath><clipPath id="y" clipPathUnits="userSpaceOnUse"><path d="M167.352 289.535h22.794v-38.514h-22.794z"/></clipPath><clipPath id="z" clipPathUnits="userSpaceOnUse"><path d="M160.396 241.656h2.745v-5.559h-2.745z"/></clipPath><clipPath id="A" clipPathUnits="userSpaceOnUse"><path d="M201.35 339.042h6.113v-11.061h-6.113z"/></clipPath><clipPath id="B" clipPathUnits="userSpaceOnUse"><path d="M280.683 345.099h12.738v-2.839h-12.738z"/></clipPath><clipPath id="C" clipPathUnits="userSpaceOnUse"><path d="M285.314 289.18h23.801v-38.553h-23.801z"/></clipPath><clipPath id="D" clipPathUnits="userSpaceOnUse"><path d="M279.353 244.55h2.642v-4.784h-2.642z"/></clipPath><clipPath id="E" clipPathUnits="userSpaceOnUse"><path d="M217.167 465.697H235v-36.258h-17.833z"/></clipPath><clipPath id="F" clipPathUnits="userSpaceOnUse"><path d="M482.834 478.947h21.333v-48.142h-21.333z"/></clipPath><clipPath id="G" clipPathUnits="userSpaceOnUse"><path d="M485.217 433.614h2.476v-14.869h-2.476z"/></clipPath><clipPath id="H" clipPathUnits="userSpaceOnUse"><path d="M492.687 333.994h16.483v-16.935h-16.483Z"/></clipPath><clipPath id="I" clipPathUnits="userSpaceOnUse"><path d="M438.687 292.865h35.538v-32.376h-35.538z"/></clipPath><clipPath id="J" clipPathUnits="userSpaceOnUse"><path d="M517.909 323.614h11.925V289.28h-11.925z"/></clipPath><clipPath id="K" clipPathUnits="userSpaceOnUse"><path d="M470 273.625h56.834v-40.512H470Z"/></clipPath><clipPath id="L" clipPathUnits="userSpaceOnUse"><path d="M578.454 332.815h8.552v-2.158h-8.552z"/></clipPath><clipPath id="M" clipPathUnits="userSpaceOnUse"><path d="M596.834 279.447h38.003v-28.178h-38.003z"/></clipPath><clipPath id="N" clipPathUnits="userSpaceOnUse"><path d="M487.417 152.53h17.833v-50.5h-17.833z"/></clipPath><clipPath id="O" clipPathUnits="userSpaceOnUse"><path d="M470.731 92.28h16.056V74.027h-16.056z"/></clipPath><clipPath id="P" clipPathUnits="userSpaceOnUse"><path d="M568.153 156.78h12.065V86.797h-12.065z"/></clipPath><clipPath id="Q" clipPathUnits="userSpaceOnUse"><path d="M585.838 83.53h11.412v-9.764h-11.412Z"/></clipPath><radialGradient id="a" cx="0" cy="0" r="1" fx="0" fy="0" gradientTransform="matrix(-27.12058 -16.00561 -9.68135 16.40448 598.715 355.927)" gradientUnits="userSpaceOnUse" spreadMethod="pad"><stop offset="0" style="stop-opacity:.50000763;stop-color:#fff"/><stop offset="1" style="stop-opacity:0;stop-color:#fff"/></radialGradient><radialGradient id="j" cx="0" cy="0" r="1" fx="0" fy="0" gradientTransform="matrix(-27.12058 -16.00561 -9.68135 16.40448 598.715 355.927)" gradientUnits="userSpaceOnUse" spreadMethod="pad"><stop offset="0" style="stop-opacity:1;stop-color:#ee3338"/><stop offset="1" style="stop-opacity:1;stop-color:#ee2f66"/></radialGradient><radialGradient id="b" cx="0" cy="0" r="1" fx="0" fy="0" gradientTransform="matrix(26.24497 -15.48886 9.36878 15.87485 503.419 358.33)" gradientUnits="userSpaceOnUse" spreadMethod="pad"><stop offset="0" style="stop-opacity:.50000763;stop-color:#fff"/><stop offset="1" style="stop-opacity:0;stop-color:#fff"/></radialGradient><radialGradient id="n" cx="0" cy="0" r="1" fx="0" fy="0" gradientTransform="matrix(26.24497 -15.48886 9.36878 15.87485 503.419 358.33)" gradientUnits="userSpaceOnUse" spreadMethod="pad"><stop offset="0" style="stop-opacity:1;stop-color:#ee3338"/><stop offset="1" style="stop-opacity:1;stop-color:#ee2f66"/></radialGradient><mask id="d" width="1" height="1" x="0" y="0" maskUnits="userSpaceOnUse"><image width="1" height="1" preserveAspectRatio="none" style="image-rendering:optimizeSpeed"/></mask><mask id="i" width="1" height="1" x="0" y="0" maskUnits="userSpaceOnUse"><path d="M-32768 32767h65535v-65535h-65535Z" style="fill:url(#a);stroke:none"/></mask><mask id="m" width="1" height="1" x="0" y="0" maskUnits="userSpaceOnUse"><path d="M-32768 32767h65535v-65535h-65535Z" style="fill:url(#b);stroke:none"/></mask></defs><g clip-path="url(#c)" transform="matrix(1.33333 0 0 -1.33333 -206.488 743.648)"><image width="1" height="1" mask="url(#d)" preserveAspectRatio="none" style="image-rendering:optimizeSpeed" transform="matrix(359.61668 0 0 -508.6836 -359.615 547.368)"/></g><path d="M0 0s11.583-28.918 31.083-59.417c19.5-30.499 31-5.833 23.667 23.167-7.333 29-14.5 59.501-20.167 70.834C28.917 45.917-11.25 45.25 0 0" style="fill:#aaacae;fill-opacity:1;fill-rule:nonzero;stroke:none" transform="matrix(1.33333 0 0 -1.33333 122.735 456.94)"/><path d="M0 0s11.583-28.918 31.083-59.417c19.5-30.499 31-5.833 23.667 23.167-7.333 29-14.5 59.501-20.167 70.834C28.917 45.917-11.25 45.25 0 0Z" style="fill:none;stroke:#373535;stroke-width:2;stroke-linecap:round;stroke-linejoin:round;stroke-miterlimit:10;stroke-dasharray:none;stroke-opacity:1" transform="matrix(1.33333 0 0 -1.33333 122.735 456.94)"/><path d="M0 0s-6.167 27.833-5.5 54.5c0 0 3.852 13.866 27.333.5C32.667 48.833 32 28.333 32 28.333s2.166-50.666.333-61.166S6.333-36.5 0 0" style="fill:#aaacae;fill-opacity:1;fill-rule:nonzero;stroke:none" transform="matrix(1.33333 0 0 -1.33333 73.957 495.94)"/><path d="M0 0s-6.167 27.833-5.5 54.5c0 0 3.852 13.866 27.333.5C32.667 48.833 32 28.333 32 28.333s2.166-50.666.333-61.166S6.333-36.5 0 0Z" style="fill:none;stroke:#373535;stroke-width:2;stroke-linecap:round;stroke-linejoin:round;stroke-miterlimit:10;stroke-dasharray:none;stroke-opacity:1" transform="matrix(1.33333 0 0 -1.33333 73.957 495.94)"/><path d="M0 0s-.5-13.334 1.167-18c1.666-4.666 8.167-16.167 21.5-16.5C36-34.833 60.333-17.166 60.333-17.166s1.667 12.833 2.334 24C63.333 18 1.5 32.333 0 0" style="fill:#aaacae;fill-opacity:1;fill-rule:nonzero;stroke:none" transform="matrix(1.33333 0 0 -1.33333 79.068 366.163)"/><path d="M0 0s-.5-13.334 1.167-18c1.666-4.666 8.167-16.167 21.5-16.5C36-34.833 60.333-17.166 60.333-17.166s1.667 12.833 2.334 24C63.333 18 1.5 32.333 0 0Z" style="fill:none;stroke:#373535;stroke-width:2;stroke-linecap:round;stroke-linejoin:round;stroke-miterlimit:10;stroke-dasharray:none;stroke-opacity:1" transform="matrix(1.33333 0 0 -1.33333 79.068 366.163)"/><path d="M0 0s-5.625-8.5-3.5-16.125c0 0 1.875-7.75 8.125-8.25 0 0 2.875-.875 3.625-1.875s4.625-1.625 8.375.25c0 0 3 .75 4.875.125s9.25 1.125 10.75 9.5c0 0 1.875 3.25 2.375 5S36.234 5.976 18.25 6.875C3.25 7.625 0 0 0 0" style="fill:#344791;fill-opacity:1;fill-rule:nonzero;stroke:none" transform="matrix(1.33333 0 0 -1.33333 6.512 429.774)"/><path d="M0 0s-3.25-7.5-10.125-7.5-11.75 4.375-11.5 14.625 12 15.875 16.5 15.5" style="fill:none;stroke:#373535;stroke-width:2;stroke-linecap:round;stroke-linejoin:round;stroke-miterlimit:10;stroke-dasharray:none;stroke-opacity:1" transform="matrix(1.33333 0 0 -1.33333 30.179 452.607)"/><path d="M0 0s-3.625-5-14.125-3.125c0 0 9.25-1.125 9-6.25S-6.625-14-9-14s-7-1-9.125-.5-6 5.75-6 5.75" style="fill:none;stroke:#373535;stroke-width:2;stroke-linecap:round;stroke-linejoin:round;stroke-miterlimit:10;stroke-dasharray:none;stroke-opacity:1" transform="matrix(1.33333 0 0 -1.33333 39.512 433.774)"/><path d="M0 0s2.75.75 4.625-.5C6.612-1.824 8-5.75 5.875-9.5s-11.375-12.25-18.5-5.625" style="fill:none;stroke:#373535;stroke-width:2;stroke-linecap:round;stroke-linejoin:round;stroke-miterlimit:10;stroke-dasharray:none;stroke-opacity:1" transform="matrix(1.33333 0 0 -1.33333 32.012 442.607)"/><path d="M0 0s4.875 1.937 6.812-4.125C8.75-10.188-.625-17.75-5.812-14.625" style="fill:none;stroke:#373535;stroke-width:2;stroke-linecap:round;stroke-linejoin:round;stroke-miterlimit:10;stroke-dasharray:none;stroke-opacity:1" transform="matrix(1.33333 0 0 -1.33333 39.846 443.774)"/><path d="M0 0s4.312 3.875 2.438 12.563" style="fill:none;stroke:#373535;stroke-width:2;stroke-linecap:round;stroke-linejoin:round;stroke-miterlimit:10;stroke-dasharray:none;stroke-opacity:1" transform="matrix(1.33333 0 0 -1.33333 49.512 450.774)"/><path d="M0 0s-9.858-5.514-24.75-28.5c-11.5-17.75-14.5-31-14.5-31S-25-52.5-12-60 0-73.25 0-73.25s14.25 41 17 57.75c0 0 4.5 22.75-17 15.5" style="fill:#344791;fill-opacity:1;fill-rule:nonzero;stroke:none" transform="matrix(1.33333 0 0 -1.33333 57.846 339.94)"/><path d="M0 0s-9.858-5.514-24.75-28.5c-11.5-17.75-14.5-31-14.5-31S-25-52.5-12-60 0-73.25 0-73.25s14.25 41 17 57.75c0 0 4.5 22.75-17 15.5z" style="fill:none;stroke:#373535;stroke-width:2;stroke-linecap:round;stroke-linejoin:round;stroke-miterlimit:10;stroke-dasharray:none;stroke-opacity:1" transform="matrix(1.33333 0 0 -1.33333 57.846 339.94)"/><path d="M0 0c-.042 1.166-10.083-9.417-10.75-31.417 0 0-.083-2.75 1.583-4.5 1.667-1.75 19-22.251 36.5-23.917 0 0 3.584-.166 5.334 1.167 1.726 1.314 6.854 8.948 36.637 20.984.421.171 1.427 1.293 1.546 2.682.452 5.298.484 19.505-9.683 33.501 0 0 .166-3.167-2.667-4.917-2.833-1.75-29.583-13.251-37.167-12.834C13.75-18.834.25-6.916 0 0" style="fill:#00b0f0;fill-opacity:1;fill-rule:nonzero;stroke:none" transform="matrix(1.33333 0 0 -1.33333 79.179 378.718)"/><path d="M0 0c-.042 1.166-10.083-9.417-10.75-31.417 0 0-.083-2.75 1.583-4.5 1.667-1.75 19-22.251 36.5-23.917 0 0 3.584-.166 5.334 1.167 1.726 1.314 6.854 8.948 36.637 20.984.421.171 1.427 1.293 1.546 2.682.452 5.298.484 19.505-9.683 33.501 0 0 .166-3.167-2.667-4.917-2.833-1.75-29.583-13.251-37.167-12.834C13.75-18.834.25-6.916 0 0Z" style="fill:none;stroke:#373535;stroke-width:2;stroke-linecap:round;stroke-linejoin:round;stroke-miterlimit:10;stroke-dasharray:none;stroke-opacity:1" transform="matrix(1.33333 0 0 -1.33333 79.179 378.718)"/><path d="m0 0-8.167-4.666S-15-7.667-15.333-12.5c-.334-4.833-1-4 2.666-10.833 0 0-2-3.501 3.667-8.167 0 0 1.833-3.333 7-4.833s6.333-2.333 9.333-.833c3 1.5 7.667 4.834 7.834 11.5C15.333-19 0 0 0 0" style="fill:#344791;fill-opacity:1;fill-rule:nonzero;stroke:none" transform="matrix(1.33333 0 0 -1.33333 168.624 419.052)"/><path d="M0 0s-3.333 4.334-3.5 5.167c-.167.833 1.333 5.167 2.167 7.5.833 2.333 9.666 7 9.666 7" style="fill:none;stroke:#373535;stroke-width:2;stroke-linecap:round;stroke-linejoin:round;stroke-miterlimit:10;stroke-dasharray:none;stroke-opacity:1" transform="matrix(1.33333 0 0 -1.33333 151.512 448.386)"/><path d="M0 0s-.667-4-1.667-6" style="fill:none;stroke:#373535;stroke-width:2;stroke-linecap:round;stroke-linejoin:round;stroke-miterlimit:10;stroke-dasharray:none;stroke-opacity:1" transform="matrix(1.33333 0 0 -1.33333 161.957 441.052)"/><path d="M0 0s-6.167-1.5-7.167-4.833.334-4.833 4.5-9c0 0 1.334-2.501 7.167-4.167 0 0 5-2.333 7.167-.833C13.833-17.333 18.5-16 20.333-11" style="fill:none;stroke:#373535;stroke-width:2;stroke-linecap:round;stroke-linejoin:round;stroke-miterlimit:10;stroke-dasharray:none;stroke-opacity:1" transform="matrix(1.33333 0 0 -1.33333 161.29 443.72)"/><path d="M0 0s-3.834-2.334-6.667-2.334" style="fill:none;stroke:#373535;stroke-width:2;stroke-linecap:round;stroke-linejoin:round;stroke-miterlimit:10;stroke-dasharray:none;stroke-opacity:1" transform="matrix(1.33333 0 0 -1.33333 177.068 464.607)"/><path d="M0 0s-4.5-4.167-8.833-4.167" style="fill:none;stroke:#373535;stroke-width:2;stroke-linecap:round;stroke-linejoin:round;stroke-miterlimit:10;stroke-dasharray:none;stroke-opacity:1" transform="matrix(1.33333 0 0 -1.33333 169.512 456.607)"/><path d="M0 0s-3-8.75-2.5-14.25c0 0 11.057 13.69 27 8.5C35.25-9.25 34.75-21.5 34.75-21.5s2.75 3 4.5 7.75c0 0 .25 6.75-12 13.25S1.75 1.5 0 0" style="fill:#aaacae;fill-opacity:1;fill-rule:nonzero;stroke:none" transform="matrix(1.33333 0 0 -1.33333 5.512 419.274)"/><path d="M0 0s-3-8.75-2.5-14.25c0 0 11.057 13.69 27 8.5C35.25-9.25 34.75-21.5 34.75-21.5s2.75 3 4.5 7.75c0 0 .25 6.75-12 13.25S1.75 1.5 0 0Z" style="fill:none;stroke:#373535;stroke-width:2;stroke-linecap:round;stroke-linejoin:round;stroke-miterlimit:10;stroke-dasharray:none;stroke-opacity:1" transform="matrix(1.33333 0 0 -1.33333 5.512 419.274)"/><path d="m0 0-8.5-20S-13.25-34.75-4-39.75s14.5 9.5 14.5 9.5L22.25-4s6.25 12.75-5.5 15.25S0 0 0 0" style="fill:#fff;fill-opacity:1;fill-rule:nonzero;stroke:none" transform="matrix(1.33333 0 0 -1.33333 69.179 313.274)"/><path d="m0 0-8.5-20S-13.25-34.75-4-39.75s14.5 9.5 14.5 9.5L22.25-4s6.25 12.75-5.5 15.25S0 0 0 0Z" style="fill:none;stroke:#373535;stroke-width:2;stroke-linecap:round;stroke-linejoin:round;stroke-miterlimit:10;stroke-dasharray:none;stroke-opacity:1" transform="matrix(1.33333 0 0 -1.33333 69.179 313.274)"/><path d="M0 0s-14.292-1.083-19.292-6.958c-5-5.875-7.75-18.625-8.125-30.5s.5-26.75 20.875-42c0 0 2.125-3 8.625-1s28.875 8.625 33.125 11.625 8.875 5.375 9.875 9.25 6.875 17.625 7.5 20.625S62.958-6.833 47.958-2.083 32.208.292 32.208.292z" style="fill:#00b0f0;fill-opacity:1;fill-rule:nonzero;stroke:none" transform="matrix(1.33333 0 0 -1.33333 109.068 282.83)"/><path d="M0 0s-2.333 5.167-8.167 8C-14 10.833-10.333 14.166-9 14.333c1.333.167 3.167 4.333 3 8-.167 3.667 6.667 7.333 15.167 7.5 8.5.167 16.833 1 17.166-6.833 0 0-.5-4.167.667-5.333 1.167-1.167 1-2-.5-3.167-1.5-1.167-5.667-6-6-6.833-.333-.834-3.333-2.834-4.667-2.834C14.5 4.833 7.5 4.167 4.5 3 1.5 1.833 0 0 0 0" style="fill:#fff;fill-opacity:1;fill-rule:nonzero;stroke:none" transform="matrix(1.33333 0 0 -1.33333 117.512 308.162)"/><path d="M0 0c5.5 2.167 5.333 7.833 5.333 7.833S3 15.5 18.5 16.833C34 18.167 37.333 16.5 37.333 11.5s1-6.667 2.167-7.5" style="fill:none;stroke:#373535;stroke-width:2;stroke-linecap:round;stroke-linejoin:round;stroke-miterlimit:10;stroke-dasharray:none;stroke-opacity:1" transform="matrix(1.33333 0 0 -1.33333 102.4 291.496)"/><path d="M0 0s-3.333-2.833-.167-6c3.167-3.167 8-5.5 9.667-9.333" style="fill:none;stroke:#373535;stroke-width:2;stroke-linecap:round;stroke-linejoin:round;stroke-miterlimit:10;stroke-dasharray:none;stroke-opacity:1" transform="matrix(1.33333 0 0 -1.33333 104.4 286.83)"/><path d="M0 0s-4.463-4.273-9.167-9.5c-3-3.333-5-2.333-10.666-3.5-5.188-1.068-8.667-.833-11-6.167 0 0-6.667-20.833-7.834-59.5" style="fill:none;stroke:#373535;stroke-width:2;stroke-linecap:round;stroke-linejoin:round;stroke-miterlimit:10;stroke-dasharray:none;stroke-opacity:1" transform="matrix(1.33333 0 0 -1.33333 157.068 285.274)"/><path d="M0 0c6.333 0 10.833-1.333 15-6 8.151-9.129 5.167-31.333 3.5-36.833-1.667-5.5-5.333-18-9.5-21.834C1.192-71.849-30.5-82-35.5-81.5S-50.833-69-55.167-62.833c-4.333 6.166-5.333 19.5-4.5 30.333C-58.834-21.667-53-11-48-6.5S-32.667-.333-32.667-.333" style="fill:none;stroke:#373535;stroke-width:2;stroke-linecap:round;stroke-linejoin:round;stroke-miterlimit:10;stroke-dasharray:none;stroke-opacity:1" transform="matrix(1.33333 0 0 -1.33333 152.624 282.385)"/><path d="M0 0s-15.333 3.5-23.167-2.333C-31-8.167-36.333-29.5-33.167-31.5-30-33.5 1.5-6.333 0 0" style="fill:#344791;fill-opacity:1;fill-rule:nonzero;stroke:none" transform="matrix(1.33333 0 0 -1.33333 100.179 283.718)"/><path d="M0 0s-15.333 3.5-23.167-2.333C-31-8.167-36.333-29.5-33.167-31.5-30-33.5 1.5-6.333 0 0Z" style="fill:none;stroke:#373535;stroke-width:2;stroke-linecap:round;stroke-linejoin:round;stroke-miterlimit:10;stroke-dasharray:none;stroke-opacity:1" transform="matrix(1.33333 0 0 -1.33333 100.179 283.718)"/><path d="M0 0s-4.833 7.834-10.5 16.667c-5.148 8.024-7.5 13-7.5 13-6.333 12.667-1.833 20.667 1.167 21.333 0 0 9.666 2.5 15.166-7.333S15.667 16 15.667 16s6.27-10.104-1-17.166C8.833-6.833 1.667-2.5 0 0" style="fill:#fff;fill-opacity:1;fill-rule:nonzero;stroke:none" transform="matrix(1.33333 0 0 -1.33333 193.068 363.72)"/><path d="M0 0s-4.833 7.834-10.5 16.667c-5.148 8.024-7.5 13-7.5 13-6.333 12.667-1.833 20.667 1.167 21.333 0 0 9.666 2.5 15.166-7.333S15.667 16 15.667 16s6.27-10.104-1-17.166C8.833-6.833 1.667-2.5 0 0Z" style="fill:none;stroke:#373535;stroke-width:2;stroke-linecap:round;stroke-linejoin:round;stroke-miterlimit:10;stroke-dasharray:none;stroke-opacity:1" transform="matrix(1.33333 0 0 -1.33333 193.068 363.72)"/><path d="M0 0c-.846-2.326-.5-11.75 10.5-21s24-15.5 26.75-12.75S32.25-10 23-2.5C16.66 2.641 1 2.75 0 0" style="fill:#344791;fill-opacity:1;fill-rule:nonzero;stroke:none" transform="matrix(1.33333 0 0 -1.33333 161.179 282.274)"/><path d="M0 0c-.846-2.326-.5-11.75 10.5-21s24-15.5 26.75-12.75S32.25-10 23-2.5C16.66 2.641 1 2.75 0 0Z" style="fill:none;stroke:#373535;stroke-width:2;stroke-linecap:round;stroke-linejoin:round;stroke-miterlimit:10;stroke-dasharray:none;stroke-opacity:1" transform="matrix(1.33333 0 0 -1.33333 161.179 282.274)"/><path d="M0 0c-1.612.806-12.667-6.667-23.667-22.333-10.575-15.062-15.833-28.834-16.5-29.5 0 0 3.167-11.834 14.167-24.667 5.83-6.8 10.5-6.5 10.5-6.5S-3.667-72 1-45.667C5.667-19.333 3-1.5 0 0" style="fill:#344791;fill-opacity:1;fill-rule:nonzero;stroke:none" transform="matrix(1.33333 0 0 -1.33333 221.29 338.385)"/><path d="M0 0c-1.612.806-12.667-6.667-23.667-22.333-10.575-15.062-15.833-28.834-16.5-29.5 0 0 3.167-11.834 14.167-24.667 5.83-6.8 10.5-6.5 10.5-6.5S-3.667-72 1-45.667C5.667-19.333 3-1.5 0 0Z" style="fill:none;stroke:#373535;stroke-width:2;stroke-linecap:round;stroke-linejoin:round;stroke-miterlimit:10;stroke-dasharray:none;stroke-opacity:1" transform="matrix(1.33333 0 0 -1.33333 221.29 338.385)"/><path d="M0 0s-2.333-5.5-3.833-11c0 0 6.166-24.666 17.333-30.833 0 0 8.333 6.875 11.167 10.667 0 0-12.167-1-24.667 31.166" style="fill:#aaacae;fill-opacity:1;fill-rule:nonzero;stroke:none" transform="matrix(1.33333 0 0 -1.33333 167.735 407.496)"/><path d="M0 0s-2.333-5.5-3.833-11c0 0 6.166-24.666 17.333-30.833 0 0 8.333 6.875 11.167 10.667 0 0-12.167-1-24.667 31.166z" style="fill:none;stroke:#373535;stroke-width:2;stroke-linecap:round;stroke-linejoin:round;stroke-miterlimit:10;stroke-dasharray:none;stroke-opacity:1" transform="matrix(1.33333 0 0 -1.33333 167.735 407.496)"/><path d="M0 0s-1.167-30-29.667-42.167C-58.167-54.333-12.333 7.5-12.333 7.5Z" style="fill:#344791;fill-opacity:1;fill-rule:nonzero;stroke:none" transform="matrix(1.33333 0 0 -1.33333 228.624 198.162)"/><path d="M0 0s-1.167-30-29.667-42.167C-58.167-54.333-12.333 7.5-12.333 7.5Z" style="fill:none;stroke:#373535;stroke-width:2;stroke-linecap:round;stroke-linejoin:round;stroke-miterlimit:10;stroke-dasharray:none;stroke-opacity:1" transform="matrix(1.33333 0 0 -1.33333 228.624 198.162)"/><path d="M0 0s-.5-36.792 4.667-45.625C9.833-54.458 16 4.208 16 4.208Z" style="fill:#00b0f0;fill-opacity:1;fill-rule:nonzero;stroke:none" transform="matrix(1.33333 0 0 -1.33333 38.179 182.44)"/><path d="M0 0s-.5-36.792 4.667-45.625C9.833-54.458 16 4.208 16 4.208Z" style="fill:none;stroke:#373535;stroke-width:2;stroke-linecap:round;stroke-linejoin:round;stroke-miterlimit:10;stroke-dasharray:none;stroke-opacity:1" transform="matrix(1.33333 0 0 -1.33333 38.179 182.44)"/><path d="M0 0s-2-20.125 2.25-32.875c0 0-4.5-8-3.625-14.25S4.212-67.789 30-73.75c24.875-5.75 52.25 5.25 52.25 5.25s27.708 13.167 30.042 60.833C112.905 4.846 1.042 14 0 0" style="fill:#feddbf;fill-opacity:1;fill-rule:nonzero;stroke:none" transform="matrix(1.33333 0 0 -1.33333 46.679 182.607)"/><path d="M0 0s-2-20.125 2.25-32.875c0 0-4.5-8-3.625-14.25S4.212-67.789 30-73.75c24.875-5.75 52.25 5.25 52.25 5.25s27.708 13.167 30.042 60.833C112.905 4.846 1.042 14 0 0Z" style="fill:none;stroke:#373535;stroke-width:2;stroke-linecap:round;stroke-linejoin:round;stroke-miterlimit:10;stroke-dasharray:none;stroke-opacity:1" transform="matrix(1.33333 0 0 -1.33333 46.679 182.607)"/><path d="M0 0s-8.75 19.125 8 44.125c0 0 2.5-8.875 3.125-10.75 0 0 4.75 20.75 35.25 32.125 0 0-2-11.75-2-15.375 0 0 15 26.25 42.875 28.625s47.125-11.375 54.5-19.375c0 0-21.375 1.5-28.75-8.25S117.375 33 123.25 32.75 138 38 137.875 48.375c0 0 14.5-11.75 11.625-43 0 0 5.875 5.25 7.125 9.5 0 0 2.375-26.5-12.625-41.5C144-26.625 100.25 18.5 0 0" style="fill:#344791;fill-opacity:1;fill-rule:nonzero;stroke:none" transform="matrix(1.33333 0 0 -1.33333 44.012 145.94)"/><path d="M0 0s-8.75 19.125 8 44.125c0 0 2.5-8.875 3.125-10.75 0 0 4.75 20.75 35.25 32.125 0 0-2-11.75-2-15.375 0 0 15 26.25 42.875 28.625s47.125-11.375 54.5-19.375c0 0-21.375 1.5-28.75-8.25S117.375 33 123.25 32.75 138 38 137.875 48.375c0 0 14.5-11.75 11.625-43 0 0 5.875 5.25 7.125 9.5 0 0 2.375-26.5-12.625-41.5C144-26.625 100.25 18.5 0 0z" style="fill:none;stroke:#373535;stroke-width:2;stroke-linecap:round;stroke-linejoin:round;stroke-miterlimit:10;stroke-dasharray:none;stroke-opacity:1" transform="matrix(1.33333 0 0 -1.33333 44.012 145.94)"/><path d="M0 0s-2-18.333-9.333-43.833c0 0-3.333-10.334-4-12.334C-14-58.167-16.5-63.333-12-62c4.5 1.333 20.5 11.334 29.167 23.667C25.833-26 32.5-13.667 35.5-2.667c3 11-30.667 15-35.5 2.667" style="fill:#00b0f0;fill-opacity:1;fill-rule:nonzero;stroke:none" transform="matrix(1.33333 0 0 -1.33333 175.512 192.385)"/><path d="M0 0s-2-18.333-9.333-43.833c0 0-3.333-10.334-4-12.334C-14-58.167-16.5-63.333-12-62c4.5 1.333 20.5 11.334 29.167 23.667C25.833-26 32.5-13.667 35.5-2.667c3 11-30.667 15-35.5 2.667Z" style="fill:none;stroke:#373535;stroke-width:2;stroke-linecap:round;stroke-linejoin:round;stroke-miterlimit:10;stroke-dasharray:none;stroke-opacity:1" transform="matrix(1.33333 0 0 -1.33333 175.512 192.385)"/><path d="M0 0s-2.167-11.333-.333-20.833c1.833-9.5 11.666-14.334 16.5-7.834 4.833 6.5 5.159 15.623 5 18.167-.334 5.333-.167 15.5-8 17.833C5.333 9.667 1.667 4.5 0 0" style="fill:#fff;fill-opacity:1;fill-rule:nonzero;stroke:none" transform="matrix(1.33333 0 0 -1.33333 55.068 183.94)"/><path d="M0 0s-2.167-11.333-.333-20.833c1.833-9.5 11.666-14.334 16.5-7.834 4.833 6.5 5.159 15.623 5 18.167-.334 5.333-.167 15.5-8 17.833C5.333 9.667 1.667 4.5 0 0Z" style="fill:none;stroke:#373535;stroke-width:2;stroke-linecap:round;stroke-linejoin:round;stroke-miterlimit:10;stroke-dasharray:none;stroke-opacity:1" transform="matrix(1.33333 0 0 -1.33333 55.068 183.94)"/><path d="M0 0c-5.521-.142-7.333-7-8-14.333C-8.667-21.667-6.667-31-.167-31.5s7.834 13.5 7.5 18.667C7-7.667 6.5.167 0 0" style="fill:#373535;fill-opacity:1;fill-rule:nonzero;stroke:none" transform="matrix(1.33333 0 0 -1.33333 73.29 179.94)"/><path d="M0 0c-5.521-.142-7.333-7-8-14.333C-8.667-21.667-6.667-31-.167-31.5s7.834 13.5 7.5 18.667C7-7.667 6.5.167 0 0Z" style="fill:none;stroke:#373535;stroke-width:2;stroke-linecap:round;stroke-linejoin:round;stroke-miterlimit:10;stroke-dasharray:none;stroke-opacity:1" transform="matrix(1.33333 0 0 -1.33333 73.29 179.94)"/><path d="M0 0c-2.302-.383-3.68-6.833.667-6.833C4-6.833 4 .667 0 0" style="fill:#fff;fill-opacity:1;fill-rule:nonzero;stroke:none" transform="matrix(1.33333 0 0 -1.33333 75.735 199.496)"/><path d="M0 0s-3.333-25.5 12.667-26.5S32.167-4.667 32 5.5c-.167 10.167-6 18.5-16.167 18.167C5.667 23.333 1.833 11.167 0 0" style="fill:#fff;fill-opacity:1;fill-rule:nonzero;stroke:none" transform="matrix(1.33333 0 0 -1.33333 118.402 199.718)"/><path d="M0 0s-3.333-25.5 12.667-26.5S32.167-4.667 32 5.5c-.167 10.167-6 18.5-16.167 18.167C5.667 23.333 1.833 11.167 0 0Z" style="fill:none;stroke:#373535;stroke-width:2;stroke-linecap:round;stroke-linejoin:round;stroke-miterlimit:10;stroke-dasharray:none;stroke-opacity:1" transform="matrix(1.33333 0 0 -1.33333 118.402 199.718)"/><path d="M0 0c-7.493-.374-13.167-10-12.833-20.833C-12.5-31.667-7-34.333-3-34.333S6.667-29.5 8.333-15.667C10-1.833 3.333.167 0 0" style="fill:#373535;fill-opacity:1;fill-rule:nonzero;stroke:none" transform="matrix(1.33333 0 0 -1.33333 149.29 182.83)"/><path d="M0 0c-7.493-.374-13.167-10-12.833-20.833C-12.5-31.667-7-34.333-3-34.333S6.667-29.5 8.333-15.667C10-1.833 3.333.167 0 0Z" style="fill:none;stroke:#373535;stroke-width:2;stroke-linecap:round;stroke-linejoin:round;stroke-miterlimit:10;stroke-dasharray:none;stroke-opacity:1" transform="matrix(1.33333 0 0 -1.33333 149.29 182.83)"/><path d="M0 0c-4.11.761-4.5-7.167-.333-7.5C3.833-7.833 4.5-.833 0 0" style="fill:#fff;fill-opacity:1;fill-rule:nonzero;stroke:none" transform="matrix(1.33333 0 0 -1.33333 151.957 202.83)"/><path d="M0 0c-.228 0-.937.062-1.437.156-.543.102-1.031.458-1.001.594.063.281.713.175 1.438.187 5.562.094 4.865 1.367 4.869 1.376.012.166-.447.951-1.98 1.802-2.483 1.38-4.57 1.296-6.766-.273-.375-.268-.419-.449-.438-.474-.216-.274-.071-.793.284-1.18.344-.376 1.413-.797 1.31-1.127-.029-.092-1.03-.079-1.529.158-.353.167-1.921.445-2.058 1.971-.052.59.125 1.463 1.269 2.28 2.828 2.02 5.738 2.15 8.9.393 1.055-.586 3.454-2.156 2.937-4.074C5.376.221 4.057 0 0 0" style="fill:#373535;fill-opacity:1;fill-rule:nonzero;stroke:none" transform="matrix(1.33333 0 0 -1.33333 94.346 243.482)"/><path d="M0 0s26-2.166 31.167.667" style="fill:none;stroke:#373535;stroke-width:2;stroke-linecap:round;stroke-linejoin:round;stroke-miterlimit:10;stroke-dasharray:none;stroke-opacity:1" transform="matrix(1.33333 0 0 -1.33333 81.735 250.163)"/><path d="M0 0s-4.25-.75-6.375-13.375 2-14 2-14 10.5 1.25 23-5 14.5-10.25 17.625-12 6-.375 9 .75 25.875 8.5 46.125 8.75 36.75-.375 48-4.25c0 0 3.5 2 4.625 12.5 0 0-43.125 44.75-144 26.625" style="fill:#00b0f0;fill-opacity:1;fill-rule:nonzero;stroke:none" transform="matrix(1.33333 0 0 -1.33333 44.012 145.94)"/><path d="M0 0s-4.25-.75-6.375-13.375 2-14 2-14 10.5 1.25 23-5 14.5-10.25 17.625-12 6-.375 9 .75 25.875 8.5 46.125 8.75 36.75-.375 48-4.25c0 0 3.5 2 4.625 12.5 0 0-43.125 44.75-144 26.625z" style="fill:none;stroke:#373535;stroke-width:2;stroke-linecap:round;stroke-linejoin:round;stroke-miterlimit:10;stroke-dasharray:none;stroke-opacity:1" transform="matrix(1.33333 0 0 -1.33333 44.012 145.94)"/><path d="m0 0-21.375 41 17.25-75.75L37.75 39Z" style="fill:#d3373b;fill-opacity:1;fill-rule:nonzero;stroke:none" transform="matrix(1.33333 0 0 -1.33333 100.679 140.107)"/><path d="m0 0-21.375 41 17.25-75.75L37.75 39Z" style="fill:none;stroke:#373535;stroke-width:2;stroke-linecap:round;stroke-linejoin:round;stroke-miterlimit:10;stroke-dasharray:none;stroke-opacity:1" transform="matrix(1.33333 0 0 -1.33333 100.679 140.107)"/><path d="M0 0s-7.25-4.25-17.125-15.625-5.5-11.25-5.5-11.25 7.875-4.75 29.875-4.375 41.375 7.25 43.375 8.5c0 0 .875 7.625-2.125 17.5S20.5 15.5 0 0" style="fill:#344791;fill-opacity:1;fill-rule:nonzero;stroke:none" transform="matrix(1.33333 0 0 -1.33333 80.346 620.44)"/><path d="M0 0s-7.25-4.25-17.125-15.625-5.5-11.25-5.5-11.25 7.875-4.75 29.875-4.375 41.375 7.25 43.375 8.5c0 0 .875 7.625-2.125 17.5S20.5 15.5 0 0Z" style="fill:none;stroke:#373535;stroke-width:2;stroke-linecap:round;stroke-linejoin:round;stroke-miterlimit:10;stroke-dasharray:none;stroke-opacity:1" transform="matrix(1.33333 0 0 -1.33333 80.346 620.44)"/><path d="M0 0c-2.625-4.125-3.875-19.875-1.75-22.375s30-14 69.125-1.75c0 0-3.125 17.5-30.125 26.875S3.679 5.781 0 0" style="fill:#344791;fill-opacity:1;fill-rule:nonzero;stroke:none" transform="matrix(1.33333 0 0 -1.33333 182.012 618.107)"/><path d="M0 0c-2.625-4.125-3.875-19.875-1.75-22.375s30-14 69.125-1.75c0 0-3.125 17.5-30.125 26.875S3.679 5.781 0 0Z" style="fill:none;stroke:#373535;stroke-width:2;stroke-linecap:round;stroke-linejoin:round;stroke-miterlimit:10;stroke-dasharray:none;stroke-opacity:1" transform="matrix(1.33333 0 0 -1.33333 182.012 618.107)"/><path d="M0 0s.625-31.75 6.125-60.875c0 0 .25-4 2.375-4.125s13.625-1.5 29.625-14.25c0 0 4.875-4.25 10.125-3.875 4.256.304 5.25 6.5 8 11.125S56-53.5 52.625-40.625 36.875 9.5 8.25 30.875c0 0-4.625 2.875-6.625.5S-.25 12 0 0" style="fill:#344791;fill-opacity:1;fill-rule:nonzero;stroke:none" transform="matrix(1.33333 0 0 -1.33333 69.012 533.774)"/><path d="M0 0s.625-31.75 6.125-60.875c0 0 .25-4 2.375-4.125s13.625-1.5 29.625-14.25c0 0 4.875-4.25 10.125-3.875 4.256.304 5.25 6.5 8 11.125S56-53.5 52.625-40.625 36.875 9.5 8.25 30.875c0 0-4.625 2.875-6.625.5S-.25 12 0 0Z" style="fill:none;stroke:#373535;stroke-width:2;stroke-linecap:round;stroke-linejoin:round;stroke-miterlimit:10;stroke-dasharray:none;stroke-opacity:1" transform="matrix(1.33333 0 0 -1.33333 69.012 533.774)"/><path d="M0 0c-2.527-.335-10.973-11.6-11.75-37-.375-12.25 12.625-75.375 19.5-76S21.792-97.447 36.5-94.25c11.5 2.5 18.75-4 18.75-4s-4.167 21.334-21.5 54.334S6.917.916 0 0" style="fill:#344791;fill-opacity:1;fill-rule:nonzero;stroke:none" transform="matrix(1.33333 0 0 -1.33333 176.512 492.274)"/><path d="M0 0c-2.527-.335-10.973-11.6-11.75-37-.375-12.25 12.625-75.375 19.5-76S21.792-97.447 36.5-94.25c11.5 2.5 18.75-4 18.75-4s-4.167 21.334-21.5 54.334S6.917.916 0 0Z" style="fill:none;stroke:#373535;stroke-width:2;stroke-linecap:round;stroke-linejoin:round;stroke-miterlimit:10;stroke-dasharray:none;stroke-opacity:1" transform="matrix(1.33333 0 0 -1.33333 176.512 492.274)"/><path d="M0 0s0-3.5 1-5 32.125-14.75 69.125-1.25c0 0 1.125 3-.625 4.5 0 0-38.875-13.875-69.5 1.75" style="fill:#aaacae;fill-opacity:1;fill-rule:nonzero;stroke:none" transform="matrix(1.33333 0 0 -1.33333 179.179 647.94)"/><path d="M0 0s0-3.5 1-5 32.125-14.75 69.125-1.25c0 0 1.125 3-.625 4.5 0 0-38.875-13.875-69.5 1.75z" style="fill:none;stroke:#373535;stroke-width:2;stroke-linecap:round;stroke-linejoin:round;stroke-miterlimit:10;stroke-dasharray:none;stroke-opacity:1" transform="matrix(1.33333 0 0 -1.33333 179.179 647.94)"/><path d="M0 0s-1.875 1.125-4.125-.25-2.875-24.25-1-37.375c0 0 .375-3.875 3.625-3.625S1-36.125 1-36.125-.875-11.875 0 0" style="fill:#fff;fill-opacity:1;fill-rule:nonzero;stroke:none" transform="matrix(1.33333 0 0 -1.33333 76.679 491.607)"/><path d="M0 0s-1.875 1.125-4.125-.25-2.875-24.25-1-37.375c0 0 .375-3.875 3.625-3.625S1-36.125 1-36.125-.875-11.875 0 0z" style="fill:none;stroke:#373535;stroke-width:2;stroke-linecap:round;stroke-linejoin:round;stroke-miterlimit:10;stroke-dasharray:none;stroke-opacity:1" transform="matrix(1.33333 0 0 -1.33333 76.679 491.607)"/><path d="M0 0s2.75 3 5.75.875c0 0 7.25-14.75 11.375-28 0 0 2.5-5.625 0-6.625S13-32.625 11.25-28.625 2.25-4.25 0 0" style="fill:#fff;fill-opacity:1;fill-rule:nonzero;stroke:none" transform="matrix(1.33333 0 0 -1.33333 173.346 494.44)"/><path d="M0 0s2.75 3 5.75.875c0 0 7.25-14.75 11.375-28 0 0 2.5-5.625 0-6.625S13-32.625 11.25-28.625 2.25-4.25 0 0Z" style="fill:none;stroke:#373535;stroke-width:2;stroke-linecap:round;stroke-linejoin:round;stroke-miterlimit:10;stroke-dasharray:none;stroke-opacity:1" transform="matrix(1.33333 0 0 -1.33333 173.346 494.44)"/><path d="M0 0s-1.5-3.5.625-4.75c0 0 10.875-6.625 35.5-4.625S73-2.125 73.75-1.25s1.5 3.375 1 4.75c0 0-42.625-16.625-74.75-3.5" style="fill:#aaacae;fill-opacity:1;fill-rule:nonzero;stroke:none" transform="matrix(1.33333 0 0 -1.33333 48.179 655.44)"/><path d="M0 0s-1.5-3.5.625-4.75c0 0 10.875-6.625 35.5-4.625S73-2.125 73.75-1.25s1.5 3.375 1 4.75c0 0-42.625-16.625-74.75-3.5Z" style="fill:none;stroke:#373535;stroke-width:2;stroke-linecap:round;stroke-linejoin:round;stroke-miterlimit:10;stroke-dasharray:none;stroke-opacity:1" transform="matrix(1.33333 0 0 -1.33333 48.179 655.44)"/><g clip-path="url(#e)" transform="matrix(1.33333 0 0 -1.33333 -206.488 743.648)"><path d="M0 0s9.875-4.645-.312-5.072c0 0 17.479-.428.312 5.072" style="fill:#cdbcd2;fill-opacity:1;fill-rule:nonzero;stroke:none" transform="translate(223.5 380.946)"/></g><path d="M0 0s4.667-2.418 11-1.084 9.501 4.751 12.667 4.834c3.166.083 9.748 2.153 9.25 5.833-.417 3.083-6.001 1.001-8.334 1.417 0 0 11.687 8.961 9.417 13.5-1.083 2.166-10.417-5.917-12.75-7.167 0 0 5.523 8.025 3.25 10.083-1.75 1.584-4.833-3.25-4.833-3.25s-2.75.334-5.75-2.666S-5.083 5.75 0 0" style="fill:#424142;fill-opacity:1;fill-rule:nonzero;stroke:none" transform="matrix(1.33333 0 0 -1.33333 637.958 420.718)"/><path d="M0 0s4.667-2.418 11-1.084 9.501 4.751 12.667 4.834c3.166.083 9.748 2.153 9.25 5.833-.417 3.083-6.001 1.001-8.334 1.417 0 0 11.687 8.961 9.417 13.5-1.083 2.166-10.417-5.917-12.75-7.167 0 0 5.523 8.025 3.25 10.083-1.75 1.584-4.833-3.25-4.833-3.25s-2.75.334-5.75-2.666S-5.083 5.75 0 0Z" style="fill:none;stroke:#373535;stroke-width:2;stroke-linecap:round;stroke-linejoin:round;stroke-miterlimit:10;stroke-dasharray:none;stroke-opacity:1" transform="matrix(1.33333 0 0 -1.33333 637.958 420.718)"/><path d="M0 0s-47-28.25-78.5-34.5c0 0 16.75-24.5 22.25-41.75 0 0 46.5 22.75 56 65.5 0 0-3-40 30-67.25 0 0 8.75.75 14 18.75s15 15.5 15 15.5S26-25.5 0 0" style="fill:#ed2790;fill-opacity:1;fill-rule:nonzero;stroke:none" transform="matrix(1.33333 0 0 -1.33333 523.179 325.607)"/><path d="M0 0s-47-28.25-78.5-34.5c0 0 16.75-24.5 22.25-41.75 0 0 46.5 22.75 56 65.5 0 0-3-40 30-67.25 0 0 8.75.75 14 18.75s15 15.5 15 15.5S26-25.5 0 0Z" style="fill:none;stroke:#373535;stroke-width:2;stroke-linecap:round;stroke-linejoin:round;stroke-miterlimit:10;stroke-dasharray:none;stroke-opacity:1" transform="matrix(1.33333 0 0 -1.33333 523.179 325.607)"/><path d="M0 0s.832 34.667 1.666 46.167 35.474 17.737 33.5-2c-2-20-3-51.333-3-51.333z" style="fill:#aaacae;fill-opacity:1;fill-rule:nonzero;stroke:none" transform="matrix(1.33333 0 0 -1.33333 454.624 518.83)"/><path d="M0 0s.832 34.667 1.666 46.167 35.474 17.737 33.5-2c-2-20-3-51.333-3-51.333z" style="fill:none;stroke:#373535;stroke-width:2;stroke-linecap:round;stroke-linejoin:round;stroke-miterlimit:10;stroke-dasharray:none;stroke-opacity:1" transform="matrix(1.33333 0 0 -1.33333 454.624 518.83)"/><path d="M0 0s-8.721 33.563-12.156 44.569c-3.437 11.006-38.585 9.175-32.16-9.591 6.51-19.016 14.634-49.294 14.634-49.294z" style="fill:#aaacae;fill-opacity:1;fill-rule:nonzero;stroke:none" transform="matrix(1.33333 0 0 -1.33333 587.014 514.148)"/><path d="M0 0s-8.721 33.563-12.156 44.569c-3.437 11.006-38.585 9.175-32.16-9.591 6.51-19.016 14.634-49.294 14.634-49.294z" style="fill:none;stroke:#373535;stroke-width:2;stroke-linecap:round;stroke-linejoin:round;stroke-miterlimit:10;stroke-dasharray:none;stroke-opacity:1" transform="matrix(1.33333 0 0 -1.33333 587.014 514.148)"/><path d="M0 0s-1-5.208-2.5-8.458 15.625-20.125 21.375-20.25 32.875-.875 37.25 14.75c0 0-1.125 6.25-.625 14S-.375 23.708 0 0" style="fill:#aaacae;fill-opacity:1;fill-rule:nonzero;stroke:none" transform="matrix(1.33333 0 0 -1.33333 479.512 359.496)"/><path d="M0 0s-1-5.208-2.5-8.458 15.625-20.125 21.375-20.25 32.875-.875 37.25 14.75c0 0-1.125 6.25-.625 14S-.375 23.708 0 0Z" style="fill:none;stroke:#373535;stroke-width:2;stroke-linecap:round;stroke-linejoin:round;stroke-miterlimit:10;stroke-dasharray:none;stroke-opacity:1" transform="matrix(1.33333 0 0 -1.33333 479.512 359.496)"/><path d="M0 0s-20.5 21.5-43.5 18.5c0 0-13.5-7.25 8.75-47.25 0 0 3.25-8.25 34 13.75 0 0 17.5-20.5 26-18 0 0 27 21.75 18.25 48.5 0 0-6.25 5.5-43.5-15.5" style="fill:#ed2790;fill-opacity:1;fill-rule:nonzero;stroke:none" transform="matrix(1.33333 0 0 -1.33333 523.179 310.607)"/><path d="M0 0s-20.5 21.5-43.5 18.5c0 0-13.5-7.25 8.75-47.25 0 0 3.25-8.25 34 13.75 0 0 17.5-20.5 26-18 0 0 27 21.75 18.25 48.5 0 0-6.25 5.5-43.5-15.5Z" style="fill:none;stroke:#373535;stroke-width:2;stroke-linecap:round;stroke-linejoin:round;stroke-miterlimit:10;stroke-dasharray:none;stroke-opacity:1" transform="matrix(1.33333 0 0 -1.33333 523.179 310.607)"/><path d="M0 0s5.167.667 7 8.167c1.833 7.5 22.334 4.166 23.5-1.834 1.166-6 3.166-7.5 4.833-9C37-4.167 17.5-14.5 17.5-14.5S.834-4.167 0 0" style="fill:#fff;fill-opacity:1;fill-rule:nonzero;stroke:none" transform="matrix(1.33333 0 0 -1.33333 500.402 297.496)"/><path d="M0 0s5.167.667 7 8.167c1.833 7.5 22.334 4.166 23.5-1.834 1.166-6 3.166-7.5 4.833-9C37-4.167 17.5-14.5 17.5-14.5S.834-4.167 0 0Z" style="fill:none;stroke:#373535;stroke-width:2;stroke-linecap:round;stroke-linejoin:round;stroke-miterlimit:10;stroke-dasharray:none;stroke-opacity:1" transform="matrix(1.33333 0 0 -1.33333 500.402 297.496)"/><path d="M0 0s5.376 10.754-.18 25.631C-5.735 40.508-19.895 52.696-32.084 54.31c0 0 9.321-9.142 1.614-13.085-7.709-3.943-7.708 11.471-7.528 17.028.178 5.556-1.792 10.754-5.915 18.82 0 0-3.766-8.424-13.085-17.745-9.32-9.321-24.196-18.641-27.603-44.272-3.405-25.631 17.566-44.272 37.998-44.272C-26.169-29.216-7.527-18.64 0 0" style="fill:#424142;fill-opacity:1;fill-rule:nonzero;stroke:none" transform="matrix(1.33333 0 0 -1.33333 531.732 103.37)"/><path d="M0 0s5.376 10.754-.18 25.631C-5.735 40.508-19.895 52.696-32.084 54.31c0 0 9.321-9.142 1.614-13.085-7.709-3.943-7.708 11.471-7.528 17.028.178 5.556-1.792 10.754-5.915 18.82 0 0-3.766-8.424-13.085-17.745-9.32-9.321-24.196-18.641-27.603-44.272-3.405-25.631 17.566-44.272 37.998-44.272C-26.169-29.216-7.527-18.64 0 0Z" style="fill:none;stroke:#373535;stroke-width:2;stroke-linecap:round;stroke-linejoin:round;stroke-miterlimit:10;stroke-dasharray:none;stroke-opacity:1" transform="matrix(1.33333 0 0 -1.33333 531.732 103.37)"/><path d="M0 0s9.141 17.341 8.2 46.782c-.941 29.439-16.937-.538-16.937-.538S-13.174 4.84 0 0" style="fill:#ee3338;fill-opacity:1;fill-rule:nonzero;stroke:none" transform="matrix(1.33333 0 0 -1.33333 605.758 256.919)"/><path d="M0 0s9.141 17.341 8.2 46.782c-.941 29.439-16.937-.538-16.937-.538S-13.174 4.84 0 0Z" style="fill:none;stroke:#373535;stroke-width:2;stroke-linecap:round;stroke-linejoin:round;stroke-miterlimit:10;stroke-dasharray:none;stroke-opacity:1" transform="matrix(1.33333 0 0 -1.33333 605.758 256.919)"/><path d="M0 0s-2.15-37.909 8.47-49.604C19.09-61.3 16.805-1.479 16.805-1.479S1.345 15.728 0 0" style="fill:#ee3338;fill-opacity:1;fill-rule:nonzero;stroke:none" transform="matrix(1.33333 0 0 -1.33333 441.395 188.987)"/><path d="M0 0s-2.15-37.909 8.47-49.604C19.09-61.3 16.805-1.479 16.805-1.479S1.345 15.728 0 0Z" style="fill:none;stroke:#373535;stroke-width:2;stroke-linecap:round;stroke-linejoin:round;stroke-miterlimit:10;stroke-dasharray:none;stroke-opacity:1" transform="matrix(1.33333 0 0 -1.33333 441.395 188.987)"/><path d="M0 0c-2.085-6.834-1.882-22.719-1.748-26.752 0 0-7.259-4.974-5.107-18.283 2.15-13.308 21.507-31.321 57.401-34.01 35.892-2.688 58.611 17.341 59.82 30.381 1.21 13.04-5.512 18.686-5.512 18.686s1.344 20.165-3.495 33.338C96.521 16.534 9.679 31.725 0 0" style="fill:#feddbf;fill-opacity:1;fill-rule:nonzero;stroke:none" transform="matrix(1.33333 0 0 -1.33333 459.5 189.524)"/><path d="M0 0c-2.085-6.834-1.882-22.719-1.748-26.752 0 0-7.259-4.974-5.107-18.283 2.15-13.308 21.507-31.321 57.401-34.01 35.892-2.688 58.611 17.341 59.82 30.381 1.21 13.04-5.512 18.686-5.512 18.686s1.344 20.165-3.495 33.338C96.521 16.534 9.679 31.725 0 0Z" style="fill:none;stroke:#373535;stroke-width:2;stroke-linecap:round;stroke-linejoin:round;stroke-miterlimit:10;stroke-dasharray:none;stroke-opacity:1" transform="matrix(1.33333 0 0 -1.33333 459.5 189.524)"/><path d="M0 0s-11.473-22.226-3.227-33.697c0 0 35.58.359 64.974-20.613 0 0 1.48-1.747 3.631-.269 2.149 1.479 22.986 16.401 63.047 17.208 0 0 7.93 11.829-2.286 35.085 0 0-68.784-20.477-126.139 2.286" style="fill:#ee3338;fill-opacity:1;fill-rule:nonzero;stroke:none" transform="matrix(1.33333 0 0 -1.33333 445.459 144.715)"/><path d="M0 0s-11.473-22.226-3.227-33.697c0 0 35.58.359 64.974-20.613 0 0 1.48-1.747 3.631-.269 2.149 1.479 22.986 16.401 63.047 17.208 0 0 7.93 11.829-2.286 35.085 0 0-68.784-20.477-126.139 2.286z" style="fill:none;stroke:#373535;stroke-width:2;stroke-linecap:round;stroke-linejoin:round;stroke-miterlimit:10;stroke-dasharray:none;stroke-opacity:1" transform="matrix(1.33333 0 0 -1.33333 445.459 144.715)"/><path d="M0 0c-15.234 2.688-17.745 10.755-17.745 10.755 3.943 7.707 16.848 24.734 52.159 28.14 39.815 3.84 61.12-22.943 61.12-22.943" style="fill:none;stroke:#373535;stroke-width:2.151;stroke-linecap:round;stroke-linejoin:round;stroke-miterlimit:10;stroke-dasharray:none;stroke-opacity:1" transform="matrix(1.33333 0 0 -1.33333 473.182 154.992)"/><path d="M0 0s11.203 13.264 20.702 18.551c9.5 5.287 29.125 12.367 50.456 9.589 21.329-2.778 35.31-12.368 44.63-23.121 0 0 8.424 4.301 7.26 17.834 0 0-.269 8.962-7.438 8.693 0 0 9.769 2.062 15.325-7.797 5.555-9.858 3.673-18.461 1.523-25.811-2.151-7.348-10.397-24.286-24.198-33.875-13.8-9.59-31.097-14.788-57.625-8.335 0 0-17.656 5.377-24.377 19.179l-4.571 9.41s-.626 5.914-4.39 6.542C13.532-8.514.359-1.345 0 0" style="fill:#424142;fill-opacity:1;fill-rule:nonzero;stroke:none" transform="matrix(1.33333 0 0 -1.33333 446.295 140.892)"/><path d="M0 0s11.203 13.264 20.702 18.551c9.5 5.287 29.125 12.367 50.456 9.589 21.329-2.778 35.31-12.368 44.63-23.121 0 0 8.424 4.301 7.26 17.834 0 0-.269 8.962-7.438 8.693 0 0 9.769 2.062 15.325-7.797 5.555-9.858 3.673-18.461 1.523-25.811-2.151-7.348-10.397-24.286-24.198-33.875-13.8-9.59-31.097-14.788-57.625-8.335 0 0-17.656 5.377-24.377 19.179l-4.571 9.41s-.626 5.914-4.39 6.542C13.532-8.514.359-1.345 0 0Z" style="fill:none;stroke:#373535;stroke-width:2;stroke-linecap:round;stroke-linejoin:round;stroke-miterlimit:10;stroke-dasharray:none;stroke-opacity:1" transform="matrix(1.33333 0 0 -1.33333 446.295 140.892)"/><path d="M0 0c-.244-.017-1.247.052-1.789.117-.588.072-1.048.255-1.025.403.047.306.752.238 1.529.301 5.963.488 5.127 1.805 5.13 1.816.001.178-.544.989-2.249 1.796-2.762 1.307-4.994 1.072-7.244-.764-.383-.315-.417-.511-.436-.54-.214-.31-.02-.856.387-1.247.394-.379 1.573-.757 1.484-1.118-.024-.101-1.099-.156-1.652.063-.389.155-1.48.154-1.732 1.783-.096.63.195 1.335 1.364 2.291 2.893 2.365 5.156 2.396 8.671.731 1.172-.556 3.352-2.106 2.77-3.596C4.884 1.204 4.354.282 0 0" style="fill:#373535;fill-opacity:1;fill-rule:nonzero;stroke:none" transform="matrix(1.33333 0 0 -1.33333 529.767 252.433)"/><path d="M0 0s17.216-3.001 20.254 13.443c3.048 16.491-7.169 14.877-7.169 14.877 6.632 2.689 20.075-4.481 18.461-23.839C29.934-14.876 9.141-54.13-37.998-49.828-85.139-45.526-83.166-.896-83.166-.896" style="fill:none;stroke:#373535;stroke-width:2;stroke-linecap:round;stroke-linejoin:round;stroke-miterlimit:10;stroke-dasharray:none;stroke-opacity:1" transform="matrix(1.33333 0 0 -1.33333 583.114 137.068)"/><path d="m0 0-22.046 85.497L3.227 39.792l31.904 47.139Z" style="fill:#ed2790;fill-opacity:1;fill-rule:nonzero;stroke:none" transform="matrix(1.33333 0 0 -1.33333 457.168 192.273)"/><path d="m0 0-22.046 85.497L3.227 39.792l31.904 47.139Z" style="fill:none;stroke:#373535;stroke-width:2;stroke-linecap:round;stroke-linejoin:round;stroke-miterlimit:10;stroke-dasharray:none;stroke-opacity:1" transform="matrix(1.33333 0 0 -1.33333 457.168 192.273)"/><path d="M0 0s-1.614-9.5 3.494-14.07c5.109-4.571 12.326-9.914 21.778-8.335.539.09 5.29 3.495 6.274 12.726.985 9.231-6.273 21.061-15.325 21.509C7.169 12.278.447 5.825 0 0" style="fill:#fff;fill-opacity:1;fill-rule:nonzero;stroke:none" transform="matrix(1.33333 0 0 -1.33333 463.503 215.097)"/><path d="M0 0s1.794 6.542-1.254 15.952-10.844 12.099-14.608 12.995c-3.764.896-13.712 0-18.103-10.486 0 0-5.825 1.345-11.65 6.991 0 0 4.032-9.5 13.621-13.712 0 0 4.578 15.809 17.118 13.264C-2.509 22.494.538 5.377 0 0" style="fill:#373535;fill-opacity:1;fill-rule:nonzero;stroke:none" transform="matrix(1.33333 0 0 -1.33333 505.803 234.693)"/><path d="M0 0s7.976-13.085 24.376-10.575c0 0-11.919-1.703-24.376 10.575" style="fill:#373535;fill-opacity:1;fill-rule:nonzero;stroke:none" transform="matrix(1.33333 0 0 -1.33333 465.416 230.75)"/><path d="M0 0c-5.209.307-10.665-2.42-11.831-14.698-1.164-12.277 6.992-15.414 10.576-15.772 3.585-.359 9.859-1.256 11.292 12.815C11.471-3.585 1.522-.09 0 0" style="fill:#373535;fill-opacity:1;fill-rule:nonzero;stroke:none" transform="matrix(1.33333 0 0 -1.33333 492.182 204.462)"/><path d="M0 0c-4.212 0-4.84-7.349.448-7.349S5.02 0 0 0" style="fill:#fff;fill-opacity:1;fill-rule:nonzero;stroke:none" transform="matrix(1.33333 0 0 -1.33333 496.364 218.801)"/><path d="M0 0s1.613-9.5-3.495-14.07c-5.109-4.571-12.325-9.914-21.776-8.335-.54.09-5.291 3.495-6.276 12.726-.984 9.231 6.274 21.061 15.325 21.509C-7.17 12.277-.446 5.825 0 0" style="fill:#fff;fill-opacity:1;fill-rule:nonzero;stroke:none" transform="matrix(1.33333 0 0 -1.33333 590.88 219.757)"/><path d="M0 0s-1.794 6.542 1.253 15.952c3.049 9.41 10.846 12.099 14.609 12.995 3.765.896 13.712 0 18.103-10.485 0 0 5.825 1.344 11.65 6.99 0 0-4.032-9.5-13.621-13.712 0 0-4.578 15.809-17.118 13.264C2.509 22.495-.538 5.377 0 0" style="fill:#373535;fill-opacity:1;fill-rule:nonzero;stroke:none" transform="matrix(1.33333 0 0 -1.33333 548.581 239.354)"/><path d="M0 0s-7.976-13.085-24.376-10.575c0 0 11.919-1.703 24.376 10.575" style="fill:#373535;fill-opacity:1;fill-rule:nonzero;stroke:none" transform="matrix(1.33333 0 0 -1.33333 588.968 235.41)"/><path d="M0 0c5.207.307 10.664-2.42 11.829-14.698C12.993-26.975 4.838-30.112 1.253-30.47c-3.584-.359-9.858-1.255-11.292 12.815C-11.473-3.584-1.523-.09 0 0" style="fill:#373535;fill-opacity:1;fill-rule:nonzero;stroke:none" transform="matrix(1.33333 0 0 -1.33333 562.204 209.122)"/><path d="M0 0c4.213 0 4.841-7.349-.447-7.349C-5.734-7.349-5.019 0 0 0" style="fill:#fff;fill-opacity:1;fill-rule:nonzero;stroke:none" transform="matrix(1.33333 0 0 -1.33333 558.019 223.461)"/><path d="M0 0s4.839-6.721 16.849-6.721c12.008 0 15.505 4.659 15.505 4.659" style="fill:none;stroke:#373535;stroke-width:1.613;stroke-linecap:round;stroke-linejoin:round;stroke-miterlimit:10;stroke-dasharray:none;stroke-opacity:1" transform="matrix(1.33333 0 0 -1.33333 505.444 258.711)"/><path d="M0 0s-4.5-1.833-8.5-1.25S-16.751 2-19.417 2.083c-2.666.083-8.82.658-9 5.167-.04.995 2.142.895 4.417 1.166 2.484.297 5.083.917 5.083.917s-9.753 3.858-11.583 9.5c-1 3.083.417 3.5.417 3.5s-1.501 3.083 2.416 2.333c0 0 .25 1.667 4.334.667 4.083-1 12.5-3.583 12.5-3.583S6.917 7 0 0" style="fill:#424142;fill-opacity:1;fill-rule:nonzero;stroke:none" transform="matrix(1.33333 0 0 -1.33333 384.402 420.051)"/><path d="M0 0s-4.5-1.833-8.5-1.25S-16.751 2-19.417 2.083c-2.666.083-8.82.658-9 5.167-.04.995 2.142.895 4.417 1.166 2.484.297 5.083.917 5.083.917s-9.753 3.858-11.583 9.5c-1 3.083.417 3.5.417 3.5s-1.501 3.083 2.416 2.333c0 0 .25 1.667 4.334.667 4.083-1 12.5-3.583 12.5-3.583S6.917 7 0 0Z" style="fill:none;stroke:#373535;stroke-width:2;stroke-linecap:round;stroke-linejoin:round;stroke-miterlimit:10;stroke-dasharray:none;stroke-opacity:1" transform="matrix(1.33333 0 0 -1.33333 384.402 420.051)"/><path d="M0 0s.833.751 2.083-.083c1.25-.834 7.5-4.834 11.5-5.834" style="fill:#424142;fill-opacity:1;fill-rule:nonzero;stroke:#373535;stroke-width:2;stroke-linecap:round;stroke-linejoin:round;stroke-miterlimit:10;stroke-dasharray:none;stroke-opacity:1" transform="matrix(1.33333 0 0 -1.33333 343.735 390.607)"/><path d="M0 0s-18.333 18.999-26.5 24.5c-8.167 5.5-12.666 5.833-18.333 2.333-5.667-3.5-6.5-14.167.333-27.167 6.833-13 14.167-19.834 16-21 1.833-1.166 18.001-5 25.167 3.5S0 0 0 0" style="fill:#424142;fill-opacity:1;fill-rule:nonzero;stroke:none" transform="matrix(1.33333 0 0 -1.33333 648.179 381.051)"/><path d="M0 0s-18.333 18.999-26.5 24.5c-8.167 5.5-12.666 5.833-18.333 2.333-5.667-3.5-6.5-14.167.333-27.167 6.833-13 14.167-19.834 16-21 1.833-1.166 18.001-5 25.167 3.5S0 0 0 0Z" style="fill:none;stroke:#373535;stroke-width:2;stroke-linecap:round;stroke-linejoin:round;stroke-miterlimit:10;stroke-dasharray:none;stroke-opacity:1" transform="matrix(1.33333 0 0 -1.33333 648.179 381.051)"/><path d="M0 0s10.166-3.916 12.25-4.083" style="fill:#424142;fill-opacity:1;fill-rule:nonzero;stroke:#373535;stroke-width:2;stroke-linecap:round;stroke-linejoin:round;stroke-miterlimit:10;stroke-dasharray:none;stroke-opacity:1" transform="matrix(1.33333 0 0 -1.33333 347.512 387.163)"/><path d="M0 0s16.687-5.182 24.5 3.834c2.995 3.455 5.386 8.587 4 17.5 0 0 9.834-10 10.667-12.667C40 6 42.5-3.167 26.5-7.5 10.5-11.833 0 0 0 0" style="fill:#aaacae;fill-opacity:1;fill-rule:nonzero;stroke:none" transform="matrix(1.33333 0 0 -1.33333 610.179 409.496)"/><path d="M0 0s16.687-5.182 24.5 3.834c2.995 3.455 5.386 8.587 4 17.5 0 0 9.834-10 10.667-12.667C40 6 42.5-3.167 26.5-7.5 10.5-11.833 0 0 0 0Z" style="fill:none;stroke:#373535;stroke-width:2;stroke-linecap:round;stroke-linejoin:round;stroke-miterlimit:10;stroke-dasharray:none;stroke-opacity:1" transform="matrix(1.33333 0 0 -1.33333 610.179 409.496)"/><path d="m0 0-3.334-4.75" style="fill:#424142;fill-opacity:1;fill-rule:nonzero;stroke:#373535;stroke-width:2;stroke-linecap:round;stroke-linejoin:round;stroke-miterlimit:10;stroke-dasharray:none;stroke-opacity:1" transform="matrix(1.33333 0 0 -1.33333 664.847 387.496)"/><path d="M0 0s13.166-16.833 16.833-20.833C20.5-24.833 25.667-26.5 29-23.5s3.833 9.667 2.833 11.167-10 13.333-17 22.5c-7 9.166-13.667 16.833-23 13.666C-17.5 20.667-2 3.167 0 0" style="fill:#fff;fill-opacity:1;fill-rule:nonzero;stroke:none" transform="matrix(1.33333 0 0 -1.33333 562.179 332.83)"/><path d="M0 0s13.166-16.833 16.833-20.833C20.5-24.833 25.667-26.5 29-23.5s3.833 9.667 2.833 11.167-10 13.333-17 22.5c-7 9.166-13.667 16.833-23 13.666C-17.5 20.667-2 3.167 0 0Z" style="fill:none;stroke:#373535;stroke-width:2;stroke-linecap:round;stroke-linejoin:round;stroke-miterlimit:10;stroke-dasharray:none;stroke-opacity:1" transform="matrix(1.33333 0 0 -1.33333 562.179 332.83)"/><path d="M0 0c-6-.667-32.501-13.668-44.167-28.334 0 0-7.834-18.166 19-27.666 0 0 30.334 6.166 41.5 42.666 0 0 3.298 15.516-16.333 13.334" style="fill:#424142;fill-opacity:1;fill-rule:nonzero;stroke:none" transform="matrix(1.33333 0 0 -1.33333 434.846 345.274)"/><path d="M0 0c-6-.667-32.501-13.668-44.167-28.334 0 0-7.834-18.166 19-27.666 0 0 30.334 6.166 41.5 42.666 0 0 3.298 15.516-16.333 13.334z" style="fill:none;stroke:#373535;stroke-width:2;stroke-linecap:round;stroke-linejoin:round;stroke-miterlimit:10;stroke-dasharray:none;stroke-opacity:1" transform="matrix(1.33333 0 0 -1.33333 434.846 345.274)"/><path d="M0 0s12.834-8.167 16.334-14.667c0 0 7.5 7.667 19 11.834 0 0 9.166-5.001 10.166-15.834 1-10.833-3-29.666-7-33.333-4-3.667-29.5-18.167-55.333 5.333 0 0-1.5 1.167-.833 4.5.893 4.46.5 14.334.333 15.167-.167.833 7.167 12 6.5 25 0 0 7.166 4.167 10.833 2" style="fill:#ee3338;fill-opacity:1;fill-rule:nonzero;stroke:none" transform="matrix(1.33333 0 0 -1.33333 501.956 297.274)"/><path d="M0 0s12.834-8.167 16.334-14.667c0 0 7.5 7.667 19 11.834 0 0 9.166-5.001 10.166-15.834 1-10.833-3-29.666-7-33.333-4-3.667-29.5-18.167-55.333 5.333 0 0-1.5 1.167-.833 4.5.893 4.46.5 14.334.333 15.167-.167.833 7.167 12 6.5 25 0 0 7.166 4.167 10.833 2z" style="fill:none;stroke:#373535;stroke-width:2;stroke-linecap:round;stroke-linejoin:round;stroke-miterlimit:10;stroke-dasharray:none;stroke-opacity:1" transform="matrix(1.33333 0 0 -1.33333 501.956 297.274)"/><path d="M0 0s12.375 10.875 16.625 16.875 14.25 21.75 24.125 17.75c0 0 2.125-13.5-8-26.125S15.875-12.75 15.875-12.75 9-21 1.375-13.625C-6.139-6.357 0 0 0 0" style="fill:#fff;fill-opacity:1;fill-rule:nonzero;stroke:none" transform="matrix(1.33333 0 0 -1.33333 434.846 345.274)"/><path d="M0 0s12.375 10.875 16.625 16.875 14.25 21.75 24.125 17.75c0 0 2.125-13.5-8-26.125S15.875-12.75 15.875-12.75 9-21 1.375-13.625C-6.139-6.357 0 0 0 0Z" style="fill:none;stroke:#373535;stroke-width:2;stroke-linecap:round;stroke-linejoin:round;stroke-miterlimit:10;stroke-dasharray:none;stroke-opacity:1" transform="matrix(1.33333 0 0 -1.33333 434.846 345.274)"/><path d="M0 0s3.999-5.5-3.834-44.833" style="fill:#ee3338;fill-opacity:1;fill-rule:nonzero;stroke:#373535;stroke-width:2;stroke-linecap:round;stroke-linejoin:round;stroke-miterlimit:10;stroke-dasharray:none;stroke-opacity:1" transform="matrix(1.33333 0 0 -1.33333 523.735 316.83)"/><path d="M0 0s29-27.625 58.5-5c0 0 .75.625 1.5.625s2.25-.5 4.5-4.5 21-34.875 33.625-42.875c0 0 2.5-.875.75-3-1.577-1.915-28.75-24.375-70.5-25.875s-69.75 22.25-76.25 32.375c0 0-2 2.375 0 3.25S-21.25-26.75-4.25-.75c0 0 2 3.375 4.25.75" style="fill:#ee3338;fill-opacity:1;fill-rule:nonzero;stroke:none" transform="matrix(1.33333 0 0 -1.33333 476.346 371.44)"/><path d="M0 0s29-27.625 58.5-5c0 0 .75.625 1.5.625s2.25-.5 4.5-4.5 21-34.875 33.625-42.875c0 0 2.5-.875.75-3-1.577-1.915-28.75-24.375-70.5-25.875s-69.75 22.25-76.25 32.375c0 0-2 2.375 0 3.25S-21.25-26.75-4.25-.75c0 0 2 3.375 4.25.75z" style="fill:none;stroke:#373535;stroke-width:2;stroke-linecap:round;stroke-linejoin:round;stroke-miterlimit:10;stroke-dasharray:none;stroke-opacity:1" transform="matrix(1.33333 0 0 -1.33333 476.346 371.44)"/><path d="M0 0s.667-5.166 2.167-5.833C3.667-6.5 38.5-9.167 63.667-3c0 0 1.501 2.001 1.167 6.167z" style="fill:#aaacae;fill-opacity:1;fill-rule:nonzero;stroke:none" transform="matrix(1.33333 0 0 -1.33333 417.29 647.275)"/><path d="M0 0s.667-5.166 2.167-5.833C3.667-6.5 38.5-9.167 63.667-3c0 0 1.501 2.001 1.167 6.167z" style="fill:none;stroke:#373535;stroke-width:2;stroke-linecap:round;stroke-linejoin:round;stroke-miterlimit:10;stroke-dasharray:none;stroke-opacity:1" transform="matrix(1.33333 0 0 -1.33333 417.29 647.275)"/><path d="M0 0c-1.021 1.751-13.605 5.602-21.333 3.25-8.625-2.625-22.316-18.779-20-23.875 1.25-2.75 21.797 1.532 28.25 5.875C-6.583-10.375 1.458-2.5 0 0" style="fill:#424142;fill-opacity:1;fill-rule:nonzero;stroke:none" transform="matrix(1.33333 0 0 -1.33333 501.956 297.274)"/><path d="M0 0c-1.021 1.751-13.605 5.602-21.333 3.25-8.625-2.625-22.316-18.779-20-23.875 1.25-2.75 21.797 1.532 28.25 5.875C-6.583-10.375 1.458-2.5 0 0Z" style="fill:none;stroke:#373535;stroke-width:2;stroke-linecap:round;stroke-linejoin:round;stroke-miterlimit:10;stroke-dasharray:none;stroke-opacity:1" transform="matrix(1.33333 0 0 -1.33333 501.956 297.274)"/><path d="M0 0s-10.833-4.834-13.333-13.667-.166-11.499 9-11.333c9.166.166 46.834 1.332 55 4.666 0 0 .349 21.153-20.334 25.334C14.667 8.167 0 0 0 0" style="fill:#424142;fill-opacity:1;fill-rule:nonzero;stroke:none" transform="matrix(1.33333 0 0 -1.33333 435.512 616.83)"/><path d="M0 0s-10.833-4.834-13.333-13.667-.166-11.499 9-11.333c9.166.166 46.834 1.332 55 4.666 0 0 .349 21.153-20.334 25.334C14.667 8.167 0 0 0 0Z" style="fill:none;stroke:#373535;stroke-width:2;stroke-linecap:round;stroke-linejoin:round;stroke-miterlimit:10;stroke-dasharray:none;stroke-opacity:1" transform="matrix(1.33333 0 0 -1.33333 435.512 616.83)"/><path d="M0 0s12.708 6.208 21.833 1.583c9.125-4.625 17.5-20.375 16.5-22.5s-20.875 1.125-30.5 12z" style="fill:#424142;fill-opacity:1;fill-rule:nonzero;stroke:none" transform="matrix(1.33333 0 0 -1.33333 549.068 301.052)"/><path d="M0 0s12.708 6.208 21.833 1.583c9.125-4.625 17.5-20.375 16.5-22.5s-20.875 1.125-30.5 12z" style="fill:none;stroke:#373535;stroke-width:2;stroke-linecap:round;stroke-linejoin:round;stroke-miterlimit:10;stroke-dasharray:none;stroke-opacity:1" transform="matrix(1.33333 0 0 -1.33333 549.068 301.052)"/><path d="M0 0s-8.168-9.166-7.834-12.666C-7.5-16.166-2.166-30.667 19-27c0 0-23.5 8.5-19 27" style="fill:#aaacae;fill-opacity:1;fill-rule:nonzero;stroke:none" transform="matrix(1.33333 0 0 -1.33333 375.068 384.163)"/><path d="M0 0s-8.168-9.166-7.834-12.666C-7.5-16.166-2.166-30.667 19-27c0 0-23.5 8.5-19 27Z" style="fill:none;stroke:#373535;stroke-width:2;stroke-linecap:round;stroke-linejoin:round;stroke-miterlimit:10;stroke-dasharray:none;stroke-opacity:1" transform="matrix(1.33333 0 0 -1.33333 375.068 384.163)"/><path d="M0 0s.833-6.332 2-7.166C3.167-8 35.833-15.5 60.833-7.666c0 0 .834 1.834.334 5.167C60.667.834 0 0 0 0" style="fill:#aaacae;fill-opacity:1;fill-rule:nonzero;stroke:none" transform="matrix(1.33333 0 0 -1.33333 564.402 643.498)"/><path d="M0 0s.833-6.332 2-7.166C3.167-8 35.833-15.5 60.833-7.666c0 0 .834 1.834.334 5.167C60.667.834 0 0 0 0Z" style="fill:none;stroke:#373535;stroke-width:2;stroke-linecap:round;stroke-linejoin:round;stroke-miterlimit:10;stroke-dasharray:none;stroke-opacity:1" transform="matrix(1.33333 0 0 -1.33333 564.402 643.498)"/><path d="M0 0c-1.893 3.469-14.168 19.667-24.334 20.167S-35.667 5.168-36.667 1.334c-1-3.834-10.667-67.499-10.667-70.333 0 0 10.833 6 22.5 1S-1.167-89.5 2.333-88.833c3.5.667 5.5 4.334 4.5 33.334C5.833-26.499 4.001-7.334 0 0" style="fill:#424142;fill-opacity:1;fill-rule:nonzero;stroke:none" transform="matrix(1.33333 0 0 -1.33333 498.624 524.831)"/><path d="M0 0c-1.893 3.469-14.168 19.667-24.334 20.167S-35.667 5.168-36.667 1.334c-1-3.834-10.667-67.499-10.667-70.333 0 0 10.833 6 22.5 1S-1.167-89.5 2.333-88.833c3.5.667 5.5 4.334 4.5 33.334C5.833-26.499 4.001-7.334 0 0Z" style="fill:none;stroke:#373535;stroke-width:2;stroke-linecap:round;stroke-linejoin:round;stroke-miterlimit:10;stroke-dasharray:none;stroke-opacity:1" transform="matrix(1.33333 0 0 -1.33333 498.624 524.831)"/><path d="M0 0s3.833-6.166 33.167-6.166c23.338 0 27.167 2.334 28 3.667.833 1.333.499 13.166-13.834 19.333C33 23.001 4.667 15.499 0 0" style="fill:#424142;fill-opacity:1;fill-rule:nonzero;stroke:none" transform="matrix(1.33333 0 0 -1.33333 564.402 643.498)"/><path d="M0 0s3.833-6.166 33.167-6.166c23.338 0 27.167 2.334 28 3.667.833 1.333.499 13.166-13.834 19.333C33 23.001 4.667 15.499 0 0Z" style="fill:none;stroke:#373535;stroke-width:2;stroke-linecap:round;stroke-linejoin:round;stroke-miterlimit:10;stroke-dasharray:none;stroke-opacity:1" transform="matrix(1.33333 0 0 -1.33333 564.402 643.498)"/><path d="M0 0s3 .75 5-.25C5-.25 3-13 2-23.5c-.419-4.399-5.186-3.279-5.125.875C-3-14 0 0 0 0" style="fill:#fff;fill-opacity:1;fill-rule:nonzero;stroke:none" transform="matrix(1.33333 0 0 -1.33333 462.846 498.274)"/><path d="M0 0s3 .75 5-.25C5-.25 3-13 2-23.5c-.419-4.399-5.186-3.279-5.125.875C-3-14 0 0 0 0Z" style="fill:none;stroke:#373535;stroke-width:2;stroke-linecap:round;stroke-linejoin:round;stroke-miterlimit:10;stroke-dasharray:none;stroke-opacity:1" transform="matrix(1.33333 0 0 -1.33333 462.846 498.274)"/><path d="M0 0c-6.909-.564-15.333-9.167-15.333-23.5s10.167-80.167 14.167-84c4-3.833 6.666 13.668 31.666 17.834 0 0 10.501 1.166 16.834-1.667 0 0-3.787 21.781-19.5 58.5C12.5 3 8.167.667 0 0" style="fill:#424142;fill-opacity:1;fill-rule:nonzero;stroke:none" transform="matrix(1.33333 0 0 -1.33333 565.956 500.164)"/><path d="M0 0c-6.909-.564-15.333-9.167-15.333-23.5s10.167-80.167 14.167-84c4-3.833 6.666 13.668 31.666 17.834 0 0 10.501 1.166 16.834-1.667 0 0-3.787 21.781-19.5 58.5C12.5 3 8.167.667 0 0Z" style="fill:none;stroke:#373535;stroke-width:2;stroke-linecap:round;stroke-linejoin:round;stroke-miterlimit:10;stroke-dasharray:none;stroke-opacity:1" transform="matrix(1.33333 0 0 -1.33333 565.956 500.164)"/><path d="M0 0s2.875 1.375 5.25 1.125c0 0 3.5-4.125 7.375-20.25 0 0 1.125-3.375-1.125-4.25S7.75-20.25 7.75-20.25 3.5-6.75 0 0" style="fill:#fff;fill-opacity:1;fill-rule:nonzero;stroke:none" transform="matrix(1.33333 0 0 -1.33333 563.012 501.607)"/><path d="M0 0s2.875 1.375 5.25 1.125c0 0 3.5-4.125 7.375-20.25 0 0 1.125-3.375-1.125-4.25S7.75-20.25 7.75-20.25 3.5-6.75 0 0z" style="fill:none;stroke:#373535;stroke-width:2;stroke-linecap:round;stroke-linejoin:round;stroke-miterlimit:10;stroke-dasharray:none;stroke-opacity:1" transform="matrix(1.33333 0 0 -1.33333 563.012 501.607)"/><g clip-path="url(#f)" transform="matrix(1.33333 0 0 -1.33333 -206.488 743.648)"><path d="M0 0s9.166-4.333-.5-4.667c0 0 6.209-1.166 6.209 1.834S0 0 0 0" style="fill:#cdbcd2;fill-opacity:1;fill-rule:nonzero;stroke:none" transform="translate(550.75 374.197)"/></g><g clip-path="url(#g)" transform="matrix(1.33333 0 0 -1.33333 -206.488 743.648)"><g clip-path="url(#h)"><g mask="url(#i)"><path d="M608 381.03s-20.5-5.875-30.75-17-11.75-25.125-3-24.75 33.125 13.125 35.5 25-1.75 16.75-1.75 16.75" style="fill:url(#j);stroke:none"/></g></g></g><g clip-path="url(#k)" transform="matrix(1.33333 0 0 -1.33333 -206.488 743.648)"><g clip-path="url(#l)"><g mask="url(#m)"><path d="M494.25 382.905s19-3 29.25-14.125 11.25-27.125 2.5-26.75-30.5 13.375-32.875 25.25 1.125 15.625 1.125 15.625" style="fill:url(#n);stroke:none"/></g></g></g><g clip-path="url(#o)" style="opacity:.399994" transform="matrix(1.33333 0 0 -1.33333 -206.488 743.648)"><path d="M0 0c-4-.25-20.375-2-21.5-4.25s-4.875-14.25-2.5-17 2.25 11.946 5.875 15.375C-15.042-2.958 0 0 0 0" style="fill:#fff;fill-opacity:1;fill-rule:nonzero;stroke:none" transform="translate(208.375 447.405)"/></g><g clip-path="url(#p)" style="opacity:.399994" transform="matrix(1.33333 0 0 -1.33333 -206.488 743.648)"><path d="M0 0c-1.715-.528-11.333-17.833-9.833-17.833s9.742 13.092 12 14.166C5.667-2 17-2.5 17-2.5S4.333 1.333 0 0" style="fill:#fff;fill-opacity:1;fill-rule:nonzero;stroke:none" transform="translate(250.167 446.28)"/></g><g clip-path="url(#q)" style="opacity:.399994" transform="matrix(1.33333 0 0 -1.33333 -206.488 743.648)"><path d="M0 0c-1.322-4.793-7.833-30.167-9.667-37.167-1.964-7.5 4.5 5.667 8.667 22.834C3.167 2.833 1.333 4.833 0 0" style="fill:#fff;fill-opacity:1;fill-rule:nonzero;stroke:none" transform="translate(286.834 397.613)"/></g><g clip-path="url(#r)" style="opacity:.399994" transform="matrix(1.33333 0 0 -1.33333 -206.488 743.648)"><path d="M0 0c-6.052.432-7.667-11.333-7.667-20.5 0-5.246 2.203 4.83 4.334 12.167C-1.741-2.851.998-.071 0 0" style="fill:#fff;fill-opacity:1;fill-rule:nonzero;stroke:none" transform="translate(219.833 324.78)"/></g><g clip-path="url(#s)" style="opacity:.399994" transform="matrix(1.33333 0 0 -1.33333 -206.488 743.648)"><path d="M0 0c-3.077-1.88-6.333-20.499-3.167-20.333 1.395.073 1.335 4.86 2.167 9.5C.058-4.933 1.68 1.026 0 0" style="fill:#fff;fill-opacity:1;fill-rule:nonzero;stroke:none" transform="translate(211.333 262.113)"/></g><g clip-path="url(#t)" style="opacity:.399994" transform="matrix(1.33333 0 0 -1.33333 -206.488 743.648)"><path d="M0 0c-.844-.105 3.333-43.166 5.833-43.666s5-1 7-1.5S10-43 7.333-39.833C4.667-36.666 2.667.333 0 0" style="fill:#fff;fill-opacity:1;fill-rule:nonzero;stroke:none" transform="translate(211.833 141.78)"/></g><g clip-path="url(#u)" style="opacity:.399994" transform="matrix(1.33333 0 0 -1.33333 -206.488 743.648)"><path d="M0 0c-3.187 1.448-18.875-18.375-16-18.875S1.375-.625 0 0" style="fill:#fff;fill-opacity:1;fill-rule:nonzero;stroke:none" transform="translate(213.875 86.405)"/></g><g clip-path="url(#v)" style="opacity:.399994" transform="matrix(1.33333 0 0 -1.33333 -206.488 743.648)"><path d="M0 0c-1.044.418-4.25-10.75-.625-29.125C1.392-39.348 11.125-79.25 14-77.75S5.135-38.248 3.375-28.625C-.375-8.125 1.875-.75 0 0" style="fill:#fff;fill-opacity:1;fill-rule:nonzero;stroke:none" transform="translate(281.625 162.905)"/></g><g clip-path="url(#w)" style="opacity:.399994" transform="matrix(1.33333 0 0 -1.33333 -206.488 743.648)"><path d="M0 0c-1.104.331 1.25-26.875 3-27.125S1.25-.375 0 0" style="fill:#fff;fill-opacity:1;fill-rule:nonzero;stroke:none" transform="translate(208.375 222.655)"/></g><g clip-path="url(#x)" style="opacity:.399994" transform="matrix(1.33333 0 0 -1.33333 -206.488 743.648)"><path d="M0 0c-1.056-.462 16.75-35.625 17.625-34S2 .875 0 0" style="fill:#fff;fill-opacity:1;fill-rule:nonzero;stroke:none" transform="translate(255.5 205.03)"/></g><g clip-path="url(#y)" style="opacity:.399994" transform="matrix(1.33333 0 0 -1.33333 -206.488 743.648)"><path d="M0 0c-.819.234-8.041-7.519-13.625-16.75-5.992-9.907-10.299-21.362-8.875-21.75 1.322-.36 5.165 9.458 10.375 18.75C-6.499-9.716.454-.13 0 0" style="fill:#fff;fill-opacity:1;fill-rule:nonzero;stroke:none" transform="translate(190.125 289.53)"/></g><g clip-path="url(#z)" style="opacity:.399994" transform="matrix(1.33333 0 0 -1.33333 -206.488 743.648)"><path d="M0 0c-.881.067-2.625-6.75-.375-5.375S1.625-.125 0 0" style="fill:#fff;fill-opacity:1;fill-rule:nonzero;stroke:none" transform="translate(161.875 241.655)"/></g><g clip-path="url(#A)" style="opacity:.399994" transform="matrix(1.33333 0 0 -1.33333 -206.488 743.648)"><path d="M0 0c-1.074.417-6.625-10.125-5.5-11S2.25-.875 0 0" style="fill:#fff;fill-opacity:1;fill-rule:nonzero;stroke:none" transform="translate(207 339.03)"/></g><g clip-path="url(#B)" style="opacity:.399994" transform="matrix(1.33333 0 0 -1.33333 -206.488 743.648)"><path d="M0 0c-1.107-1.107 11.75-3.125 12.625-1.875S1.625 1.625 0 0" style="fill:#fff;fill-opacity:1;fill-rule:nonzero;stroke:none" transform="translate(280.75 344.53)"/></g><g clip-path="url(#C)" style="opacity:.399994" transform="matrix(1.33333 0 0 -1.33333 -206.488 743.648)"><path d="M0 0c-.599.466-6.479-5.91-12-14.5-6.348-9.873-12.36-22.271-11.625-23.875.741-1.616 6.635 9.839 13 20.375C-5.173-8.973 1.038-.808 0 0" style="fill:#fff;fill-opacity:1;fill-rule:nonzero;stroke:none" transform="translate(309 289.155)"/></g><g clip-path="url(#D)" style="opacity:.399994" transform="matrix(1.33333 0 0 -1.33333 -206.488 743.648)"><path d="M0 0c-.824 1.373-2.75-2.875-2.5-4.25S.75-1.25 0 0" style="fill:#fff;fill-opacity:1;fill-rule:nonzero;stroke:none" transform="translate(281.875 244.28)"/></g><g clip-path="url(#E)" style="opacity:.199997" transform="matrix(1.33333 0 0 -1.33333 -206.488 743.648)"><path d="m0 0 7.667-31.167s1.499-7 2.916-4.583c1.417 2.417 7.25 12 7.25 12s-6.5-9.5-7.75-8.417C8.833-31.083 0 0 0 0" style="fill:#fff;fill-opacity:1;fill-rule:nonzero;stroke:none" transform="translate(217.167 465.697)"/></g><g clip-path="url(#F)" style="opacity:.199997" transform="matrix(1.33333 0 0 -1.33333 -206.488 743.648)"><path d="m0 0 12.5-46.5s1.499-3.333 2.666-.5c1.167 2.833 6.167 11.667 6.167 11.667s-6.834-9.333-7.667-8.5C12.833-43 0 0 0 0" style="fill:#fff;fill-opacity:1;fill-rule:nonzero;stroke:none" transform="translate(482.834 478.947)"/></g><g clip-path="url(#G)" style="opacity:.300003" transform="matrix(1.33333 0 0 -1.33333 -206.488 743.648)"><path d="M0 0s-3-6.833.833-14.5C2.39-17.613 0 0 0 0" style="fill:#fff;fill-opacity:1;fill-rule:nonzero;stroke:none" transform="translate(486.334 433.614)"/></g><g clip-path="url(#H)" style="opacity:.199997" transform="matrix(1.33333 0 0 -1.33333 -206.488 743.648)"><path d="M0 0c-4.941.988-17.833-13.833-16.166-16.667.834-1.416 4.187 4.251 7.833 8.834C-4.687-3.25 1.25-.25 0 0" style="fill:#fff;fill-opacity:1;fill-rule:nonzero;stroke:none" transform="translate(509 333.947)"/></g><g clip-path="url(#I)" style="opacity:.199997" transform="matrix(1.33333 0 0 -1.33333 -206.488 743.648)"><path d="M0 0c-.462.693-8.667-2.834-21.167-11.834-12.5-9-15.001-14.5-14.167-19.333C-34.5-36-37-24.333-20.667-13.5-4.334-2.667.667-1 0 0" style="fill:#fff;fill-opacity:1;fill-rule:nonzero;stroke:none" transform="translate(474.167 292.78)"/></g><g clip-path="url(#J)" style="opacity:.199997" transform="matrix(1.33333 0 0 -1.33333 -206.488 743.648)"><path d="M0 0s-16.833-14.5-10.5-34.333C-10.5-34.333-9.5-14 0 0" style="fill:#fff;fill-opacity:1;fill-rule:nonzero;stroke:none" transform="translate(529.834 323.614)"/></g><g clip-path="url(#K)" style="opacity:.199997" transform="matrix(1.33333 0 0 -1.33333 -206.488 743.648)"><path d="M0 0c-3 1.167-13.333 6.001-15.5 8.334-2.167 2.333-9.501-18.668-41.334-40.334 0 0 20.368 9.006 38 31.5 2.417 3.083 7.063 1.979 11.167 1.334A83.705 83.705 0 0 1 0 0" style="fill:#fff;fill-opacity:1;fill-rule:nonzero;stroke:none" transform="translate(526.834 265.113)"/></g><g clip-path="url(#L)" style="opacity:.199997" transform="matrix(1.33333 0 0 -1.33333 -206.488 743.648)"><path d="M0 0c-1.992.244-6.501-.833-.667-1.833C5.167-2.833 8.167-1 0 0" style="fill:#fff;fill-opacity:1;fill-rule:nonzero;stroke:none" transform="translate(582.001 332.78)"/></g><g clip-path="url(#M)" style="opacity:.199997" transform="matrix(1.33333 0 0 -1.33333 -206.488 743.648)"><path d="M0 0s8.501-24.334 19.834-27.334S38.166-24.5 38-23c-.166 1.5-7.666-6-18.666-1S0 0 0 0" style="fill:#fff;fill-opacity:1;fill-rule:nonzero;stroke:none" transform="translate(596.834 279.447)"/></g><g clip-path="url(#N)" style="opacity:.199997" transform="matrix(1.33333 0 0 -1.33333 -206.488 743.648)"><path d="M0 0s-1.301-1.644-3-12.5c-2.052-13.106-4.48-35.863-3.25-36 2.25-.25 12.25-.25 17.5-2 0 0-7.25 4-12 5.25S0 0 0 0" style="fill:#fff;fill-opacity:1;fill-rule:nonzero;stroke:none" transform="translate(494 152.53)"/></g><g clip-path="url(#O)" style="opacity:.199997" transform="matrix(1.33333 0 0 -1.33333 -206.488 743.648)"><path d="M0 0s-8-5.5-10.5-12.75S2.75-18 5-18s-9.408.816-10.5 6C-6.5-7.25 0 0 0 0" style="fill:#fff;fill-opacity:1;fill-rule:nonzero;stroke:none" transform="translate(481.5 92.28)"/></g><g clip-path="url(#P)" style="opacity:.199997" transform="matrix(1.33333 0 0 -1.33333 -206.488 743.648)"><path d="M0 0c-1-6.75 6-62.25 11-69.5S0 0 0 0" style="fill:#fff;fill-opacity:1;fill-rule:nonzero;stroke:none" transform="translate(568.25 156.78)"/></g><g clip-path="url(#Q)" style="opacity:.199997" transform="matrix(1.33333 0 0 -1.33333 -206.488 743.648)"><path d="M0 0s-9.5-5-11.25-9S0 0 0 0" style="fill:#fff;fill-opacity:1;fill-rule:nonzero;stroke:none" transform="translate(597.25 83.53)"/></g></svg>