<svg xmlns="http://www.w3.org/2000/svg" xml:space="preserve" width="403.09665" height="817.41412" viewBox="0 0 403.09664 817.41413"><defs><clipPath id="a" clipPathUnits="userSpaceOnUse"><path d="M0 595.28h841.89V0H0Z"/></clipPath><clipPath id="c" clipPathUnits="userSpaceOnUse"><path d="M0 595.28h841.89V0H0Z"/></clipPath><clipPath id="h" clipPathUnits="userSpaceOnUse"><path d="M0 595.28h841.89V0H0Z"/></clipPath><clipPath id="l" clipPathUnits="userSpaceOnUse"><path d="M0 595.28h841.89V0H0Z"/></clipPath><clipPath id="m" clipPathUnits="userSpaceOnUse"><path d="M510.331 257.185h-.154c-.148 0-13.983-.282-23.078 3.01v-.001c0-.057-.034-.974.03-2.452v-.022l.083-.037-.081.028c.03-.644.081-1.403.161-2.235.062-.678.145-1.395.252-2.167 8.275-2.344 18.1-2.573 21.546-2.573.606 0 .997.009 1.166.014.167-.005.562-.014 1.165-.014 3.447 0 13.274.229 21.548 2.573.107.77.189 1.489.251 2.164.079.829.131 1.585.16 2.228 0 .013.003.027.003.041.066 1.478.032 2.395.03 2.452v.001c-9.098-3.292-22.93-3.01-23.082-3.01"/></clipPath><clipPath id="n" clipPathUnits="userSpaceOnUse"><path d="M0 595.28h841.89V0H0Z"/></clipPath><clipPath id="o" clipPathUnits="userSpaceOnUse"><path d="M480.627 256.319c2.217-20.264 19.068-32.207 19.068-32.207h10.468c-25.163 18.411-23.182 36.093-23.182 36.093s-6.5-3.787-6.354-3.886"/></clipPath><clipPath id="p" clipPathUnits="userSpaceOnUse"><path d="M0 595.28h841.89V0H0Z"/></clipPath><clipPath id="q" clipPathUnits="userSpaceOnUse"><path d="M510.256 224.112h10.469s16.85 11.943 19.067 32.207c.147.099-6.353 3.886-6.353 3.886s1.981-17.682-23.183-36.093"/></clipPath><clipPath id="r" clipPathUnits="userSpaceOnUse"><path d="M0 595.28h841.89V0H0Z"/></clipPath><clipPath id="s" clipPathUnits="userSpaceOnUse"><path d="M420.351 174.339h-2.657c-.74-2.098-1.372-3.9-1.866-5.314h33.412v5.314z"/></clipPath><clipPath id="t" clipPathUnits="userSpaceOnUse"><path d="M0 595.28h841.89V0H0Z"/></clipPath><clipPath id="u" clipPathUnits="userSpaceOnUse"><path d="M595.407 174.712h-28.889v-6.336h33.412c-.494 1.687-1.126 3.835-1.867 6.336z"/></clipPath><linearGradient id="b" x1="0" x2="1" y1="0" y2="0" gradientTransform="matrix(0 -154.24028 -154.24028 0 479.525 284.442)" gradientUnits="userSpaceOnUse" spreadMethod="pad"><stop offset="0" style="stop-opacity:1;stop-color:#bd934b"/><stop offset="0.0561964" style="stop-opacity:1;stop-color:#bd934b"/><stop offset="0.48934125" style="stop-opacity:1;stop-color:#bd934b"/><stop offset="0.961954" style="stop-opacity:1;stop-color:#7a603c"/><stop offset="1" style="stop-opacity:1;stop-color:#7a603c"/></linearGradient><linearGradient id="d" x1="0" x2="1" y1="0" y2="0" gradientTransform="matrix(0 -245.1279 -245.1279 0 479.525 306.218)" gradientUnits="userSpaceOnUse" spreadMethod="pad"><stop offset="0" style="stop-opacity:1;stop-color:#bd1b21"/><stop offset="0.30977361" style="stop-opacity:1;stop-color:#bd1b21"/><stop offset="1" style="stop-opacity:1;stop-color:#130407"/></linearGradient><linearGradient id="e" x1="0" x2="1" y1="0" y2="0" gradientTransform="scale(401.11725) rotate(-90 1.16 -.036)" gradientUnits="userSpaceOnUse" spreadMethod="pad"><stop offset="0" style="stop-opacity:1;stop-color:#e60013"/><stop offset="0.2475938" style="stop-opacity:1;stop-color:#e60013"/><stop offset="0.276951" style="stop-opacity:1;stop-color:#e60013"/><stop offset="0.58473031" style="stop-opacity:1;stop-color:#e60013"/><stop offset="0.808705" style="stop-opacity:1;stop-color:#6a1216"/><stop offset="1" style="stop-opacity:1;stop-color:#6a1216"/></linearGradient><linearGradient id="f" x1="0" x2="1" y1="0" y2="0" gradientTransform="matrix(0 -240.40352 -240.40352 0 479.525 286.37)" gradientUnits="userSpaceOnUse" spreadMethod="pad"><stop offset="0" style="stop-opacity:1;stop-color:#e60013"/><stop offset="0.01676709" style="stop-opacity:1;stop-color:#e60013"/><stop offset="0.232532" style="stop-opacity:1;stop-color:#e60013"/><stop offset="0.50337612" style="stop-opacity:1;stop-color:#e60013"/><stop offset="0.897188" style="stop-opacity:1;stop-color:#2c0307"/><stop offset="1" style="stop-opacity:1;stop-color:#2c0307"/></linearGradient><linearGradient id="g" x1="0" x2="1" y1="0" y2="0" gradientTransform="matrix(0 -154.24028 -154.24028 0 536.601 284.442)" gradientUnits="userSpaceOnUse" spreadMethod="pad"><stop offset="0" style="stop-opacity:1;stop-color:#bd934b"/><stop offset="0.0561964" style="stop-opacity:1;stop-color:#bd934b"/><stop offset="0.48934125" style="stop-opacity:1;stop-color:#bd934b"/><stop offset="0.961954" style="stop-opacity:1;stop-color:#7a603c"/><stop offset="1" style="stop-opacity:1;stop-color:#7a603c"/></linearGradient><linearGradient id="i" x1="0" x2="1" y1="0" y2="0" gradientTransform="scale(245.1279) rotate(-90 1.72 -.47)" gradientUnits="userSpaceOnUse" spreadMethod="pad"><stop offset="0" style="stop-opacity:1;stop-color:#bd1b21"/><stop offset="0.30977361" style="stop-opacity:1;stop-color:#bd1b21"/><stop offset="1" style="stop-opacity:1;stop-color:#130407"/></linearGradient><linearGradient id="j" x1="0" x2="1" y1="0" y2="0" gradientTransform="scale(401.11725) rotate(-90 1.23 -.107)" gradientUnits="userSpaceOnUse" spreadMethod="pad"><stop offset="0" style="stop-opacity:1;stop-color:#e60013"/><stop offset="0.2475938" style="stop-opacity:1;stop-color:#e60013"/><stop offset="0.276951" style="stop-opacity:1;stop-color:#e60013"/><stop offset="0.58473031" style="stop-opacity:1;stop-color:#e60013"/><stop offset="0.808705" style="stop-opacity:1;stop-color:#6a1216"/><stop offset="1" style="stop-opacity:1;stop-color:#6a1216"/></linearGradient><linearGradient id="k" x1="0" x2="1" y1="0" y2="0" gradientTransform="matrix(0 -240.40352 -240.40352 0 536.601 286.37)" gradientUnits="userSpaceOnUse" spreadMethod="pad"><stop offset="0" style="stop-opacity:1;stop-color:#e60013"/><stop offset="0.01676709" style="stop-opacity:1;stop-color:#e60013"/><stop offset="0.232532" style="stop-opacity:1;stop-color:#e60013"/><stop offset="0.50337612" style="stop-opacity:1;stop-color:#e60013"/><stop offset="0.897188" style="stop-opacity:1;stop-color:#2c0307"/><stop offset="1" style="stop-opacity:1;stop-color:#2c0307"/></linearGradient></defs><g clip-path="url(#a)" transform="matrix(1.546 0 0 -1.546 -588.342 835.721)"><path d="M0 0c2.319-9.173 7.5-28.258 12.053-35.238 6.086-9.315 12.412-20.448 11.871-24.204-.539-3.757-9.473-15.376-9.473-15.376s-9.425-4.012-15.91-2.113c0 0-.619-3.15-5.385-3.782-4.764-.635-5.143 10.058-5.344 11.568L-21.08-2.801z" style="fill:#d80010;fill-opacity:1;fill-rule:nonzero;stroke:none" transform="translate(586.967 164.558)"/><path d="m0 0 20.484 1.707s.904-3.964 1.686-7.051L1.09-8.145Z" style="fill:#911e23;fill-opacity:1;fill-rule:nonzero;stroke:none" transform="translate(564.798 169.901)"/><path d="M0 0s-2.383-3.078-7.787-4.103c0 0-.02-12.894-2.523-17.524 0 0 3.985 6.669 4.515 15.639C-5.795-5.988.259-1.805 0 0" style="fill:#911e23;fill-opacity:1;fill-rule:nonzero;stroke:none" transform="translate(595.818 109.254)"/><path d="M0 0s-6.317-2.068-9.833-1.305c0 0 7.284 1.58 9.833 1.305" style="fill:#911e23;fill-opacity:1;fill-rule:nonzero;stroke:none" transform="translate(601.38 105.695)"/><path d="m0 0-13.928 46.089h7.751z" style="fill:#d80010;fill-opacity:1;fill-rule:nonzero;stroke:none" transform="translate(572.064 115.668)"/><path d="M0 0c-2.32-9.173-7.501-28.258-12.054-35.238-6.085-9.315-12.411-20.448-11.871-24.204.54-3.757 9.474-15.376 9.474-15.376s9.423-4.012 15.909-2.113c0 0 .62-3.15 5.385-3.782 4.765-.635 5.145 10.058 5.345 11.568l8.891 66.344z" style="fill:#d80010;fill-opacity:1;fill-rule:nonzero;stroke:none" transform="translate(429.235 164.558)"/><path d="m0 0-20.484 1.707s-.905-3.964-1.686-7.051l21.079-2.801z" style="fill:#911e23;fill-opacity:1;fill-rule:nonzero;stroke:none" transform="translate(451.405 169.901)"/><path d="M0 0s2.383-3.078 7.787-4.103c0 0 .02-12.894 2.522-17.524 0 0-3.984 6.669-4.514 15.639C5.795-5.988-.26-1.805 0 0" style="fill:#911e23;fill-opacity:1;fill-rule:nonzero;stroke:none" transform="translate(420.385 109.254)"/><path d="M0 0s6.316-2.068 9.832-1.305C9.832-1.305 2.547.275 0 0" style="fill:#911e23;fill-opacity:1;fill-rule:nonzero;stroke:none" transform="translate(414.824 105.695)"/><path d="m0 0 13.928 46.089H6.176Z" style="fill:#d80010;fill-opacity:1;fill-rule:nonzero;stroke:none" transform="translate(444.138 115.668)"/><path d="m0 0 1.658-5.251 5.601-1.515.933 3.38h5.568l.782-3.38h8.799v3.38l14.696 1.349v-4.729l9.085 1.571v6.309l7.844 1.23v-6.401l10.556 2.02-1.288 4.381z" style="fill:#fefae6;fill-opacity:1;fill-rule:nonzero;stroke:none" transform="translate(433.496 20.157)"/><path d="m0 0-1.659-5.251-5.601-1.515-.931 3.38h-5.57l-.78-3.38h-8.8v3.38l-14.695 1.349v-4.729l-9.086 1.571v6.309l-7.843 1.23v-6.401l-10.557 2.02 1.288 4.381z" style="fill:#fefae6;fill-opacity:1;fill-rule:nonzero;stroke:none" transform="translate(583.743 20.157)"/><path d="M0 0c-17.038 5.702-15.061 26.457-14.873 31.064.204 5.012-6.693 7.354-6.693 7.354s-14.534 7.244-20.765 8.835c-2.361-5.815-6.606-11.994-18.96-11.994-12.783 0-16.602 6.173-18.979 12.024-6.231-1.59-20.757-8.865-20.757-8.865s-6.897-2.342-6.693-7.354c.188-4.607 2.165-25.362-14.873-31.064 5.056-18.879 0-100.443 0-100.443l61.072-.407h.449L0-100.443S-5.056-18.879 0 0" style="fill:#000100;fill-opacity:1;fill-rule:nonzero;stroke:none" transform="translate(569.583 238.574)"/></g><path d="M465.461 130.202h28.129v154.24h-28.129z" style="fill:url(#b);stroke:none" transform="matrix(1.546 0 0 -1.546 -588.342 835.721)"/><g clip-path="url(#c)" transform="matrix(1.546 0 0 -1.546 -588.342 835.721)"><path d="M492.304 130.202h-25.558v154.24h25.558z" style="fill:#000100;fill-opacity:1;fill-rule:nonzero;stroke:none"/></g><path d="M466.143 130.202h26.763v154.24h-26.763z" style="fill:url(#d);stroke:none" transform="matrix(1.546 0 0 -1.546 -588.342 835.721)"/><path d="M471.742 130.202h15.566v154.24h-15.566z" style="fill:url(#e);stroke:none" transform="matrix(1.546 0 0 -1.546 -588.342 835.721)"/><path d="M478.57 130.202h1.912v154.24h-1.912z" style="fill:url(#f);stroke:none" transform="matrix(1.546 0 0 -1.546 -588.342 835.721)"/><path d="M522.537 130.202h28.128v154.24h-28.128z" style="fill:url(#g);stroke:none" transform="matrix(1.546 0 0 -1.546 -588.342 835.721)"/><g clip-path="url(#h)" transform="matrix(1.546 0 0 -1.546 -588.342 835.721)"><path d="M549.38 130.202h-25.558v154.24h25.558z" style="fill:#000100;fill-opacity:1;fill-rule:nonzero;stroke:none"/></g><path d="M523.219 130.202h26.763v154.24h-26.763z" style="fill:url(#i);stroke:none" transform="matrix(1.546 0 0 -1.546 -588.342 835.721)"/><path d="M528.818 130.202h15.566v154.24h-15.566z" style="fill:url(#j);stroke:none" transform="matrix(1.546 0 0 -1.546 -588.342 835.721)"/><path d="M535.645 130.202h1.912v154.24h-1.912z" style="fill:url(#k);stroke:none" transform="matrix(1.546 0 0 -1.546 -588.342 835.721)"/><g clip-path="url(#l)" transform="matrix(1.546 0 0 -1.546 -588.342 835.721)"><path d="M0 0c.786.32 1.406.605 2.051.817.218.072.515.011.744-.075C3.802.363 4.799-.044 5.797-.446c.691-.277 1.28-.084 2.002.49L4.081 1.647c.807.326 1.486.619 2.182.865.155.055.38-.032.553-.102.857-.343 1.715-.684 2.556-1.061.731-.328 1.422-.314 2.159.005 2.863 1.238 5.739 2.447 8.61 3.667.22.093.442.183.724.299l.395-.72c-.122-.084-.221-.167-.332-.225-4.226-2.209-8.461-4.401-12.675-6.633-.898-.475-1.715-.493-2.635-.089C3.812-1.552 1.978-.822 0 0" style="fill:#fff;fill-opacity:1;fill-rule:nonzero;stroke:none" transform="translate(467.94 205.979)"/><path d="M0 0v-.124a9.984 9.984 0 0 1-.503.02V-.48c.155-.004.395-.008.452-.004v-.127a10.27 10.27 0 0 1-.452.016v-.639a.34.34 0 0 1 .019-.11l-.5.01c.02.038.029.078.029.109v1.123A.276.276 0 0 1-.984.02z" style="fill:#ba8819;fill-opacity:1;fill-rule:nonzero;stroke:none" transform="translate(537.95 212.565)"/><path d="M0 0v-.523L-.386-.53v.127c0 .081.012.271-.076.296a.231.231 0 0 1-.127-.004c-.067-.025-.059-.091-.059-.147v-.829c0-.08-.008-.143.049-.159a.293.293 0 0 1 .141.001c.066.022.058.074.058.166v.273l.4.005v-.329c0-.07.006-.138-.072-.181-.077-.044-.175-.054-.445-.058l-.121-.003c-.302-.004-.461.017-.461.171v.976c0 .017-.005.138.089.186.139.07.624.054.737.05z" style="fill:#ba8819;fill-opacity:1;fill-rule:nonzero;stroke:none" transform="translate(539.324 212.575)"/><path d="M0 0v-.196a15.556 15.556 0 0 1 3.919-.861v.181C2.525-.745 1.209-.45 0 0" style="fill:#ba8819;fill-opacity:1;fill-rule:nonzero;stroke:none" transform="translate(532.556 213.18)"/><path d="M0 0v-.182c1.707.164 3.304.571 4.705 1.193v.2C3.31.58 1.713.166 0 0" style="fill:#ba8819;fill-opacity:1;fill-rule:nonzero;stroke:none" transform="translate(539.794 212.308)"/><path d="M0 0h.128v-.824c0-.042 0-.068.01-.1h-.224a.245.245 0 0 1 .016.1v.614h-.102v.094c.079.012.124.017.172.116" style="fill:#ba8819;fill-opacity:1;fill-rule:nonzero;stroke:none" transform="translate(529.883 204.996)"/><path d="M0 0v.206c0 .06 0 .081-.021.096a.057.057 0 0 1-.046.002C-.09.294-.095.269-.095.208v-.15l.001-.082c.007-.044.034-.052.06-.046C-.015-.065 0-.046 0 0m-.287-.232h.193V-.33c0-.076-.002-.131.024-.145a.059.059 0 0 1 .048.003c.028.014.026.076.026.129v.198c-.055-.02-.195-.034-.253.008-.034.022-.038.064-.038.101v.242c0 .072.003.12.023.15.03.044.155.036.189.036h.066C.03.392.14.396.174.357.198.331.194.29.194.216v-.597c0-.036.005-.107-.034-.147C.117-.569.004-.562-.041-.562h-.06c-.045 0-.13.003-.163.037-.026.028-.023.073-.023.147z" style="fill:#ba8819;fill-opacity:1;fill-rule:nonzero;stroke:none" transform="translate(532.019 204.621)"/><path d="M0 0v-.251c0-.034-.002-.053.023-.068.009-.006.034-.006.043 0 .029.012.027.044.027.07v.252c0 .026 0 .046-.025.057C.053.068.029.063.019.056-.003.041 0 .02 0 0m0 .391V.217C0 .184-.002.163.023.149a.079.079 0 0 1 .043 0c.029.013.027.045.027.072v.173c0 .026 0 .045-.025.057C.053.458.029.455.019.446-.003.432 0 .411 0 .391M.209.114C.279.086.291.069.291-.004v-.218c0-.062.008-.132-.052-.165-.06-.032-.323-.031-.384.003-.052.032-.046.112-.046.167v.197c0 .07-.006.099.075.131-.072.017-.076.051-.076.119v.131c0 .049-.005.116.029.148.042.042.14.037.189.037h.031c.03 0 .157.006.203-.04C.293.47.286.393.286.356V.221C.286.158.281.134.209.114" style="fill:#ba8819;fill-opacity:1;fill-rule:nonzero;stroke:none" transform="translate(533.996 204.47)"/><path d="M0 0c.071-.025.082-.048.082-.124v-.199c0-.032.004-.128-.034-.165C.018-.514-.02-.513-.1-.513h-.135c-.066 0-.12.003-.145.031-.024.029-.02.087-.02.147v.197h.194v-.137c0-.07-.004-.122.026-.139.008-.006.024-.009.042 0 .025.014.022.066.022.132v.107c0 .052.003.093-.026.116-.011.009-.035.011-.082.011v.085c.036 0 .077-.003.095.015.016.016.013.052.013.113v.112c0 .023-.005.042-.027.058a.069.069 0 0 1-.049 0C-.229.316-.224.29-.224.251V.108h-.175V.43l.217.008c.092 0 .195.007.239-.044C.086.359.082.305.082.245V.136C.082.082.08.055.049.024A.081.081 0 0 0 0 0" style="fill:#ba8819;fill-opacity:1;fill-rule:nonzero;stroke:none" transform="translate(536.277 204.567)"/><path d="M0 0h.169C.236 0 .258 0 .31.007v-.172h-.518v.164l.179.213c.076.089.114.132.126.204a.937.937 0 0 1 0 .205C.091.64.085.656.061.663A.049.049 0 0 1 .016.657C-.016.634-.012.562-.012.497V.413H-.19v.328c.053.009.157.02.208.022.101.002.202.006.246-.04C.299.69.298.611.298.566V.489C.298.347.289.347.16.191Z" style="fill:#ba8819;fill-opacity:1;fill-rule:nonzero;stroke:none" transform="translate(539.98 204.238)"/><path d="M0 0c0 .044-.008.062-.047.062C-.089.062-.099.044-.099 0v-.649c0-.042.01-.063.052-.063.039 0 .047.021.047.063zm.193-.631c0-.077-.002-.099-.028-.13C.137-.795.092-.8-.048-.8c-.127 0-.17.005-.195.023-.05.037-.045.091-.045.146v.614c0 .057-.005.11.045.146.025.02.068.024.195.024.14 0 .185-.004.213-.039C.191.083.193.058.193-.017z" style="fill:#ba8819;fill-opacity:1;fill-rule:nonzero;stroke:none" transform="translate(542.148 204.854)"/><path d="M0 0c0 .044-.007.062-.047.062-.042 0-.05-.018-.05-.062v-.649c0-.042.008-.063.05-.063.04 0 .047.021.047.063zm.194-.631c0-.077-.002-.099-.03-.13C.137-.795.093-.8-.047-.8c-.128 0-.171.005-.196.023-.05.037-.045.091-.045.146v.614c0 .057-.005.11.045.146.025.02.068.024.196.024.14 0 .184-.004.211-.039.028-.031.03-.056.03-.131z" style="fill:#ba8819;fill-opacity:1;fill-rule:nonzero;stroke:none" transform="translate(544.22 204.854)"/><path d="M0 0h.176v.342Zm.169.536h.216A.27.27 0 0 1 .376.458V0h.092v-.146H.374v-.165c0-.024-.002-.047.006-.076H.165c.01.025.013.051.013.079v.162H-.1V0Z" style="fill:#ba8819;fill-opacity:1;fill-rule:nonzero;stroke:none" transform="translate(546.066 204.46)"/><path d="m0 0 .276.235L.549 0 .426.344l.295.18L.369.522.276.847.182.522l-.351.002.294-.18Z" style="fill:#ba8819;fill-opacity:1;fill-rule:nonzero;stroke:none" transform="translate(537.83 204.14)"/><path d="M0 0V-.343h1.586v-.006C3.642-1.2 4.158-2.602 4.376-3.42H15.47c.218.818.734 2.22 2.791 3.071v.006h1.581V0Z" style="fill:#ba8819;fill-opacity:1;fill-rule:nonzero;stroke:none" transform="translate(528.189 203.49)"/><path d="M0 0v.774C-.402.724-.637.706-1.152.688V8.206c0 .336.027.495.084.828A19.288 19.288 0 0 0-2.75 7.95c.067-.18.094-.291.094-.565V.679c0-.302-.027-.44-.094-.692L0 0" style="fill:#fff;fill-opacity:1;fill-rule:nonzero;stroke:none" transform="translate(547.61 205.751)"/><path d="M0 0c.139-.367.404-.671.987-1.178l.178-.156c.494-.396.8-.572.901-1.152.018-.11.029-.349.029-.601v-1.194c0-.362 0-.581-.18-.73a.307.307 0 0 0-.077-.038.685.685 0 0 0-.416-.007c-.125.056-.207.136-.228.332a5.272 5.272 0 0 0-.009.393v2.347c-.443.08-.866.161-1.306.252v-3.941c.434-.04 1.322-.087 1.676-.088.665-.001 1.345-.02 1.656.247.294.28.285.7.285 1.158v1.445c.001.54.036 1.155-.379 1.663-.452.501-1.378.91-1.666 1.491-.039.077-.067.233-.067.668v1.144c0 .151.01.244.019.273.032.199.122.235.237.199a.793.793 0 0 0 .355-.243L2 2.278c.188-.256.189-.563.189-.857V.111c.414-.137.81-.257 1.221-.372v2.417A34.792 34.792 0 0 0 .892 3.804c-.319.231-.579.331-.747.244-.13-.053-.215-.237-.244-.522-.026-.286-.022-.586-.022-.718V1.574C-.121.772-.131.368 0 0" style="fill:#fff;fill-opacity:1;fill-rule:nonzero;stroke:none" transform="translate(528.311 211.413)"/><path d="M0 0a.787.787 0 0 0 .397-.063C.41-.07.424-.077.434-.085v-.001c.134-.11.133-.187.133-.417v-1.053c-.242.022-.47.044-.71.07v1.072c-.001.15-.03.355.143.414m-1.411-4.569c.03-.092.159-.343.388-.422.279-.081.744-.096 1.088-.097h.143c.125 0 .894-.005 1.183.076.278.089.35.227.398.308.084.132.084.31.084.936v1.166c-.442.016-.865.033-1.306.057l.001-1.353c0-.451.017-.595-.134-.674a.05.05 0 0 0-.018-.008.02.02 0 0 0-.01-.005 1.03 1.03 0 0 0-.18-.016c-.413.008-.37.092-.369.725v1.798a53.054 53.054 0 0 1 2.016-.126v1.255c.002.436.04.731-.227.975-.233.203-.502.266-1.288.428C.256.475.157.496.056.519c-.53.115-.945.179-1.079.163a.511.511 0 0 1-.294-.169c-.133-.176-.132-.367-.132-.91v-3.457c-.001-.403-.01-.562.038-.715" style="fill:#fff;fill-opacity:1;fill-rule:nonzero;stroke:none" transform="translate(533.985 210.729)"/><path d="M0 0a.494.494 0 0 0 .17-.024.16.16 0 0 0 .054-.03c.051-.044.079-.12.08-.252v-3.63C.302-4.07.275-4.15.224-4.195a.227.227 0 0 0-.055-.036A.468.468 0 0 0 0-4.255c-.21.002-.31.058-.311.319v3.629C-.309-.05-.209-.002 0 0m-1.618-3.845c-.001-.163-.039-.502.322-.74.197-.112.751-.136 1.296-.136.656 0 .993.031 1.147.083.449.17.463.468.463.785v3.536c0 .298-.015.582-.463.707C.991.429.652.43 0 .429-.549.427-1.102.438-1.296.338c-.362-.2-.323-.53-.322-.67z" style="fill:#fff;fill-opacity:1;fill-rule:nonzero;stroke:none" transform="translate(538.205 210.362)"/><path d="M0 0c.001-.251.017-.457.34-.681.366-.22 1.408-.258 1.733.096l.052-.155.006-.017h.111l1.241.005c-.103.214-.14.57-.143.828v4.289c.002.326.011.571.049.783-.492-.151-.96-.279-1.448-.393.027-.164.047-.38.047-.608V.037c-.001-.144-.03-.232-.086-.281a.196.196 0 0 0-.059-.039.46.46 0 0 0-.167-.027c-.194-.002-.31.049-.313.335v3.941c.001.284.01.494.057.675a18.948 18.948 0 0 0-1.467-.247c.029-.146.046-.339.047-.544Z" style="fill:#fff;fill-opacity:1;fill-rule:nonzero;stroke:none" transform="translate(540.658 206.485)"/><path d="M537.049 200.95h2.133v2.197h-2.133z" style="fill:#e60013;fill-opacity:1;fill-rule:nonzero;stroke:none"/><path d="M0 0v-1.361c.174-.28.312-.563.419-.836h1.713V0Z" style="fill:#e60013;fill-opacity:1;fill-rule:nonzero;stroke:none" transform="translate(532.783 203.147)"/><path d="M0 0v-2.197h1.714c.106.273.245.556.419.836V0Z" style="fill:#e60013;fill-opacity:1;fill-rule:nonzero;stroke:none" transform="translate(541.316 203.147)"/><path d="M0 0a10.86 10.86 0 0 1 1.061-.813l.028-.019c.061-.041.124-.084.186-.124l.072-.046c.095-.059.19-.119.287-.177l.027-.015c.084-.05.17-.099.257-.147 1.583-.883 3.412-1.434 5.348-1.603a2.229 2.229 0 0 0-.421.397c-.506.06-1.005.147-1.49.261a12.87 12.87 0 0 0-2.132.694c-.762.325-1.476.723-2.134 1.187v2.666c1.002.5 1.686 1.2 2.134 1.917.173.278.311.561.419.834h1.711v.003c0 .377-.162.595-.383.701a.77.77 0 0 0 .785-.688c.189.305.499.561.611.863H3.005c-.218-.818-.734-2.22-2.79-3.071V.281a9.267 9.267 0 0 0-1.586 1.78v-.605A9.904 9.904 0 0 1 0 0" style="fill:#ba8819;fill-opacity:1;fill-rule:nonzero;stroke:none" transform="translate(529.56 216.21)"/><path d="M0 0v2.541c-2.056.851-2.572 2.253-2.79 3.071h-3.363c.11-.303.42-.558.61-.863.02.259.255.687.785.687-.221-.106-.383-.324-.383-.7v-.003h1.722c.106-.274.245-.556.419-.835A5.232 5.232 0 0 1-.867 1.981V-.68A11.618 11.618 0 0 0-3-1.869a12.914 12.914 0 0 0-2.133-.695c-.48-.112-.969-.199-1.466-.26a2.217 2.217 0 0 0-.423-.398c1.872.167 3.643.69 5.187 1.527.605.328 1.176.703 1.704 1.124.115.094.228.187.338.283.521.453.981.941 1.375 1.457v.603A9.3 9.3 0 0 0 0 0" style="fill:#ba8819;fill-opacity:1;fill-rule:nonzero;stroke:none" transform="translate(546.45 216.49)"/><path d="M0 0s-.055.102-.143.213c.277.196.519.598.137 1.488C.626.598.252.162 0 0m-3.79 3.069a.979.979 0 0 1-.31-.067c.105.147.253.417.31.603.055-.186.204-.456.308-.603a.968.968 0 0 1-.308.067M-7.566 0c-.251.162-.626.598.005 1.701-.382-.89-.138-1.292.137-1.488C-7.511.102-7.566 0-7.566 0M.401 2.169c-.184.389-.038.964.038 1.021-.492-.185-.566-.715-.547-.949-.165.321-.424.717-.468 1.212a1.34 1.34 0 0 0-.008.143v.003c0 .376.162.594.383.7a.772.772 0 0 1-.785-.688c-.19.305-.5.561-.61.864a.634.634 0 0 0-.041.193c-.005.101.018.39.258.539-.327-.056-.463-.271-.515-.493a.921.921 0 0 1-.021-.135.76.76 0 0 1-.006-.104.367.367 0 0 1-.002-.066c.008-.318.136-.609.246-.813.058-.109.113-.191.14-.24a1.908 1.908 0 0 0-.211.24 1.56 1.56 0 0 0-.314.868l-.011.011c-.037.032-.07.064-.104.095a2.202 2.202 0 0 0-.134.144c-.404.466-.414.875-.257 1.169l-.004-.006a1.003 1.003 0 0 1-.262-.472 1.107 1.107 0 0 1-.041-.29c0-1.231 1.488-1.577 1.488-2.728.498-.004.6-.373.596-.498a.502.502 0 0 0-.277-.439c.379 0 .522-.25.522-.446A.363.363 0 0 0-.914.638c-.295 0-.399.257-.346.375-.016-.099.087-.281.264-.274a.273.273 0 0 1 .279.283c-.018.323-.273.386-.469.379-.185-.008-.384.017-.451.184.119-.138.303-.123.409-.102a.36.36 0 0 1 .253.393c-.037.328-.369.42-.542.392 0 1.311-1.767 1.669-1.767 2.428 0 .197.183.383.226.426-.383-.193-.438-.479-.438-.659 0-1.083 1.237-1.423 1.237-2.168 0-.307-.184-.404-.279-.449a.397.397 0 0 1 .046.209.406.406 0 0 1-.36.403c-.214.024-.514-.162-.481-.599a.902.902 0 0 1 .355-.63.435.435 0 0 1-.064-.359 1.171 1.171 0 0 1-.306.21.953.953 0 0 1 .204.212.89.89 0 0 0-.363.708c0 .458.337.651.596.634.239-.016.441-.188.47-.415.062.384-.376.703-.706 1.078-.36.411-.607.986-.323 1.507a1.42 1.42 0 0 1-.312-.487 1.432 1.432 0 0 1-.311.487c.283-.521.037-1.096-.324-1.507-.33-.375-.767-.694-.704-1.078a.494.494 0 0 0 .468.415c.259.017.597-.176.597-.634a.893.893 0 0 0-.363-.708s.088-.131.203-.212a1.169 1.169 0 0 1-.305-.21.42.42 0 0 1-.065.359.898.898 0 0 1 .355.63c.032.437-.267.623-.481.599a.407.407 0 0 1-.36-.403c0-.073.013-.163.045-.209-.093.045-.277.142-.277.449 0 .745 1.236 1.085 1.236 2.168 0 .18-.055.466-.437.659.042-.043.226-.229.226-.426 0-.759-1.768-1.117-1.768-2.428-.171.028-.504-.064-.542-.392a.362.362 0 0 1 .253-.393c.107-.021.29-.036.409.102-.066-.167-.265-.192-.451-.184-.195.007-.451-.056-.468-.379a.273.273 0 0 1 .278-.283c.177-.007.281.175.264.274.053-.118-.051-.375-.345-.375a.363.363 0 0 0-.368.366c0 .196.144.446.522.446a.502.502 0 0 0-.277.439c-.004.125.098.494.595.498 0 1.151 1.489 1.497 1.489 2.728 0 .088-.013.189-.041.29a1.038 1.038 0 0 1-.266.478c.157-.294.146-.703-.259-1.169a2.497 2.497 0 0 0-.198-.205l-.038-.034-.011-.011a1.568 1.568 0 0 0-.314-.868 1.908 1.908 0 0 0-.211-.24c.027.049.081.131.141.24.11.204.237.495.245.813l-.002.066a1.197 1.197 0 0 1-.019.202l-.008.037c-.053.222-.189.437-.515.493.241-.149.262-.438.258-.539a.737.737 0 0 0-.04-.193c-.112-.303-.422-.559-.611-.864a.77.77 0 0 1-.785.688c.221-.106.383-.324.383-.7v-.003c-.001-.562-.295-1.004-.476-1.355.019.234-.054.764-.548.949.077-.057.223-.632.04-1.021-.363-.768-.803-1.058-.76-1.774.029-.468.319-.984.961-1.164-.027-.653.399-.991.785-1.106a1.032 1.032 0 0 1 1.082.301c-.028-.155-.382-.599-.949-.488.307-.385.714-.399.858-.396a2.205 2.205 0 0 1 .499-1.506 2.215 2.215 0 0 1 3.023-.395 2.214 2.214 0 0 1 .918 1.9c.164.001.54.036.827.397-.567-.111-.921.333-.948.488a1.03 1.03 0 0 1 1.091-.298c.383.118.802.455.775 1.103.643.18.933.696.961 1.164.042.716-.396 1.006-.759 1.774" style="fill:#ba8819;fill-opacity:1;fill-rule:nonzero;stroke:none" transform="translate(541.892 217.627)"/><path d="M0 0a1.274 1.274 0 0 0-.961 1.164c-.043.717.396 1.006.76 1.775.183.388.037.964-.04 1.021.494-.186.567-.716.548-.95.18.351.475.793.476 1.355H-.929a5.007 5.007 0 0 0-.419-.834v-5.77a12.87 12.87 0 0 1 2.132-.694v1.828C.399-.991-.027-.653 0 0" style="fill:#e60013;fill-opacity:1;fill-rule:nonzero;stroke:none" transform="translate(534.13 216.858)"/><path d="M0 0c-.018.234.055.764.547.949C.471.892.325.317.509-.072c.363-.768.801-1.058.759-1.774A1.272 1.272 0 0 0 .307-3.01c.027-.648-.392-.985-.775-1.103v-1.83c.741.173 1.455.407 2.134.696V.52a4.985 4.985 0 0 0-.42.835H-.468v-.143C-.423.717-.165.321 0 0" style="fill:#e60013;fill-opacity:1;fill-rule:nonzero;stroke:none" transform="translate(541.784 219.868)"/><path d="M0 0c.048 0 .087.038.087.086A.087.087 0 0 1 0 .172.087.087 0 0 1-.088.086C-.088.038-.049 0 0 0" style="fill:#fff;fill-opacity:1;fill-rule:nonzero;stroke:none" transform="translate(537.023 218.537)"/><path d="M0 0a.529.529 0 0 1 .314.112.36.36 0 0 0-.49.333c0 .035.006.065.015.097a.589.589 0 0 0-.283.126.639.639 0 0 1-.033-.209C-.473.133-.174-.003 0 0" style="fill:#fff;fill-opacity:1;fill-rule:nonzero;stroke:none" transform="translate(536.836 218.178)"/><path d="M0 0c.048 0 .087.038.087.086A.087.087 0 0 1 0 .172.087.087 0 0 1-.088.086C-.088.038-.049 0 0 0" style="fill:#fff;fill-opacity:1;fill-rule:nonzero;stroke:none" transform="translate(539.199 218.537)"/><path d="M0 0a.59.59 0 0 1-.033.209.558.558 0 0 0-.282-.126.352.352 0 0 0 .016-.097.36.36 0 0 0-.491-.333.52.52 0 0 1 .312-.112C-.301-.462-.003-.326 0 0" style="fill:#fff;fill-opacity:1;fill-rule:nonzero;stroke:none" transform="translate(539.861 218.637)"/><path d="M0 0s.144.27-.001.636C.063-.033-.526-.448-1.11-.156c.009-.066.014-.137.014-.212 0-.15-.058-.431-.35-.431a.44.44 0 0 0-.257.099c-.008.133.065.448.348.332-.039.078-.12.111-.204.111-.092 0-.192-.089-.241-.237-.064-.199-.217-.345-.398-.345-.183 0-.334.146-.399.345-.049.148-.148.237-.241.237-.083 0-.165-.033-.203-.111.282.116.355-.199.348-.332a.443.443 0 0 0-.258-.099c-.292 0-.35.281-.35.431 0 .075.006.146.014.212-.583-.292-1.172.123-1.108.792C-4.541.27-4.397 0-4.397 0c-.683.062-.986-.434-.986-.751 0-.32.262-.525.477-.542.265-.019.502.185.399.476.035-.293-.212-.356-.332-.356-.103 0-.353.09-.353.414 0 .323.353.564.665.543.502-.035.778-.499.724-.933.033-.061.243-.428.664-.428.494 0 .6.39.941.39.34 0 .445-.39.941-.39.421 0 .631.367.663.428-.054.434.223.898.725.933.31.021.665-.22.665-.543 0-.324-.251-.414-.354-.414-.119 0-.366.063-.331.356-.103-.291.134-.495.399-.476a.546.546 0 0 1 .476.542C.986-.434.683.062 0 0" style="fill:#fff;fill-opacity:1;fill-rule:nonzero;stroke:none" transform="translate(540.309 217.921)"/><path d="M0 0a.303.303 0 0 0 .068.458c.318.094.513.341.666.358V.219a3.024 3.024 0 0 1-.762-.558 54.04 54.04 0 0 1-.608.196 1.286 1.286 0 0 0-.019.218 2.274 2.274 0 0 0 .053.449.722.722 0 0 1 .157-.057L-.447.462C-.48.311-.349-.005 0 0" style="fill:#fff;fill-opacity:1;fill-rule:nonzero;stroke:none" transform="translate(537.36 215.702)"/><path d="m0 0-.001.005A.769.769 0 0 1 .191.08C.197.051.202.015.202.015A2.34 2.34 0 0 0 .245-.38a1.26 1.26 0 0 0-.021-.23c-.019-.005-.58-.186-.597-.191-.229.228-.48.411-.766.558v.586c.147-.05.335-.262.624-.347a.303.303 0 0 0 .068-.458c.343-.005.48.31.447.462" style="fill:#fff;fill-opacity:1;fill-rule:nonzero;stroke:none" transform="translate(539.308 216.165)"/><path d="m0 0-.373-.516c-.236.036-.411.131-.578.223l-.099.055a1.81 1.81 0 0 0-.229.708c.006.009.042.086.042.086.082.175.166.357.342.527l.609-.196C-.236.576-.142.286 0 0" style="fill:#fff;fill-opacity:1;fill-rule:nonzero;stroke:none" transform="translate(537.599 214.403)"/><path d="M0 0c.314-.05.622-.05.941.001l.325-.452s.032-.043.046-.059c-.107-.218-.25-.355-.389-.486l-.078-.075a1.944 1.944 0 0 0-.76.004 4.274 4.274 0 0 1-.072.071L-.181-.8a1.263 1.263 0 0 0-.193.286L0 0" style="fill:#fff;fill-opacity:1;fill-rule:nonzero;stroke:none" transform="translate(537.66 214.357)"/><path d="M0 0c.143.277.239.567.294.887l.596.193c.063-.062.116-.126.162-.197.075-.112.13-.229.178-.334L1.276.45a1.822 1.822 0 0 0-.233-.695C1.04-.243.949-.293.949-.293.78-.383.606-.478.372-.514L0 0" style="fill:#fff;fill-opacity:1;fill-rule:nonzero;stroke:none" transform="translate(538.661 214.403)"/><path d="m0 0-.02-.152a2.122 2.122 0 0 0-.266.505c-.074.21-.112.431-.116.659.098-.11.181-.17.206-.186.03-.249.107-.487.232-.706L0 0" style="fill:#fff;fill-opacity:1;fill-rule:nonzero;stroke:none" transform="translate(536.443 214.017)"/><path d="M0 0c-.21 0-.418.033-.618.095.14.062.224.124.241.138a1.928 1.928 0 0 1 .753 0C.393.219.475.157.616.096A2.07 2.07 0 0 0 0 0" style="fill:#fff;fill-opacity:1;fill-rule:nonzero;stroke:none" transform="translate(538.13 212.98)"/><path d="M0 0c-.016.151-.049.247-.056.269.124.219.201.455.231.705.036.023.116.083.207.183A2.045 2.045 0 0 0 0 0" style="fill:#fff;fill-opacity:1;fill-rule:nonzero;stroke:none" transform="translate(539.835 213.867)"/><path d="M0 0a1.047 1.047 0 0 0-.858.396c.567-.11.921.333.949.489A1.027 1.027 0 0 0-.991.584v-1.828c.485-.114.984-.201 1.49-.261A2.205 2.205 0 0 0-.002-.1L0 0" style="fill:#000100;fill-opacity:1;fill-rule:nonzero;stroke:none" transform="translate(535.906 215.169)"/><path d="M0 0v-2.666a11.645 11.645 0 0 1 2.134-1.187v5.77A5.242 5.242 0 0 0 0 0" style="fill:#000100;fill-opacity:1;fill-rule:nonzero;stroke:none" transform="translate(530.649 218.471)"/><path d="M0 0v2.662a5.226 5.226 0 0 0-2.133 1.917v-5.768C-1.373-.862-.658-.465 0 0" style="fill:#000100;fill-opacity:1;fill-rule:nonzero;stroke:none" transform="translate(545.583 215.81)"/><path d="M0 0c-.427 0-.675.231-.783.349.028-.155.381-.599.949-.488a1.037 1.037 0 0 0-.827-.397l.002-.1a2.21 2.21 0 0 0-.499-1.402c.498.061.987.148 1.466.259v1.83A1.059 1.059 0 0 0 0 0" style="fill:#000100;fill-opacity:1;fill-rule:nonzero;stroke:none" transform="translate(541.008 215.704)"/><path d="M0 0c.278-.141.524-.319.75-.541a2.985 2.985 0 0 0-.291-.878 2.933 2.933 0 0 0-.921-.002 2.909 2.909 0 0 0-.284.88c.224.223.468.4.746.541" style="fill:#000100;fill-opacity:1;fill-rule:nonzero;stroke:none" transform="translate(538.133 215.853)"/><path d="M0 0c.131.036.24.045.298.046L.304.042a13.74 13.74 0 0 0-.011-.067 2.226 2.226 0 0 1-.049-.419c0-.075.008-.154.023-.237C.084-.86-.002-1.04-.091-1.23l-.031-.063c-.05.037-.135.106-.226.222C-.331-.696-.213-.322 0 0" style="fill:#000100;fill-opacity:1;fill-rule:nonzero;stroke:none" transform="translate(536.383 216.221)"/><path d="M0 0c.004 0 .026.204.026.204l.028.101C.076.295.123.269.123.269.295.173.476.076.728.037c.044-.092.098-.175.17-.262l.204-.217.029-.029.056-.052a1.16 1.16 0 0 0-.278-.14A2.07 2.07 0 0 0 0 0" style="fill:#000100;fill-opacity:1;fill-rule:nonzero;stroke:none" transform="translate(536.489 213.774)"/><path d="M0 0c-.094.035-.19.085-.274.143l.055.054c.152.147.294.283.404.507.25.036.431.135.606.231L.86.971C.878.918.907.807.911.654A2.123 2.123 0 0 0 0 0" style="fill:#000100;fill-opacity:1;fill-rule:nonzero;stroke:none" transform="translate(538.855 213.11)"/><path d="m0 0-.029.064a2.284 2.284 0 0 1-.215.39l-.138.163c.015.087.023.169.023.247 0 .141-.021.272-.045.407 0 0-.007.044-.013.071h.005c.044-.001.161-.008.31-.055C.098.974.216.602.227.218A1.133 1.133 0 0 0 0 0" style="fill:#000100;fill-opacity:1;fill-rule:nonzero;stroke:none" transform="translate(539.99 214.92)"/><path d="M534.915 200.95h2.134v2.197h-2.134z" style="fill:#000100;fill-opacity:1;fill-rule:nonzero;stroke:none"/><path d="M0 0c.536-.41.942-.882 1.241-1.361V0Z" style="fill:#000100;fill-opacity:1;fill-rule:nonzero;stroke:none" transform="translate(531.541 203.147)"/><path d="M0 0c.298.479.705.951 1.241 1.361H0Z" style="fill:#000100;fill-opacity:1;fill-rule:nonzero;stroke:none" transform="translate(543.45 201.786)"/><path d="M539.182 200.95h2.134v2.197h-2.134z" style="fill:#000100;fill-opacity:1;fill-rule:nonzero;stroke:none"/><path d="M0 0h-.276c-9.479.07-17.022-4.365-22.931-9.314-1.401 1.361-3.486 3.711-4.715 6.14h-4.665c.912-1.722 3.002-4.997 6.606-8.624-2.918-2.664-6.683-6.83-8.759-10.095h7.069l.006.011c1.568 2.992 3.125 5.213 4.965 7.165 5.023-3.895 11.965-7.388 22.951-7.852v10.06h-3.834v-6.017c-6.719.553-11.952 3.076-16.565 6.574C-15.035-6.857-7.453-1.802-.294-2.008c3.688-.066 5.59-1.782 5.647-3.543.127-1.545-.85-3.743-4.383-3.743H.838c-1.981 0-3.599.58-3.599 2.303v.204c0 .45.428 1.633 1.967 1.633h.256C.282-5.154.7-5.362.7-5.766v-.055c0-.204.004-.419-.49-.507-.448-.079-.75-.229-.905-.448-.078-.121-.158-.39-.066-.588.223-.472.741-.621 1.437-.621.812 0 3.234.241 3.234 2.115v.086C3.91-3.617.752-3.2-.575-3.2h-.168c-4.906 0-5.441-2.936-5.441-3.668v-.202c0-2.722 3.531-4.235 6.908-4.186h.603c5.151-.029 7.519 2.518 7.519 5.035l.01.305C8.814-2.326 4.702 0 0 0" style="fill:#fff;fill-opacity:1;fill-rule:nonzero;stroke:none" transform="translate(505.156 192.101)"/><path d="M508.131 169.532h3.806v10.06h-3.806z" style="fill:#fff;fill-opacity:1;fill-rule:nonzero;stroke:none"/><path d="M0 0c-.997 0-1.518 1.334-1.518 2.65 0 1.553.623 2.639 1.518 2.639.892 0 1.516-1.086 1.516-2.639C1.516 1.334.996 0 0 0m0 6.645c-1.854 0-3.005-1.53-3.005-3.995C-3.005.216-1.826-1.356 0-1.356c1.853 0 3.004 1.534 3.004 4.006 0 2.465-1.151 3.995-3.004 3.995" style="fill:#fff;fill-opacity:1;fill-rule:nonzero;stroke:none" transform="translate(535.638 173.559)"/><path d="M0 0v5.75h1.738c.038 0 .051.013.051.052v1.182c0 .039-.013.051-.051.051H0v4.33c0 .056-.052.049-.052.049h-1.413c-.039 0-.048-.012-.048-.052V.003c0-.039.009-.05.047-.05h1.43S0-.047 0 0" style="fill:#fff;fill-opacity:1;fill-rule:nonzero;stroke:none" transform="translate(529.004 169.506)"/><path d="M0 0v-5.75c0-.047-.036-.048-.036-.048h-1.429c-.038 0-.047.012-.047.051v11.36c0 .039.009.051.047.051h1.414S0 5.672 0 5.615V1.286Z" style="fill:#fff;fill-opacity:1;fill-rule:nonzero;stroke:none" transform="translate(541.595 175.256)"/><path d="m0 0-.836-.953c-.04-.037-.059-.023-.088.001-.628.501-1.824 1.622-2.417 2.364-.71-.871-1.569-1.599-2.851-2.418 0 0-.051-.043-.081-.001l-.746.988c-.036.046.016.079.016.079l.057.039c2.119 1.322 3.671 3.519 4.108 5.006.032.116.044.181.051.229l-3.528.004c-.039 0-.055.016-.055.054v1.18c0 .039.014.051.052.051h4.791c.319 0 .415-.103.407-.415a2.792 2.792 0 0 0-.017-.241c-.14-1.02-.716-2.48-1.345-3.431C-1.923 1.783-.852.72-.019.094-.019.094.043.047 0 0" style="fill:#fff;fill-opacity:1;fill-rule:nonzero;stroke:none" transform="translate(526.81 173.402)"/><path d="M0 0c-.608-.004-1.003 0-1.17.003-.167-.005-.56-.014-1.168-.019-3.448-.022-13.283.141-21.582 2.432.12-.815.272-1.676.456-2.563 8.206-2.176 17.755-2.337 21.142-2.315.608.004 1.001.011 1.168.017.168-.004.562-.005 1.17-.001 3.387.022 12.936.311 21.108 2.595.174.89.317 1.753.427 2.57C13.282.318 3.447.023 0 0" style="fill:#000100;fill-opacity:1;fill-rule:nonzero;stroke:none" transform="translate(511.445 250.675)"/><path d="M0 0c.119.024.238.042.357.065 0-.004.367-.241.44-.288.074-.049.117-.054.183-.044a.325.325 0 0 1 .1.031l-.027.062-.427.289C.745.139.864.16.982.183c0 0 .308-.199.394-.261.086-.054.144-.09.27-.061.127.024 1.465.325 1.464.329l.038-.12a81.204 81.204 0 0 0-1.7-.526c-.139-.035-.392-.117-.465-.127-.073-.006-.138.016-.22.07C.68-.459-.001-.003 0 0" style="fill:#d4101f;fill-opacity:1;fill-rule:nonzero;stroke:none" transform="translate(486.63 251.661)"/><path d="M0 0c.112.042.223.093.335.139 0 .003.409-.161.491-.189.08-.028.126-.029.188-.005.057.031.079.04.091.051l-.039.056-.479.193.333.141c0 .004.344-.139.441-.173.096-.034.159-.054.277-.003.12.047 1.362.632 1.361.629l.062-.108a78.327 78.327 0 0 0-1.55-.872c-.126-.067-.358-.198-.427-.222-.07-.026-.137-.01-.23.023A40.57 40.57 0 0 0 0 0" style="fill:#d4101f;fill-opacity:1;fill-rule:nonzero;stroke:none" transform="translate(511.226 249.29)"/><path d="m0 0 .089.02.045.098C.148.209.116.259.042.27l-.055.008-.042-.27Zm.165.464a.315.315 0 0 0 .14-.049l.09-.087.042-.116L.436.074C.417-.045.374-.122.303-.171a.383.383 0 0 0-.288-.044L-.087-.2l-.065-.421c-.098.013-.196.03-.294.046L-.272.531C-.126.506.02.489.165.464" style="fill:#fff;fill-opacity:1;fill-rule:nonzero;stroke:none" transform="translate(492.415 251.023)"/><path d="m0 0-.019-.133.002-.001.093.105.12.023.046-.007-.038-.261-.036.01-.034.007-.122-.016c-.031-.016-.05-.054-.059-.11l-.068-.458c-.094.015-.19.031-.284.042l.126.839C-.181.028-.091.015 0 0" style="fill:#fff;fill-opacity:1;fill-rule:nonzero;stroke:none" transform="translate(493.206 251.118)"/><path d="m0 0 .001-.082.019-.043.037-.017.041.006.03.037.023.077.022.13.015.131v.082L.169.365.131.382.091.376.061.339.037.26.015.13 0 0m.423-.091-.07-.134-.124-.083a.443.443 0 0 0-.197-.009.562.562 0 0 0-.193.061l-.096.109a.373.373 0 0 0-.026.146 1.179 1.179 0 0 0 .05.333.403.403 0 0 0 .07.135l.124.084a.45.45 0 0 0 .196.011A.456.456 0 0 0 .349.5L.443.389.47.242a1.168 1.168 0 0 0-.047-.333" style="fill:#fff;fill-opacity:1;fill-rule:nonzero;stroke:none" transform="translate(493.676 250.489)"/><path d="m0 0 .026.189.098-.013.008.06.028.105.054.065L.3.435.425.43.492.419.559.403A7.296 7.296 0 0 0 .535.227l-.02.007-.026.004L.44.231.414.188.406.137.521.122.496-.066l-.115.015-.089-.654c-.095.018-.19.029-.284.04.028.219.059.435.09.652z" style="fill:#fff;fill-opacity:1;fill-rule:nonzero;stroke:none" transform="translate(494.196 250.785)"/><path d="m0 0-.058.039-.065-.022-.029-.097-.006-.037.157-.02.005.036L0 0m-.192-.38.012-.094.051-.029.063.022c.017.019.029.057.036.113C.057-.38.141-.394.227-.4.211-.506.173-.58.116-.624.058-.674-.03-.682-.15-.67a.434.434 0 0 0-.169.045l-.103.09a.306.306 0 0 0-.042.144.924.924 0 0 0 .009.205.901.901 0 0 0 .048.204.327.327 0 0 0 .083.128l.122.062A.581.581 0 0 0 .112.171L.21.089l.049-.132a.767.767 0 0 0-.004-.195L.244-.324l-.421.054z" style="fill:#fff;fill-opacity:1;fill-rule:nonzero;stroke:none" transform="translate(495.148 250.667)"/><path d="m0 0 .012-.038.056-.037.06.012.031.049-.024.062-.072.045-.094.046-.093.059-.067.088-.014.132.033.101.073.076.113.043c.044.01.095.008.152.001C.38.611.476.513.454.336L.208.365.197.441.144.469.089.457.063.411.087.354.16.313.255.271.348.215.415.128A.247.247 0 0 0 .43-.007l-.038-.11-.078-.081-.115-.043a.382.382 0 0 0-.147 0 .393.393 0 0 0-.249.102c-.046.052-.065.126-.052.218.083-.012.167-.024.25-.031z" style="fill:#fff;fill-opacity:1;fill-rule:nonzero;stroke:none" transform="translate(495.675 250.146)"/><path d="m0 0 .012-.037.056-.037.06.012.031.051L.135.05.062.095l-.095.044-.093.058-.067.088-.015.132.033.102.072.075.112.043c.044.01.096.009.153.003C.375.613.472.517.451.339.369.35.287.358.205.367L.194.443.141.469.086.458.06.412.085.355.157.314.253.273.346.217.414.13A.255.255 0 0 0 .43-.003L.393-.115.315-.196.201-.239.053-.241c-.12.017-.203.05-.249.101-.047.052-.065.125-.053.218.083-.012.167-.018.25-.03z" style="fill:#fff;fill-opacity:1;fill-rule:nonzero;stroke:none" transform="translate(496.409 250.057)"/><path d="M0 0c-.095.009-.19.018-.286.032l.097.844C-.095.865-.001.849.094.844L0 0m.101.904-.283.032.023.209c.094-.009.19-.021.284-.031L.101.904" style="fill:#fff;fill-opacity:1;fill-rule:nonzero;stroke:none" transform="translate(497.183 249.75)"/><path d="m0 0 .004-.082.02-.044.038-.014.041.007.029.037.02.08c.006.038.012.074.017.129L.18.245.177.327l-.02.044-.038.015-.04-.007L.05.341.029.261.011.13A2.201 2.201 0 0 1 0 0m.425-.078L.36-.213.24-.3a.417.417 0 0 0-.197-.016.495.495 0 0 0-.195.054l-.099.106-.032.145a1.336 1.336 0 0 0 .039.335l.066.136.12.089c.05.023.116.026.196.017A.461.461 0 0 0 .331.51L.43.403A.356.356 0 0 0 .462.257a1.188 1.188 0 0 0-.037-.335" style="fill:#fff;fill-opacity:1;fill-rule:nonzero;stroke:none" transform="translate(497.598 250)"/><path d="m0 0-.01-.103.003-.001c.045.081.118.115.219.105l.087-.019.067-.043.04-.075.007-.114L.35-.887l-.286.028c.02.187.037.37.056.557l-.008.078-.052.029-.056-.018-.024-.075-.056-.557c-.095.009-.191.016-.286.029l.087.844C-.183.018-.092.008 0 0" style="fill:#fff;fill-opacity:1;fill-rule:nonzero;stroke:none" transform="translate(498.459 250.47)"/><path d="m0 0 .03.103.01.101H.036l-.04-.017-.06-.012-.05-.038-.019-.066.013-.07.048-.029L0 0m.012-.159-.001.051H.007l-.083-.078-.121-.016-.109.027-.069.056-.034.081-.003.102.022.101.046.073.078.048.118.027.114.016.069.026.024.058-.065.085-.062-.017-.029-.088C-.18.398-.261.411-.344.417a.275.275 0 0 0 .047.144l.09.078.11.031H.01L.145.645.249.594.311.505.323.367.286-.045.281-.15l.015-.081c-.092.012-.185.015-.277.026z" style="fill:#fff;fill-opacity:1;fill-rule:nonzero;stroke:none" transform="translate(499.323 249.737)"/><path d="M0 0c-.095.005-.191.017-.287.025l.1 1.116c.095-.007.189-.017.284-.025L0 0" style="fill:#fff;fill-opacity:1;fill-rule:nonzero;stroke:none" transform="translate(500.01 249.472)"/><path d="m0 0-.014.087-.06.04-.072-.026-.028-.065.029-.09.085-.063.112-.057.111-.072.081-.109a.332.332 0 0 0 .024-.168C.259-.646.217-.728.144-.774a.456.456 0 0 0-.305-.057.726.726 0 0 0-.162.028l-.116.061-.066.102a.369.369 0 0 0-.013.149l.003.039c.095-.007.191-.018.286-.023l-.002-.026.019-.103.068-.035.073.026.03.075-.027.089-.081.061-.108.055-.107.071-.078.105a.328.328 0 0 0-.021.163c.01.114.047.201.113.251.066.053.161.079.285.067C.062.313.154.281.207.221.26.159.282.075.273-.048c-.091.01-.184.014-.275.021z" style="fill:#fff;fill-opacity:1;fill-rule:nonzero;stroke:none" transform="translate(501.063 250.213)"/><path d="m0 0 .007-.074.022-.04.039-.014.042.008.027.037.018.072.011.114.005.114L.164.29.142.329l-.04.014L.061.335.034.299.017.228.005.115 0 0m.026.537L.018.422h.003c.039.09.108.129.205.123C.321.535.385.497.417.417A.826.826 0 0 0 .45.064a.884.884 0 0 0-.033-.202L.355-.265.267-.328.157-.34l-.108.031-.064.094h-.003c-.009-.121-.019-.243-.027-.366-.096.009-.192.014-.288.022.029.37.057.741.084 1.117L.026.537" style="fill:#fff;fill-opacity:1;fill-rule:nonzero;stroke:none" transform="translate(501.716 249.65)"/><path d="m0 0-.06.035-.064-.027-.023-.097-.002-.038.157-.01.002.038L0 0m-.167-.391.018-.094.053-.026.062.026c.016.02.026.056.029.116.085-.007.172-.009.257-.016C.244-.489.212-.566.156-.616.101-.665.014-.685-.105-.679a.711.711 0 0 0-.172.035l-.109.082-.052.141c-.008.06-.009.122-.004.206a.896.896 0 0 0 .035.206l.074.133.118.07a.489.489 0 0 0 .167.013.463.463 0 0 0 .149-.03L.204.103l.057-.13a.684.684 0 0 0 .01-.194L.265-.308c-.141.009-.283.021-.424.027z" style="fill:#fff;fill-opacity:1;fill-rule:nonzero;stroke:none" transform="translate(502.673 249.941)"/><path d="m0 0-.011.053-.061.04-.042-.009-.028-.041-.019-.081-.011-.128-.004-.13.009-.081.024-.044.04-.013.063.026.027.108.004.055C.077-.25.163-.253.248-.26a.738.738 0 0 0-.027-.169L.156-.542C.098-.594.009-.62-.114-.612a1.77 1.77 0 0 0-.15.023l-.114.067a.343.343 0 0 0-.068.135.78.78 0 0 0-.013.223.82.82 0 0 0 .045.24.35.35 0 0 0 .09.134l.125.057.151.007C.015.265.068.26.108.239L.204.162.25.047l.007-.145C.172-.091.086-.091 0-.084Z" style="fill:#fff;fill-opacity:1;fill-rule:nonzero;stroke:none" transform="translate(503.453 249.827)"/><path d="M0 0c-.095.003-.192.011-.287.016l.046.847C-.147.857-.05.853.044.848L0 0m.047.909c-.095.003-.19.006-.285.015l.012.21c.095-.004.19-.01.284-.015L.047.909" style="fill:#fff;fill-opacity:1;fill-rule:nonzero;stroke:none" transform="translate(504.054 249.194)"/><path d="m0 0 .01.19.098-.005.003.061.019.107.048.069.083.036.126.006L.454.46.522.449.514.272.493.277.467.279.419.267.396.223.393.171.509.165.5-.024l-.116.005-.031-.658c-.096.004-.192.005-.288.014.01.219.023.432.034.658z" style="fill:#fff;fill-opacity:1;fill-rule:nonzero;stroke:none" transform="translate(504.15 249.849)"/><path d="M0 0c-.096.006-.191.005-.287.014.013.283.027.564.039.847.094-.002.19-.007.285-.012L0 0m.04.909c-.095.005-.19.01-.285.013l.01.21c.095-.006.189-.009.284-.013L.04.909" style="fill:#fff;fill-opacity:1;fill-rule:nonzero;stroke:none" transform="translate(504.968 249.15)"/><path d="m0 0-.012.053-.062.038-.041-.009L-.143.04-.16-.041C-.166-.078-.167-.114-.169-.17a2.097 2.097 0 0 1-.002-.129l.01-.082.025-.043.04-.013.063.028.026.108.002.056c.086-.003.171-.009.258-.01a.754.754 0 0 0-.024-.17L.165-.539C.109-.594.019-.618-.103-.614a.682.682 0 0 0-.151.02l-.115.066a.279.279 0 0 0-.07.133.714.714 0 0 0-.017.222.77.77 0 0 0 .04.241.32.32 0 0 0 .088.136l.124.059c.046.006.097.013.151.01A.447.447 0 0 0 .104.24L.201.165.249.052a.717.717 0 0 0 .01-.146c-.086.002-.172.007-.258.01z" style="fill:#fff;fill-opacity:1;fill-rule:nonzero;stroke:none" transform="translate(505.536 249.728)"/><path d="m0 0 .024.104.003.102H.024l-.039-.02L-.074.17-.122.13-.137.062l.017-.067.05-.027L0 0m.022-.158-.005.05-.003.001-.079-.082-.12-.025-.11.021-.072.052-.039.08-.009.1.015.103.042.075.075.052.116.035.114.023.066.03.021.059-.07.08-.061-.02-.024-.089c-.082.001-.166.007-.248.008A.277.277 0 0 0-.33.543l.086.083.107.037.107.006.136-.016.107-.046L.28.522A.345.345 0 0 0 .3.386L.288-.028l.001-.105.02-.079-.278.008z" style="fill:#fff;fill-opacity:1;fill-rule:nonzero;stroke:none" transform="translate(506.244 249.305)"/><path d="m0 0 .007.249C.102.245.197.244.292.241l-.007-.25.113-.002-.005-.19-.113.003a53.022 53.022 0 0 0-.011-.404l.016-.052.051-.016.045-.001-.005-.188-.08-.001H.219l-.111.008-.076.031-.041.066-.01.113.013.452-.095.003.006.189z" style="fill:#fff;fill-opacity:1;fill-rule:nonzero;stroke:none" transform="translate(506.72 249.936)"/><path d="M0 0c-.096 0-.192.004-.288.007l.022.849.285-.007L0 0m.021.91a3.873 3.873 0 0 0-.285.007l.005.21c.095-.002.19-.009.285-.007L.021.91" style="fill:#fff;fill-opacity:1;fill-rule:nonzero;stroke:none" transform="translate(507.45 249.068)"/><path d="m0 0 .011-.081.024-.041.039-.012.04.01.026.041.013.08.006.132C.16.184.16.226.158.26L.147.342.124.383l-.04.011L.045.385.02.344.005.263C.003.221 0 .186-.001.131-.002.076-.001.029 0 0m.431-.039a.347.347 0 0 0-.053-.142L.266-.277a.424.424 0 0 0-.195-.034.498.498 0 0 0-.199.038l-.108.096a.353.353 0 0 0-.044.142 1.196 1.196 0 0 0 .009.336l.053.142.112.099c.05.026.113.038.193.034A.42.42 0 0 0 .285.538L.393.44A.31.31 0 0 0 .437.297 1.07 1.07 0 0 0 .445.123a1.084 1.084 0 0 0-.014-.162" style="fill:#fff;fill-opacity:1;fill-rule:nonzero;stroke:none" transform="translate(507.84 249.353)"/><path d="m0 0-.001-.104h.003C.04-.021.109.022.211.02L.299.009l.07-.038L.416-.1l.017-.113-.006-.64-.288.003.007.56-.015.077-.054.024-.054-.022-.017-.077C.005-.475.001-.662-.001-.849c-.095-.002-.193.006-.288.004l.013.849C-.184 0-.092.004 0 0" style="fill:#fff;fill-opacity:1;fill-rule:nonzero;stroke:none" transform="translate(508.657 249.896)"/><path d="m0 0 .083.038.023.105C.101.231.06.272-.017.273L-.072.269l.016-.272zm.062.488c.057 0 .105.001.147-.017L.316.404.382.299.41.164C.418.045.392-.038.332-.103.273-.162.182-.197.061-.207l-.103-.006.025-.426-.297-.018L-.378.461c.147.011.293.018.44.027" style="fill:#fff;fill-opacity:1;fill-rule:nonzero;stroke:none" transform="translate(517.143 249.89)"/><path d="m0 0 .009-.135h.003l.068.122.113.047.046.004.018-.263-.036.003-.036-.002L.07-.265C.043-.286.031-.328.035-.385l.032-.461C-.029-.85-.125-.864-.22-.865l-.056.846c.092.005.184.013.276.019" style="fill:#fff;fill-opacity:1;fill-rule:nonzero;stroke:none" transform="translate(517.897 250.151)"/><path d="m0 0 .019-.08.027-.038.04-.009.039.014.021.042.007.082-.007.131-.013.131-.018.081-.027.038L.047.4.009.387-.012.345-.019.262c0-.033.002-.077.006-.131C-.008.074-.005.034 0 0m.433 0L.394-.145.29-.252a.448.448 0 0 0-.191-.052c-.084-.003-.151-.005-.202.02l-.117.086-.056.137a1.3 1.3 0 0 0-.022.336.378.378 0 0 0 .04.147l.102.108c.046.031.11.046.19.052.084-.002.15 0 .2-.021L.351.473.408.335A1.297 1.297 0 0 0 .433 0" style="fill:#fff;fill-opacity:1;fill-rule:nonzero;stroke:none" transform="translate(518.49 249.635)"/><path d="m0 0-.015.189.099.008-.005.061.005.108.039.075.078.047.123.021.068.003.069-.001.014-.176-.021.002L.427.335.381.317.364.27.368.219l.116.009.015-.189-.116-.01.053-.656C.34-.632.245-.647.149-.649L.098.006Z" style="fill:#fff;fill-opacity:1;fill-rule:nonzero;stroke:none" transform="translate(518.936 250.035)"/><path d="m0 0-.065.026-.059-.036-.008-.101.003-.036.157.013-.003.037L0 0m-.107-.412.032-.089.056-.018.057.035c.012.018.016.063.011.118.087.011.171.013.258.022a.334.334 0 0 0-.061-.242c-.048-.059-.13-.092-.25-.101a.51.51 0 0 0-.175.009l-.12.065-.072.133a.988.988 0 0 0-.035.202.872.872 0 0 0 .004.208.329.329 0 0 0 .054.144l.106.086a.566.566 0 0 0 .315.031L.186.132a.273.273 0 0 0 .076-.12A.705.705 0 0 0 .3-.179l.008-.086C.166-.279.025-.289-.116-.301Z" style="fill:#fff;fill-opacity:1;fill-rule:nonzero;stroke:none" transform="translate(519.891 250.12)"/><path d="m0 0 .019-.034.063-.024.057.024.019.055-.036.055-.08.028-.103.025-.103.038-.084.072-.042.127.011.105.056.089.101.066a.425.425 0 0 0 .148.033C.24.677.356.604.372.423A10.29 10.29 0 0 0 .125.401L.099.473.041.488-.01.465-.026.416.009.365l.08-.026.102-.02.103-.036.085-.071.043-.127-.013-.117-.06-.095-.103-.066a.545.545 0 0 0-.144-.032c-.119-.009-.209.009-.265.048-.057.038-.089.113-.097.201.083.009.167.014.251.022z" style="fill:#fff;fill-opacity:1;fill-rule:nonzero;stroke:none" transform="translate(520.519 249.722)"/><path d="m0 0 .02-.034.063-.024.056.025.02.054-.037.055-.08.029-.103.024-.104.037-.084.071-.043.126.011.106.054.089.101.067A.447.447 0 0 0 .023.66C.236.675.352.604.37.426.288.419.205.413.123.402L.096.474.038.488-.013.466l-.016-.05.037-.052L.087.34.189.32.293.285.377.214.422.087.409-.029.35-.124.248-.191.104-.224c-.119-.01-.209.004-.265.046-.058.041-.089.11-.099.201.084.006.167.017.251.024z" style="fill:#fff;fill-opacity:1;fill-rule:nonzero;stroke:none" transform="translate(521.254 249.79)"/><path d="M0 0c-.096-.011-.191-.015-.286-.029l-.086.845c.095.01.189.02.285.028C-.058.561-.03.281 0 0m-.094.905C-.188.893-.284.891-.378.876l-.021.209c.094.011.189.02.283.03l.022-.21" style="fill:#fff;fill-opacity:1;fill-rule:nonzero;stroke:none" transform="translate(522.078 249.654)"/><path d="m0 0 .021-.078.029-.039.04-.006.039.015.02.043.003.082-.011.131-.017.13-.02.08-.029.037-.041.008-.038-.016-.02-.043-.004-.082.011-.132L0 0m.433.015L.398-.132l-.099-.11a.369.369 0 0 0-.19-.057.473.473 0 0 0-.202.012l-.12.083-.061.135a1.174 1.174 0 0 0-.028.171C-.308.155-.31.208-.308.266l.035.147.099.112a.43.43 0 0 0 .188.059A.47.47 0 0 0 .216.57L.335.486.398.35C.409.294.419.243.427.179.432.119.434.069.433.015" style="fill:#fff;fill-opacity:1;fill-rule:nonzero;stroke:none" transform="translate(522.43 249.985)"/><path d="m0 0 .012-.103h.003c.027.086.092.138.192.149h.089L.37.017l.056-.065.031-.109.074-.636C.436-.809.34-.809.245-.826.224-.641.203-.452.181-.27l-.024.074L.1-.178.049-.207.042-.285c.02-.191.042-.375.063-.558-.094-.009-.19-.02-.286-.031l-.094.843C-.183-.023-.092-.01 0 0" style="fill:#fff;fill-opacity:1;fill-rule:nonzero;stroke:none" transform="translate(523.173 250.627)"/><path d="m0 0 .008.108-.013.101-.003-.001-.036-.026L-.1.157-.141.11-.145.041l.027-.064.054-.02L0 0m.046-.153-.012.05L.03-.104l-.065-.093-.115-.042-.112.003-.08.041-.05.073-.025.098v.103l.03.081.066.063.109.052.109.04.061.04.012.062c-.007.054-.034.076-.082.068L-.169.456l-.01-.092a2.971 2.971 0 0 1-.247-.03.288.288 0 0 0 .016.152l.072.095.101.054.104.022.138.005.112-.029.08-.074A.311.311 0 0 0 .238.427C.255.29.273.155.289.017l.018-.104.032-.075a6.494 6.494 0 0 0-.276-.034Z" style="fill:#fff;fill-opacity:1;fill-rule:nonzero;stroke:none" transform="translate(524.174 250.093)"/><path d="M0 0a14.896 14.896 0 0 0-.286-.036l-.14 1.111c.095.01.189.022.283.035L0 0" style="fill:#fff;fill-opacity:1;fill-rule:nonzero;stroke:none" transform="translate(524.903 249.98)"/><path d="m0 0-.032.082L-.1.109l-.065-.04-.013-.071.047-.081.097-.043.121-.032.124-.048.103-.089c.03-.034.05-.09.059-.159C.39-.572.366-.664.306-.725.245-.79.149-.83.019-.846a1.091 1.091 0 0 0-.165-.008l-.125.036-.087.086a.389.389 0 0 0-.045.143l-.005.039c.095.012.19.023.285.038l.003-.027.041-.096.073-.02.067.041.013.079-.045.082-.093.043-.118.031-.119.046-.098.086a.322.322 0 0 0-.055.155c-.015.113.003.208.056.269.054.066.141.108.265.126C-.005.32.09.307.155.259.22.209.261.135.277.011L.003-.027Z" style="fill:#fff;fill-opacity:1;fill-rule:nonzero;stroke:none" transform="translate(525.777 250.926)"/><path d="m0 0 .022-.071.03-.034.041-.005.04.017.019.041.001.074L.14.135.121.247.098.318.069.352.026.357-.012.341-.031.299-.032.226l.013-.113L0 0m-.089.531.016-.114h.004c.019.094.077.154.174.164C.198.594.271.563.319.496.368.43.404.316.427.158.438.077.442.013.438-.046a.457.457 0 0 0-.034-.138l-.073-.08-.106-.035-.112.008-.082.078H.027c.018-.125.036-.239.052-.363-.096-.011-.19-.029-.286-.041L-.363.492c.091.015.183.024.274.039" style="fill:#fff;fill-opacity:1;fill-rule:nonzero;stroke:none" transform="translate(526.535 250.514)"/><path d="m0 0-.067.022-.055-.04-.003-.101.006-.037.156.023-.006.037L0 0m-.079-.418.037-.087.057-.015.055.04c.012.022.012.062.003.118.085.017.171.025.256.038C.342-.426.328-.51.284-.569.241-.624.161-.672.042-.685a.812.812 0 0 0-.176-.003l-.124.058-.081.125a1.113 1.113 0 0 0-.058.409c.005.058.02.106.044.147l.101.093a.5.5 0 0 0 .161.048c.057.005.107.013.151.003L.178.143.261.029a.786.786 0 0 0 .051-.188l.013-.085-.421-.064Z" style="fill:#fff;fill-opacity:1;fill-rule:nonzero;stroke:none" transform="translate(527.41 251.002)"/><path d="m0 0-.022.049-.069.026-.038-.018-.02-.046v-.082L-.133-.2l.024-.127.026-.078.032-.037.042-.005.056.039.005.111-.009.055c.085.017.171.026.256.041a.755.755 0 0 0 .009-.171l-.04-.125C.223-.56.14-.608.019-.622a.902.902 0 0 0-.152-.009l-.126.041-.095.118a.72.72 0 0 0-.06.215.785.785 0 0 0-.008.243.333.333 0 0 0 .06.15l.11.082.147.04c.063.01.116.011.16-.002L.166.201.235.099a.553.553 0 0 0 .038-.141C.188-.052.103-.07.018-.082Z" style="fill:#fff;fill-opacity:1;fill-rule:nonzero;stroke:none" transform="translate(528.198 251.056)"/><path d="m0 0-.284-.047-.136.838c.095.011.188.031.283.047L0 0m-.147.897C-.241.885-.335.867-.43.852l-.033.207.282.046.034-.208" style="fill:#fff;fill-opacity:1;fill-rule:nonzero;stroke:none" transform="translate(528.921 250.564)"/><path d="m0 0-.031.188.097.015-.01.061-.004.108.032.078.074.053.122.033.066.008.07.005.029-.175-.022.001L.397.371.353.35.34.302.348.25l.115.019C.473.21.483.14.494.082L.38.063l.109-.65C.394-.603.3-.62.205-.634l-.108.65Z" style="fill:#fff;fill-opacity:1;fill-rule:nonzero;stroke:none" transform="translate(528.876 251.224)"/><path d="M0 0c-.094-.013-.19-.037-.284-.048l-.142.836c.094.019.187.032.282.048L0 0m-.154.896C-.248.879-.342.866-.437.848l-.035.208c.094.014.188.031.282.048l.036-.208" style="fill:#fff;fill-opacity:1;fill-rule:nonzero;stroke:none" transform="translate(529.826 250.715)"/><path d="m0 0-.023.05-.07.024L-.13.055-.149.009l.001-.083.018-.127.027-.127.027-.078.033-.036.042-.005.056.04c.011.02.012.057.002.112l-.01.055c.086.012.17.032.255.045a.727.727 0 0 0 .013-.172L.277-.491C.233-.561.151-.599.03-.621c-.055-.011-.105-.012-.152-.013l-.126.04a.272.272 0 0 0-.098.115.726.726 0 0 0-.064.215.78.78 0 0 0-.012.243c.01.061.029.111.057.152l.109.083.146.042a.43.43 0 0 0 .16.001L.162.204l.071-.1.04-.141C.189-.056.104-.067.019-.081Z" style="fill:#fff;fill-opacity:1;fill-rule:nonzero;stroke:none" transform="translate(530.26 251.399)"/><path d="m0 0 .002.106-.019.101H-.02L-.055.179-.109.15-.147.101V.032l.031-.063.055-.015L0 0m.055-.15L.04-.102H.037l-.06-.097-.112-.048-.112-.004-.083.035-.055.07-.03.097-.007.104.025.081.063.067.106.058.107.047.058.043.008.063-.086.064-.055-.033-.005-.092C-.283.34-.363.323-.445.308a.286.286 0 0 0 .006.153l.066.099.098.059.103.029.137.013.114-.022L.163.57.212.441A62.7 62.7 0 0 0 .288.033l.024-.101.036-.074-.274-.051Z" style="fill:#fff;fill-opacity:1;fill-rule:nonzero;stroke:none" transform="translate(531.043 251.135)"/><path d="m0 0-.046.245c.093.014.187.033.281.053L.281.053l.111.021.036-.186-.111-.021.075-.398.026-.047.054-.005.044.008.036-.184-.079-.018-.075-.016-.111-.016-.08.013-.054.056-.035.11-.083.444-.094-.018c-.012.062-.022.126-.035.186z" style="fill:#fff;fill-opacity:1;fill-rule:nonzero;stroke:none" transform="translate(531.375 251.853)"/><path d="M0 0c-.095-.018-.188-.034-.283-.054-.053.27-.107.559-.16.833.094.017.188.035.281.054C-.107.553-.055.275 0 0m-.173.893C-.267.876-.361.856-.454.84l-.04.206c.094.017.187.037.28.054l.041-.207" style="fill:#fff;fill-opacity:1;fill-rule:nonzero;stroke:none" transform="translate(532.274 251.16)"/><path d="m0 0 .028-.077.032-.036.041-.003.037.019.016.045L.15.029.128.158.099.287.071.365.039.4l-.041.003-.036-.018L-.055.34l.004-.083.022-.129L0 0m.43.052L.409-.097l-.09-.118a.402.402 0 0 0-.184-.074.562.562 0 0 0-.202-.006l-.127.072-.074.129A1.435 1.435 0 0 0-.33.237a.402.402 0 0 0 .021.149l.089.12c.043.034.104.06.183.076.082.015.15.013.201.004L.291.513.365.382A1.36 1.36 0 0 0 .41.214Z" style="fill:#fff;fill-opacity:1;fill-rule:nonzero;stroke:none" transform="translate(532.597 251.521)"/><path d="m0 0 .021-.102h.003c.02.093.079.144.179.166l.089.008.076-.023.061-.059.041-.107.131-.627a10.16 10.16 0 0 1-.283-.058l-.113.549-.031.072-.058.012-.048-.033v-.079L.18-.83l-.283-.057-.168.832c.09.017.181.038.271.055" style="fill:#fff;fill-opacity:1;fill-rule:nonzero;stroke:none" transform="translate(533.28 252.225)"/><path d="M0 0v.002C-9.098-3.29-22.93-3.009-23.082-3.009h-.154c-.148 0-13.983-.281-23.078 3.011V0c0-.056-.034-.973.03-2.452v-.021l.084-.037-.082.028c.03-.644.082-1.403.161-2.236.062-.677.145-1.395.252-2.166 8.275-2.344 18.101-2.573 21.546-2.573.606 0 .997.009 1.166.013.167-.004.561-.013 1.166-.013 3.446 0 13.272.229 21.547 2.573.108.769.189 1.489.251 2.164.079.829.131 1.585.161 2.228l.002.04C.036-.973.002-.056 0 0" style="fill:#000100;fill-opacity:1;fill-rule:nonzero;stroke:none" transform="translate(533.413 260.193)"/></g><g clip-path="url(#m)" transform="matrix(1.546 0 0 -1.546 -588.342 835.721)"><path d="M0 0s11.068-5.325 29.864-5.325c18.795 0 32.578 5.221 32.578 5.221" style="fill:none;stroke:#393939;stroke-width:9;stroke-linecap:butt;stroke-linejoin:miter;stroke-miterlimit:4;stroke-dasharray:.2,.8;stroke-dashoffset:0;stroke-opacity:1" transform="translate(480.014 259.195)"/></g><g clip-path="url(#n)" transform="matrix(1.546 0 0 -1.546 -588.342 835.721)"><path d="M0 0v.002c-9.106-3.296-22.956-3.014-23.105-3.014h-.155c-.147 0-13.997-.282-23.101 3.014V0c-.002-.056-.037-.977.032-2.455.051-1.176.167-2.703.414-4.437 8.283-2.345 18.116-2.574 21.564-2.574.608 0 1.001.006 1.168.01.168-.004.562-.01 1.17-.01 3.447 0 13.284.229 21.568 2.574.242 1.734.359 3.261.411 4.437C.034-.977.002-.056 0 0Z" style="fill:none;stroke:#484848;stroke-width:.329;stroke-linecap:butt;stroke-linejoin:round;stroke-miterlimit:10;stroke-dasharray:none;stroke-opacity:1" transform="translate(533.439 260.199)"/><path d="M0 0c-.167-.004-.56-.009-1.168-.009-3.388 0-12.935.225-21.125 2.455.94-4.663 2.656-8.971 6.247-14.443C-13.022-16.605-6.531-24.183 0-24.183c6.542.357 12.342 6.812 15.749 11.821 3.514 5.168 5.609 10.145 6.545 14.808C14.106.216 4.557-.009 1.17-.009.561-.009.167-.004 0 0" style="fill:#dcdbdb;fill-opacity:1;fill-rule:nonzero;stroke:none" transform="translate(510.256 248.295)"/><path d="M0 0c-8.19-2.232-17.753-2.459-21.143-2.459-.606 0-1.002.008-1.169.009-.17-.001-.562-.009-1.173-.009-3.388 0-12.949.227-21.144 2.459" style="fill:none;stroke:#7c7d7d;stroke-width:.329;stroke-linecap:butt;stroke-linejoin:round;stroke-miterlimit:10;stroke-dasharray:none;stroke-opacity:1" transform="translate(532.572 250.797)"/><path d="M0 0s-1.981-17.682 23.183-36.093H12.714S-4.137-24.15-6.353-3.886C-6.5-3.787 0 0 0 0" style="fill:#000100;fill-opacity:1;fill-rule:nonzero;stroke:none" transform="translate(486.98 260.205)"/></g><g clip-path="url(#o)" transform="matrix(1.546 0 0 -1.546 -588.342 835.721)"><path d="m0 0-.08.052" style="fill:none;stroke:#393939;stroke-width:7;stroke-linecap:butt;stroke-linejoin:miter;stroke-miterlimit:4;stroke-dasharray:none;stroke-opacity:1" transform="translate(507.365 221.894)"/><path d="M0 0c-3.832 2.685-21.287 15.991-23.278 36.897" style="fill:none;stroke:#393939;stroke-width:7;stroke-linecap:butt;stroke-linejoin:miter;stroke-miterlimit:4;stroke-dasharray:.201,.806;stroke-dashoffset:0;stroke-opacity:1" transform="translate(506.623 222.397)"/><path d="m0 0-.008.1" style="fill:none;stroke:#393939;stroke-width:7;stroke-linecap:butt;stroke-linejoin:miter;stroke-miterlimit:4;stroke-dasharray:none;stroke-opacity:1" transform="translate(483.308 259.708)"/></g><g clip-path="url(#p)" transform="matrix(1.546 0 0 -1.546 -588.342 835.721)"><path d="M0 0s-1.981-17.682 23.183-36.093H12.714S-4.137-24.15-6.353-3.886C-6.5-3.787 0 0 0 0Z" style="fill:none;stroke:#484848;stroke-width:.329;stroke-linecap:butt;stroke-linejoin:round;stroke-miterlimit:10;stroke-dasharray:none;stroke-opacity:1" transform="translate(486.98 260.205)"/><path d="M0 0s1.981-17.682-23.183-36.093h10.469S4.137-24.15 6.353-3.886C6.5-3.787 0 0 0 0" style="fill:#000100;fill-opacity:1;fill-rule:nonzero;stroke:none" transform="translate(533.439 260.205)"/></g><g clip-path="url(#q)" transform="matrix(1.546 0 0 -1.546 -588.342 835.721)"><path d="m0 0 .08.052" style="fill:none;stroke:#393939;stroke-width:7;stroke-linecap:butt;stroke-linejoin:miter;stroke-miterlimit:4;stroke-dasharray:none;stroke-opacity:1" transform="translate(513.055 221.894)"/><path d="M0 0c3.833 2.685 21.287 15.991 23.278 36.897" style="fill:none;stroke:#393939;stroke-width:7;stroke-linecap:butt;stroke-linejoin:miter;stroke-miterlimit:4;stroke-dasharray:.201,.806;stroke-dashoffset:0;stroke-opacity:1" transform="translate(513.797 222.397)"/><path d="m0 0 .008.1" style="fill:none;stroke:#393939;stroke-width:7;stroke-linecap:butt;stroke-linejoin:miter;stroke-miterlimit:4;stroke-dasharray:none;stroke-opacity:1" transform="translate(537.112 259.708)"/></g><g clip-path="url(#r)" transform="matrix(1.546 0 0 -1.546 -588.342 835.721)"><path d="M0 0s1.981-17.682-23.183-36.093h10.469S4.137-24.15 6.353-3.886C6.5-3.787 0 0 0 0Z" style="fill:none;stroke:#484848;stroke-width:.329;stroke-linecap:butt;stroke-linejoin:round;stroke-miterlimit:10;stroke-dasharray:none;stroke-opacity:1" transform="translate(533.439 260.205)"/><path d="M461.598 61.078h37.42V86.15h-37.42zM518.243 61.078h37.42V86.15h-37.42z" style="fill:#911e23;fill-opacity:1;fill-rule:nonzero;stroke:none"/><path d="M461.598 79.914h37.42v-6.239h-37.42z" style="fill:#911e23;fill-opacity:1;fill-rule:nonzero;stroke:none"/><path d="M461.598 42.034h37.42v31.641h-37.42z" style="fill:#d80010;fill-opacity:1;fill-rule:nonzero;stroke:none"/><path d="M518.243 79.914h37.42v-6.239h-37.42z" style="fill:#911e23;fill-opacity:1;fill-rule:nonzero;stroke:none"/><path d="M518.243 40.723h37.42v32.952h-37.42z" style="fill:#d80010;fill-opacity:1;fill-rule:nonzero;stroke:none"/><path d="M0 0v-52.199h58.789v35.455h1.03v-35.455h58.273V0Z" style="fill:#000;fill-opacity:1;fill-rule:nonzero;stroke:none" transform="translate(449.24 138.35)"/><path d="M0 0h55.985v50.95H-58.727V0h56.491v35.456H0Zm57.211-1.248H-59.953v53.447H57.211Z" style="fill:#343635;fill-opacity:1;fill-rule:nonzero;stroke:none" transform="translate(509.658 86.774)"/><path d="M0 0c-3.511.071-6.256-.48-8.395-1.482C-4.159-5.904 3.032-14.88 9.581-30.028c8.169.275 16.205 1.587 20.151 3.158C27.131-14.994 17.741-4.202 11.558 1.832 9.49.72 5.973-.119 0 0" style="fill:#d80010;fill-opacity:1;fill-rule:nonzero;stroke:none" transform="translate(447.257 44.99)"/><path d="M0 0c.965-5.8 12.65-7.436 24.1-7.049C17.551 8.1 10.36 17.075 6.125 21.497-1.727 17.816-1.331 7.997 0 0" style="fill:#231916;fill-opacity:1;fill-rule:nonzero;stroke:none" transform="translate(432.737 22.01)"/><path d="M0 0c-1.374 5.583-3.09 20.841-3.09 20.841-.687-3.124-10.642-2.127-10.642-2.127-11.672 5.91-26.778 3.936-26.778 3.936s.826-2.783-2.783-4.731C-37.11 11.885-27.72 1.093-25.12-10.783c.23.092.458.185.66.278 8.496 3.941 6.265 1.314 14.504 1.971C-1.717-7.878 1.373-5.581 0 0" style="fill:#231916;fill-opacity:1;fill-rule:nonzero;stroke:none" transform="translate(502.108 28.903)"/><path d="M0 0c3.511.071 6.256-.48 8.394-1.482C4.158-5.904-3.032-14.88-9.58-30.028c-8.171.275-16.206 1.587-20.151 3.158 2.6 11.876 11.99 22.668 18.173 28.702C-9.49.72-5.974-.119 0 0" style="fill:#d80010;fill-opacity:1;fill-rule:nonzero;stroke:none" transform="translate(569.919 44.99)"/><path d="M0 0c-.964-5.8-12.65-7.436-24.099-7.049C-17.551 8.1-10.36 17.075-6.124 21.497 1.727 17.816 1.331 7.997 0 0" style="fill:#231916;fill-opacity:1;fill-rule:nonzero;stroke:none" transform="translate(584.437 22.01)"/><path d="M0 0c1.373 5.583 3.091 20.841 3.091 20.841.686-3.124 10.641-2.127 10.641-2.127 11.671 5.91 26.778 3.936 26.778 3.936s-.826-2.783 2.784-4.731C37.11 11.885 27.721 1.093 25.12-10.783c-.23.092-.458.185-.661.278-8.496 3.941-6.264 1.314-14.503 1.971C1.716-7.878-1.373-5.581 0 0" style="fill:#231916;fill-opacity:1;fill-rule:nonzero;stroke:none" transform="translate(515.067 28.903)"/><path d="M0 0c-.257 0-.557-.111-.891-.328-.664-.435-1.021-1.009-1.09-1.756C-2.22-4.617.826-8.52 2.862-10.729 2.767-7.436 2.287-1.922.735-.354.499-.116.259 0 0 0m4.114-13.741-1.043 1.005c-.273.264-6.697 6.508-6.296 10.768.107 1.135.662 2.037 1.651 2.684 1.182.774 2.321.693 3.198-.193C4.156-2.034 4.139-11.25 4.129-12.292z" style="fill:#002f35;fill-opacity:1;fill-rule:nonzero;stroke:none" transform="translate(454.421 55.794)"/><path d="M0 0c1.341-.156 3.429-.351 5.488-.351 4.511 0 5.756.904 6.097 1.441.088.14.36.569-.094 1.53-.508 1.076-1.357 1.598-2.595 1.598C5.994 4.218 1.954 1.471 0 0m5.488-1.599c-3.514 0-6.989.532-7.135.555L-3-.834l1.045.884c.261.221 6.453 5.417 10.851 5.417 1.721 0 3.009-.799 3.725-2.313.496-1.049.502-1.968.018-2.732-.861-1.359-3.2-2.021-7.151-2.021" style="fill:#002f35;fill-opacity:1;fill-rule:nonzero;stroke:none" transform="translate(459.477 43.935)"/><path d="m0 0-1.204.329 2.73 9.949-9.503-3.795-.464 1.159 11.835 4.726z" style="fill:#002f35;fill-opacity:1;fill-rule:nonzero;stroke:none" transform="translate(455.466 32.185)"/><path d="m0 0-8.748 2.785.38 1.191L.379 1.19Z" style="fill:#002f35;fill-opacity:1;fill-rule:nonzero;stroke:none" transform="translate(459.95 40.127)"/><path d="m0 0-.902 7.59 1.24.146L1.24.145Z" style="fill:#002f35;fill-opacity:1;fill-rule:nonzero;stroke:none" transform="translate(455.146 37.855)"/><path d="M449.864 34.998h-1.249v8.51h1.249z" style="fill:#002f35;fill-opacity:1;fill-rule:nonzero;stroke:none"/><path d="m0 0-8.179 4.187.57 1.113L.57 1.112Z" style="fill:#002f35;fill-opacity:1;fill-rule:nonzero;stroke:none" transform="translate(452.306 37.371)"/><path d="M0 0c-.259 0-.5-.116-.736-.354-1.551-1.569-2.032-7.082-2.127-10.375C-.826-8.519 2.22-4.613 1.98-2.084 1.91-1.337 1.554-.763.891-.328.557-.111.256 0 0 0m-4.114-13.741-.015 1.449C-4.139-11.25-4.156-2.034-1.624.523c.878.886 2.015.967 3.198.193.989-.647 1.543-1.549 1.651-2.683.399-4.261-6.022-10.505-6.295-10.769z" style="fill:#002f35;fill-opacity:1;fill-rule:nonzero;stroke:none" transform="translate(563.699 55.794)"/><path d="M0 0c-1.239 0-2.088-.521-2.595-1.598-.454-.961-.183-1.388-.093-1.53.34-.537 1.586-1.44 6.095-1.44 2.063 0 4.149.194 5.491.35C6.942-2.747 2.902 0 0 0m3.408-5.816h-.001c-3.95 0-6.29.661-7.151 2.02-.483.764-.477 1.683.019 2.733C-3.01.45-1.722 1.249 0 1.249c4.398 0 10.59-5.196 10.851-5.417l1.047-.884-1.354-.21c-.146-.023-3.621-.554-7.136-.554" style="fill:#002f35;fill-opacity:1;fill-rule:nonzero;stroke:none" transform="translate(549.746 48.152)"/><path d="m0 0-3.394 12.368L8.44 7.642l-.463-1.159-9.502 3.795L1.204.329Z" style="fill:#002f35;fill-opacity:1;fill-rule:nonzero;stroke:none" transform="translate(562.654 32.185)"/><path d="m0 0-.38 1.19 8.747 2.786.379-1.191Z" style="fill:#002f35;fill-opacity:1;fill-rule:nonzero;stroke:none" transform="translate(558.17 40.127)"/><path d="m0 0-1.239.145.902 7.591 1.24-.146Z" style="fill:#002f35;fill-opacity:1;fill-rule:nonzero;stroke:none" transform="translate(562.972 37.855)"/><path d="M569.504 34.998h-1.249v8.51h1.249z" style="fill:#002f35;fill-opacity:1;fill-rule:nonzero;stroke:none"/><path d="m0 0-.569 1.112L7.609 5.3l.571-1.113Z" style="fill:#002f35;fill-opacity:1;fill-rule:nonzero;stroke:none" transform="translate(565.812 37.371)"/><path d="M452.258 86.526h-2.525v51.215h2.525zM566.999 86.526h-2.524v51.203h2.524z" style="fill:#000;fill-opacity:1;fill-rule:nonzero;stroke:none"/><path d="M0 0s-6.865 29.598-18.883 54.483c-3.238 6.708-7.426 12.446-11.814 17.273L-5.809 1.39Z" style="fill:#000;fill-opacity:1;fill-rule:nonzero;stroke:none" transform="translate(598.918 165.506)"/><path d="m0 0 12.326-34.851h5.979L0 16.904Z" style="fill:#000;fill-opacity:1;fill-rule:nonzero;stroke:none" transform="translate(567.369 201.774)"/><path d="M0 0h4.901L0 13.858Z" style="fill:#000;fill-opacity:1;fill-rule:nonzero;stroke:none" transform="translate(567.369 166.922)"/><path d="m0 0 .022 12.553L-4.418 0Z" style="fill:#000;fill-opacity:1;fill-rule:nonzero;stroke:none" transform="translate(449.244 166.68)"/><path d="m0 0-17.911-50.639h5.979L-.03-16.989z" style="fill:#000;fill-opacity:1;fill-rule:nonzero;stroke:none" transform="translate(449.332 217.318)"/><path d="M0 0c-4.109-4.571-9.552-12.206-12.603-18.418-12.015-24.464-19.78-54.193-19.78-54.193l6.805.583h.205L0-.291Z" style="fill:#000;fill-opacity:1;fill-rule:nonzero;stroke:none" transform="translate(449.37 238.707)"/><path d="m0 0-25.373-71.737h7.425L-.037-21.098z" style="fill:#000;fill-opacity:1;fill-rule:nonzero;stroke:none" transform="translate(449.37 238.416)"/><path d="M0 0h7.425l4.44 12.553.037 21.098z" style="fill:#000;fill-opacity:1;fill-rule:nonzero;stroke:none" transform="translate(437.4 166.68)"/><path d="m0 0-24.888 70.367c-.284.312-.566.633-.852.938V51.783L-7.435.027h7.322z" style="fill:#000;fill-opacity:1;fill-rule:nonzero;stroke:none" transform="translate(593.109 166.895)"/><path d="m0 0 4.901-13.858h7.425L0 20.993Z" style="fill:#000;fill-opacity:1;fill-rule:nonzero;stroke:none" transform="translate(567.369 180.78)"/><path d="M0 0c7.667 16.681 33.095 29.919 33.352 30.051l.539.276.927 4.782-2.452.476-.698-3.598C27.774 29.908 5.216 17.328-2.27 1.043c-5.702-12.405-15.16-38.004-20.001-51.344h2.657C-14.702-36.786-5.551-12.076 0 0" style="fill:#000;fill-opacity:1;fill-rule:nonzero;stroke:none" transform="translate(439.997 224.64)"/><path d="M0 0c-1.148 1.941-2.131 3.834-3.081 5.666-4.806 9.26-9.345 18.009-34.124 31.897l-.14 2.763-2.494-.127.21-4.146.605-.336C-14.371 22-9.964 13.507-5.298 4.515c.967-1.862 1.964-3.786 3.15-5.788C2.691-9.448 9.834-32.262 13.609-44.947h2.613C12.491-32.335 5.13-8.667 0 0" style="fill:#000;fill-opacity:1;fill-rule:nonzero;stroke:none" transform="translate(581.971 219.286)"/><path d="M0 0c-.973 1.777-2.071 3.552-3.233 5.428-4.999 8.076-11.801 19.07-18.16 45.728h-2.565c6.491-27.466 13.476-38.764 18.6-47.043C-4.213 2.265-3.132.519-2.19-1.2c4.122-7.514-.227-13.164-4.061-18.15a71.887 71.887 0 0 1-1.754-2.337c-2.719-3.836-12.391-3.555-15.887-3.125l-1.584.197.19-1.584a1.928 1.928 0 0 0-.488-1.314c-.637-.713-1.942-1.073-3.647-1.071-.985.006-4.334 1.859-6.039 25.436-.041.555-.072.987-.098 1.269-.295 3.417-5.896 21.327-6.133 22.089l-2.334 7.454-.715-52.779-11.33-.372-.104-1.095c-.097-1.031-2.366-25.395.031-35.017 1.998-8.015 12.08-8.335 18.754-8.547 2.094-.067 3.903-.124 4.849-.396 3.59-1.034 4.945-5.802 5.973-13.159.853-6.137-1.852-11.656-2.682-13.172l-3.901-1.055-.699 2.533-6.435-1.031-1.583-1.784h-7.04l-.059 1.443-17.464 1.976.251-3.117-5.034 1.01-.409 4.202-5.576 1.71-5.28-.387-.366-3.892-7.856 1.504.967 3.289-1.376.242c-1.406.245-2.328.711-2.816 1.425-.908 1.325-.449 3.637.036 6.085l.206 1.051c.83 4.414 2.566 21.898 2.645 22.762l.023 31.696h-21.827l.005-1.254c.001-.258.098-25.82 0-31.893-.081-5.002.918-10.839 1.973-17.018.271-1.579.544-3.177.802-4.781.394-2.446.128-4.38-.768-5.593-.865-1.173-2.054-1.353-2.089-1.358l-1.475-.169 1.358-4.619-7.761-2.36v4.85l-5.826.418-4.515-1.222v-4.626l-6.588-1.14v3.289l-1.52-.337c-1.519-.339-11.013-1.285-14.543-1.621l-1.13-.107v-1.458h-6.951l-2.243 2.799-5.872-.198-.64-2.32-3.999 1.081c-.647.948-2.821 4.893-2.625 14.865.222 11.231 6.899 11.908 16.141 12.844l.46.047c10.193 1.037 12.788 7.065 12.894 7.321l.094.228v36.093h-13.097V26.8l-7.388-24.448-.052-.289c-.409-6.937-2.1-25.813-4.977-29.792-.954-1.32-1.712-1.288-1.957-1.275-1.702.072-3.645 2.686-4.193 3.595l-.531.885-.967-.353c-5.451-1.986-13.102 1.229-14.654 1.932-1.036 1.474-6.019 8.609-8.511 12.945-2.2 3.827 6.191 17.211 10.699 24.401.536.855 1.041 1.66 1.499 2.4 4.429 7.156 9.668 29.058 10.893 34.355h-2.566c-1.413-6.021-6.416-26.52-10.45-33.041-.456-.736-.959-1.537-1.492-2.387-7.218-11.512-13.471-22.236-10.749-26.971 2.836-4.935 8.586-13.072 8.829-13.416l.184-.261.287-.141c.379-.184 9.006-4.345 15.937-2.462.977-1.368 3.104-3.864 5.673-3.976 1.076-.043 2.653.315 4.093 2.308 3.759 5.198 5.242 27.718 5.437 30.961l2.458 8.132v-37.85h13.097v-33.063c-.488-.911-3.013-4.809-10.743-5.595l-.459-.047c-9.319-.945-18.12-1.838-18.386-15.282-.251-12.694 3.118-16.493 3.503-16.884l.237-.242 7.128-1.926.812 2.943 2.787.094 2.211-2.757h10.646v1.686c2.698.26 9.069.891 12.199 1.315v-3.235l11.582 2.003v4.816l2.263.612 3.084-.22v-5.897l13.352 4.064-1.29 4.385a6.01 6.01 0 0 1 2.363 1.88c1.361 1.795 1.789 4.331 1.273 7.538-.259 1.613-.534 3.218-.805 4.805-1.037 6.061-2.016 11.786-1.939 16.556.086 5.316.023 25.447.005 30.69h16.82l-.014-29.073c-.017-.181-1.798-18.118-2.61-22.423l-.2-1.029c-.563-2.848-1.148-5.791.354-7.983.684-.998 1.702-1.708 3.092-2.149l-.98-3.331 13.258-2.535.426 4.522 2.707.199 3.536-1.086.428-4.387 10.094-2.024-.273 3.395 12.323-1.396.069-1.698h10.56l1.736 1.957 3.347.535.763-2.773 7.274 1.967.26.416c.18.287 4.4 7.145 3.27 15.248-.953 6.843-2.337 13.655-7.754 15.215-1.248.359-3.106.418-5.463.493-6.272.199-14.867.471-16.408 6.656-2.015 8.094-.481 28.174-.064 33.082l11.508.379.533 39.354C-40.035 6.1-38.194-.389-38.045-2.096c.025-.273.054-.693.093-1.232 1.388-19.164 4.013-27.724 8.514-27.754 2.524.004 4.382.623 5.525 1.906.528.59.813 1.218.964 1.765 3.545-.278 13.531-.593 16.982 4.28a71.849 71.849 0 0 0 1.695 2.259C-.399-15.839 4.905-8.943 0 0" style="fill:#000;fill-opacity:1;fill-rule:nonzero;stroke:none" transform="translate(610.507 112.85)"/><path d="m0 0 23.333 18.222L27.111 12S15.556 3.778 0 0" style="fill:#0d0c08;fill-opacity:1;fill-rule:nonzero;stroke:none" transform="translate(520.258 241.394)"/><path d="m0 0-23.333 18.222L-27.111 12S-15.556 3.778 0 0" style="fill:#0d0c08;fill-opacity:1;fill-rule:nonzero;stroke:none" transform="translate(498.59 241.394)"/><path d="m0 0-.437 1.56c-.069.245-.368 1.308-.84 2.951h-32.347V-.656h21.759l-.115.479z" style="fill:#000;fill-opacity:1;fill-rule:nonzero;stroke:none" transform="translate(600.98 164.661)"/><path d="M0 0h-2.654c-.737-2.051-1.17-3.267-1.195-3.337l-.591-1.667H8.571l-.038-.163H30.758V0Z" style="fill:#000;fill-opacity:1;fill-rule:nonzero;stroke:none" transform="translate(418.513 169.172)"/></g><g clip-path="url(#s)" transform="matrix(1.546 0 0 -1.546 -588.342 835.721)"><path d="m0 0-47.888.313-.046-7.434 47.888-.313z" style="fill:#000100;fill-opacity:1;fill-rule:nonzero;stroke:none" transform="translate(457.955 174.62)"/><path d="m0 0-47.888.313-.007-1.094 47.888-.313z" style="fill:#bb9221;fill-opacity:1;fill-rule:nonzero;stroke:none" transform="translate(457.96 172.073)"/><path d="m0 0-65.825.369" style="fill:none;stroke:#393939;stroke-width:9;stroke-linecap:butt;stroke-linejoin:miter;stroke-miterlimit:4;stroke-dasharray:.2,.8;stroke-dashoffset:0;stroke-opacity:1" transform="translate(468.927 171.461)"/><path d="m0 0-47.888.313-.046-7.434 47.888-.313z" style="fill:none;stroke:#484848;stroke-width:.329;stroke-linecap:butt;stroke-linejoin:round;stroke-miterlimit:10;stroke-dasharray:none;stroke-opacity:1" transform="translate(457.955 174.62)"/></g><g clip-path="url(#t)" transform="matrix(1.546 0 0 -1.546 -588.342 835.721)"><path d="M0 0v-25.952s37.279-17.399 69.593 0V2.472Z" style="fill:#911e23;fill-opacity:1;fill-rule:nonzero;stroke:none" transform="translate(473.297 279.339)"/><path d="M0 0c-5.077 4.925-5.452-1.69-5.306-5.453-2.151 21.478-22.221 47.281-25.529 51.106-3.427 3.962-15.416-4.755-14.561-14.265.857-9.509-9.421-23.773-19.699-27.517-10.277-3.745-31.692 46.537-39.399 64.763-7.709 18.227-15.416 15.85-15.416 15.85s-7.71 2.377-15.419-15.85c-7.708-18.226-29.12-68.508-39.399-64.763-10.278 3.744-20.555 18.008-19.699 27.517.857 9.51-11.135 18.227-14.561 14.265-3.308-3.825-23.376-29.628-25.529-51.106.146 3.763-.229 10.378-5.305 5.453-6.852-6.649-16.274-49.245 0-80.349 0 0 17.13-17.829 16.273-31.103-.856-13.275-8.564-34.672-3.426-52.105 5.14-17.435 25.696-39.716 74.516-46.01 0 0 20.557-7.535 32.549-7.535 11.989 0 32.547 7.535 32.547 7.535 48.82 6.294 69.377 28.575 74.515 46.01 5.14 17.433-2.57 38.83-3.427 52.105C-17.131-98.178 0-80.349 0-80.349 16.274-49.245 6.852-6.649 0 0" style="fill:#d80010;fill-opacity:1;fill-rule:nonzero;stroke:none" transform="translate(631.202 454.756)"/><path d="M0 0s31.476 42.228 64.571 0c0 0-14.879 32.323-15.873 34.67-.995 2.347-5.717 18.197-16.411 18.197-10.697 0-15.133-15.226-17.076-19.757C13.268 28.579 0 0 0 0" style="fill:#000;fill-opacity:1;fill-rule:nonzero;stroke:none" transform="translate(479.005 486.373)"/><path d="M0 0s-16.782 10.467-32.99-2.807c0 0 8.768 20.01 16.884 25.557 8.116 5.547 13.813-6.207 14.188-10.236C-1.544 8.485 0 0 0 0" style="fill:#000;fill-opacity:1;fill-rule:nonzero;stroke:none" transform="translate(438.32 477.659)"/><path d="M0 0s2.627 8.282-1.339 6.867C-5.305 5.453-15.458 1.015-13.624-46.45c0 0 3.419 31.782 10.816 34.951z" style="fill:#000;fill-opacity:1;fill-rule:nonzero;stroke:none" transform="translate(396.685 449.303)"/><path d="M0 0s16.781 10.467 32.989-2.807c0 0-8.767 20.01-16.883 25.557C7.99 28.297 2.291 16.543 1.918 12.514 1.545 8.485 0 0 0 0" style="fill:#000;fill-opacity:1;fill-rule:nonzero;stroke:none" transform="translate(584.53 477.659)"/><path d="M0 0s-2.626 8.282 1.34 6.867C5.305 5.453 15.459 1.015 13.625-46.45c0 0-3.42 31.782-10.816 34.951z" style="fill:#000;fill-opacity:1;fill-rule:nonzero;stroke:none" transform="translate(626.164 449.303)"/><path d="M0 0s-.529.963-1.358 2.019c2.623 1.857 4.919 5.659 1.3 14.095C5.924 5.668 2.38 1.53 0 0m-35.91 29.077c-.683 0-2.125-.277-2.937-.635.996 1.397 2.399 3.951 2.937 5.703.525-1.752 1.936-4.306 2.926-5.703-.8.358-2.249.635-2.926.635M-71.681 0c-2.377 1.53-5.929 5.668.054 16.114-3.621-8.436-1.314-12.238 1.294-14.095C-71.162.963-71.681 0-71.681 0M3.793 20.54c-1.743 3.689-.355 9.142.365 9.68-4.663-1.755-5.362-6.765-5.184-8.991-1.562 3.039-4.013 6.793-4.435 11.476-.039.45-.073.896-.073 1.36v.029c0 3.564 1.537 5.631 3.633 6.631-5.026-.008-7.247-4.055-7.44-6.52-1.798 2.901-4.742 5.318-5.782 8.185a6.027 6.027 0 0 0-.385 1.831c-.048.956.164 3.694 2.448 5.115-3.103-.54-4.393-2.568-4.887-4.682a9.967 9.967 0 0 1-.205-1.277c-.039-.351-.047-.672-.055-.987a4.456 4.456 0 0 1-.011-.621c.066-3.015 1.285-5.77 2.325-7.704.553-1.025 1.069-1.809 1.328-2.272a17.654 17.654 0 0 0-1.999 2.272c-1.794 2.449-2.887 5.331-2.975 8.228-.041.032-.065.069-.104.097-.345.298-.667.605-.981.904-.466.455-.876.913-1.273 1.36-3.827 4.414-3.927 8.296-2.435 11.08-.009-.022-.026-.037-.036-.052-1.263-1.209-2.063-2.86-2.487-4.471a10.534 10.534 0 0 1-.386-2.751c0-11.66 14.102-14.939 14.102-25.851 4.712-.028 5.683-3.531 5.647-4.719-.044-1.358-.687-3.166-2.63-4.158 3.588 0 4.946-2.365 4.946-4.211 0-1.994-1.571-3.471-3.482-3.471-2.795 0-3.783 2.425-3.277 3.54-.155-.927.823-2.658 2.502-2.584 2.196.095 2.677 1.868 2.633 2.68-.163 3.043-2.579 3.656-4.444 3.583-1.748-.068-3.634.17-4.264 1.748 1.125-1.31 2.874-1.174 3.871-.966.903.181 2.666 1.426 2.398 3.722-.351 3.105-3.498 3.986-5.131 3.709 0 12.425-16.746 15.816-16.746 23.006 0 1.859 1.739 3.63 2.141 4.031-3.625-1.828-4.151-4.53-4.151-6.242 0-10.258 11.727-13.477 11.727-20.541 0-2.912-1.754-3.823-2.647-4.257.312.443.442 1.301.432 1.986-.024 2.042-1.52 3.608-3.404 3.824-2.033.224-4.869-1.53-4.562-5.674.113-1.479.978-4.277 3.367-5.971a4.122 4.122 0 0 1-.75-2.383c0-.358.054-.689.136-1.015a10.908 10.908 0 0 1-2.895 1.983c1.096.769 1.935 2.008 1.935 2.008-1.505 1.173-3.444 3.354-3.444 6.715 0 4.337 3.195 6.166 5.649 6.003 2.266-.157 4.178-1.786 4.449-3.936.587 3.644-3.559 6.662-6.68 10.214-3.418 3.89-5.752 9.343-3.062 14.287-.98-.886-2.541-3.227-2.961-4.621-.407 1.394-1.978 3.735-2.947 4.621 2.689-4.944.358-10.397-3.067-14.287-3.118-3.552-7.261-6.57-6.67-10.214.273 2.15 2.172 3.779 4.44 3.936 2.453.163 5.655-1.666 5.655-6.003 0-3.361-1.949-5.542-3.441-6.715 0 0 .84-1.239 1.925-2.008a10.964 10.964 0 0 1-2.892-1.983c.084.326.143.657.143 1.015 0 .902-.292 1.721-.765 2.383 2.398 1.694 3.263 4.492 3.373 5.971.301 4.144-2.532 5.898-4.56 5.674-1.888-.216-3.375-1.782-3.409-3.824-.008-.685.114-1.543.427-1.986-.885.434-2.627 1.345-2.627 4.257 0 7.064 11.712 10.283 11.712 20.541 0 1.712-.526 4.414-4.146 6.242.402-.401 2.142-2.172 2.142-4.031 0-7.19-16.745-10.581-16.745-23.006-1.632.277-4.775-.604-5.132-3.709-.262-2.296 1.511-3.541 2.395-3.722 1.01-.208 2.749-.344 3.868.966-.623-1.578-2.508-1.816-4.27-1.748-1.843.073-4.269-.54-4.432-3.583-.042-.812.449-2.585 2.633-2.68 1.679-.074 2.666 1.657 2.503 2.584.502-1.115-.482-3.54-3.266-3.54-1.919 0-3.49 1.477-3.49 3.471 0 1.846 1.365 4.211 4.942 4.211-1.934.992-2.582 2.8-2.629 4.158-.036 1.188.933 4.691 5.646 4.719 0 10.912 14.102 14.191 14.102 25.851 0 .837-.12 1.787-.383 2.751-.422 1.597-1.226 3.224-2.45 4.441-.025.024-.048.055-.071.082 1.487-2.784 1.377-6.666-2.451-11.08-.55-.629-1.17-1.27-1.883-1.926l-.355-.338c-.038-.028-.071-.065-.108-.097-.081-2.897-1.183-5.779-2.972-8.228a17.561 17.561 0 0 0-1.997-2.272c.254.463.763 1.247 1.328 2.272 1.043 1.934 2.257 4.689 2.323 7.704.004.198-.015.413-.015.621a11.503 11.503 0 0 1-.186 1.912c-.022.117-.047.232-.073.352-.5 2.114-1.784 4.142-4.872 4.682 2.281-1.421 2.476-4.159 2.438-5.115-.034-.635-.18-1.239-.38-1.831-1.057-2.867-3.995-5.284-5.788-8.185-.188 2.465-2.395 6.512-7.435 6.52 2.092-1 3.627-3.067 3.627-6.631v-.015c-.006-5.34-2.801-9.527-4.51-12.85.185 2.226-.508 7.236-5.191 8.991.734-.538 2.117-5.991.379-9.68-3.439-7.271-7.605-10.014-7.2-16.799.275-4.435 3.016-9.317 9.108-11.026-.258-6.2 3.777-9.387 7.434-10.48 1.004-.297 1.979-.455 2.837-.455 4.039 0 6.396 2.182 7.418 3.309-.267-1.473-3.625-5.677-8.997-4.631 2.911-3.645 6.769-3.777 8.127-3.754-.01-.307-.02-.62-.02-.942 0-5.054 1.777-9.686 4.751-13.323a21.295 21.295 0 0 1 3.99-3.754 20.973 20.973 0 0 1 12.315-3.98c4.605 0 8.859 1.485 12.328 3.992a20.964 20.964 0 0 1 4.002 3.781 20.955 20.955 0 0 1 4.718 13.284c0 .322-.005.628-.016.942 1.552.008 5.118.343 7.84 3.754-5.379-1.046-8.728 3.158-8.989 4.631 1.022-1.127 3.373-3.309 7.417-3.309.873 0 1.885.165 2.919.478 3.631 1.121 7.595 4.315 7.345 10.457 6.092 1.709 8.833 6.591 9.101 11.026.403 6.785-3.753 9.528-7.192 16.799" style="fill:#c09b0f;fill-opacity:1;fill-rule:nonzero;stroke:none" transform="translate(547.12 400.325)"/><path d="M0 0c.456 0 .83.366.83.821a.824.824 0 0 1-.83.814.82.82 0 0 1-.836-.814C-.836.366-.472 0 0 0" style="fill:#fff;fill-opacity:1;fill-rule:nonzero;stroke:none" transform="translate(500.989 408.935)"/><path d="M0 0c.821.023 1.954.247 2.968 1.068A3.389 3.389 0 0 0 1.76.838c-1.892 0-3.431 1.515-3.431 3.382 0 .322.053.627.147.917a5.557 5.557 0 0 0-2.677 1.195c-.152-.318-.331-1.233-.322-1.978C-4.483 1.256-1.655-.029 0 0" style="fill:#fff;fill-opacity:1;fill-rule:nonzero;stroke:none" transform="translate(499.219 405.537)"/><path d="M0 0a.817.817 0 1 1 0 1.635.82.82 0 0 1-.829-.814C-.829.366-.461 0 0 0" style="fill:#fff;fill-opacity:1;fill-rule:nonzero;stroke:none" transform="translate(521.598 408.935)"/><path d="M0 0c.017.744-.157 1.659-.312 1.977A5.344 5.344 0 0 0-2.979.782c.084-.29.14-.595.14-.917 0-1.867-1.539-3.382-3.439-3.382-.429 0-.83.09-1.207.23 1.016-.821 2.151-1.045 2.962-1.067C-2.856-4.384-.032-3.099 0 0" style="fill:#fff;fill-opacity:1;fill-rule:nonzero;stroke:none" transform="translate(527.877 409.892)"/><path d="M0 0s1.363 2.563-.007 6.02C.601-.32-4.985-4.24-10.515-1.477c.08-.635.13-1.3.13-2.01 0-1.417-.546-4.083-3.309-4.083-.839 0-1.8.416-2.444.939-.071 1.255.624 4.245 3.305 3.144-.368.73-1.139 1.036-1.936 1.036-.877 0-1.815-.825-2.282-2.232-.611-1.888-2.053-3.27-3.774-3.27-1.724 0-3.16 1.382-3.778 3.27-.466 1.407-1.403 2.232-2.275 2.232-.795 0-1.574-.306-1.937-1.036 2.683 1.101 3.372-1.889 3.301-3.144-.645-.523-1.599-.939-2.438-.939-2.772 0-3.322 2.666-3.322 4.083 0 .71.058 1.375.136 2.01C-36.662-4.24-42.248-.32-41.637 6.02c-1.381-3.457-.02-6.02-.02-6.02-6.47.581-9.333-4.114-9.333-7.129 0-3.019 2.478-4.959 4.51-5.116 2.517-.186 4.757 1.748 3.783 4.503.335-2.78-2.007-3.377-3.144-3.377-.975 0-3.348.86-3.348 3.927 0 3.061 3.348 5.35 6.301 5.141 4.756-.332 7.372-4.721 6.862-8.841.308-.561 2.3-4.049 6.289-4.049 4.685 0 5.686 3.689 8.912 3.689 3.228 0 4.221-3.689 8.924-3.689 3.982 0 5.966 3.488 6.28 4.049-.517 4.12 2.104 8.509 6.861 8.841 2.947.209 6.307-2.08 6.307-5.141 0-3.067-2.384-3.927-3.354-3.927-1.133 0-3.475.597-3.141 3.377-.978-2.755 1.267-4.689 3.784-4.503 2.028.157 4.506 2.097 4.506 5.116C9.342-4.114 6.472.581 0 0" style="fill:#fff;fill-opacity:1;fill-rule:nonzero;stroke:none" transform="translate(532.117 403.11)"/><path d="M0 0c-.904.873-1.218 3.19.641 4.353 3.014.882 4.868 3.211 6.311 3.376l-.004-5.654C4.288.701 1.926-1.024-.269-3.207c-.163.063-5.579 1.803-5.76 1.855A12.006 12.006 0 0 0-6.214.71c0 1.328.217 2.569.445 3.836 0 0 .033.204.06.413a7.835 7.835 0 0 1 1.496-.532c0-.021-.024-.029-.024-.046C-4.551 2.948-3.303-.045 0 0" style="fill:#fff;fill-opacity:1;fill-rule:nonzero;stroke:none" transform="translate(504.179 382.084)"/><path d="M0 0c0 .017-.007.025-.01.045a7.509 7.509 0 0 1 1.825.71c.051-.267.1-.62.1-.62.211-1.238.415-2.442.415-3.742 0-.685-.064-1.403-.204-2.173-.181-.051-5.496-1.76-5.655-1.82a28.367 28.367 0 0 1-7.26 5.293v5.562C-9.398 2.772-7.619.77-4.875-.029c1.858-1.162 1.537-3.48.639-4.352C-.985-4.427.317-1.434 0 0" style="fill:#fff;fill-opacity:1;fill-rule:nonzero;stroke:none" transform="translate(522.638 386.465)"/><path d="M0 0c-.088-.117-3.423-4.741-3.535-4.89-2.236.335-3.888 1.239-5.476 2.114l-.939.515a17.123 17.123 0 0 0-2.161 6.715c.044.08.391.811.391.811.78 1.658 1.576 3.378 3.239 4.998.174-.061 5.618-1.809 5.771-1.862C-2.238 5.453-1.342 2.706 0 0" style="fill:#fff;fill-opacity:1;fill-rule:nonzero;stroke:none" transform="translate(506.44 369.776)"/><path d="M0 0a27.582 27.582 0 0 1 8.911.008c.096-.129 3.087-4.28 3.087-4.28s.301-.412.428-.572c-1.015-2.055-2.375-3.348-3.683-4.589l-.741-.716a20.026 20.026 0 0 0-3.554-.343c-1.203 0-2.434.135-3.642.383-.079.08-.688.67-.688.67l-1.837 1.852c-.799.918-1.363 1.768-1.82 2.711C-3.433-4.721-.096-.133 0 0" style="fill:#fff;fill-opacity:1;fill-rule:nonzero;stroke:none" transform="translate(507.021 369.344)"/><path d="M0 0c1.354 2.622 2.267 5.372 2.78 8.401.159.053 5.474 1.756 5.656 1.817a10.573 10.573 0 0 0 1.53-1.86c.714-1.054 1.233-2.16 1.682-3.16l.442-.932a17.162 17.162 0 0 0-2.216-6.587c-.02.009-.888-.455-.888-.455-1.595-.858-3.25-1.755-5.463-2.091L0 0" style="fill:#fff;fill-opacity:1;fill-rule:nonzero;stroke:none" transform="translate(516.51 369.776)"/><path d="M0 0s-.12-.897-.195-1.435a19.93 19.93 0 0 0-2.518 4.779c-.706 1.988-1.064 4.088-1.102 6.243.927-1.037 1.724-1.604 1.953-1.752A17.612 17.612 0 0 1 .335 1.141C.304 1.031 0 0 0 0" style="fill:#fff;fill-opacity:1;fill-rule:nonzero;stroke:none" transform="translate(495.5 366.118)"/><path d="M0 0c-1.989 0-3.956.322-5.85.905 1.325.58 2.115 1.171 2.281 1.306A17.696 17.696 0 0 1 0 1.853c1.226 0 2.419.124 3.566.358.164-.135.936-.726 2.271-1.301A19.577 19.577 0 0 0 0 0" style="fill:#fff;fill-opacity:1;fill-rule:nonzero;stroke:none" transform="translate(511.47 356.284)"/><path d="M0 0c-.145 1.424-.46 2.351-.529 2.545a17.783 17.783 0 0 1 2.186 6.676c.346.222 1.098.798 1.958 1.739A19.371 19.371 0 0 0 0 0" style="fill:#fff;fill-opacity:1;fill-rule:nonzero;stroke:none" transform="translate(527.622 364.7)"/><path d="M0 0c2.637-1.335 4.961-3.023 7.103-5.129-.527-3.027-1.42-5.749-2.748-8.314-2.943-.467-5.807-.483-8.725-.021a27.613 27.613 0 0 0-2.699 8.335A27.605 27.605 0 0 0 0 0" style="fill:#231916;fill-opacity:1;fill-rule:nonzero;stroke:none" transform="translate(511.499 383.517)"/><path d="M0 0c1.247.344 2.277.424 2.823.433.019-.009.044-.017.061-.029-.042-.24-.107-.644-.107-.644-.228-1.262-.46-2.545-.46-3.971 0-.701.069-1.45.215-2.241C.797-8.148-.012-9.851-.856-11.65l-.298-.606a11.067 11.067 0 0 0-2.138 2.108A20.116 20.116 0 0 0 0 0" style="fill:#231916;fill-opacity:1;fill-rule:nonzero;stroke:none" transform="translate(494.924 387.005)"/><path d="M0 0c.039 0 .249 1.926.249 1.926s.175.655.264.97c.208-.106.649-.349.649-.349C2.796 1.642 4.512.709 6.903.35c.415-.865.923-1.655 1.611-2.493l1.925-2.042.278-.267s.349-.321.533-.506c-.378-.269-1.276-.847-2.633-1.322C5.235-5.035 2.268-2.86 0 0" style="fill:#231916;fill-opacity:1;fill-rule:nonzero;stroke:none" transform="translate(495.922 363.819)"/><path d="M0 0a12.37 12.37 0 0 0-2.594 1.353c.168.177.519.522.519.522C-.633 3.254.712 4.555 1.753 6.669c2.368.343 4.085 1.276 5.745 2.181 0 0 .449.243.654.357.163-.509.443-1.559.479-3.01C6.372 3.418 3.387 1.239 0 0" style="fill:#231916;fill-opacity:1;fill-rule:nonzero;stroke:none" transform="translate(518.344 357.516)"/><path d="M0 0c-.099.207-.283.604-.283.604-.633 1.382-1.194 2.525-2.031 3.695 0 0-1.164 1.375-1.312 1.539.151.83.216 1.599.216 2.339 0 1.345-.199 2.574-.417 3.858 0 0-.073.429-.122.673h.047c.411-.007 1.516-.065 2.931-.515A19.931 19.931 0 0 0 2.151 2.061 10.767 10.767 0 0 0 0 0" style="fill:#231916;fill-opacity:1;fill-rule:nonzero;stroke:none" transform="translate(529.098 374.676)"/><path d="M0 0s26.098-4.299 32.888 7.529c6.79 11.828 4.902 40.491-16.766 41.246-21.669.754-27.934-25.225-27.934-25.225S-19.577.037 0 0" style="fill:#fff;fill-opacity:1;fill-rule:nonzero;stroke:none" transform="translate(551.966 306.255)"/><path d="M0 0s-3.834-15.582 13.204-15.582c0 0-16.013 1.766-13.204 15.582" style="fill:#000;fill-opacity:1;fill-rule:nonzero;stroke:none" transform="translate(538.761 321.837)"/><path d="M0 0s7.446 32.962 33.597 27.774C59.747 22.584 51.03-9.51 51.03-9.51l6.408-3.962-16.709-4.359s9.489 9.305 5.547 25.755C42.334 24.375 29.88 29.717 16.482 21.792 3.088 13.868 0 0 0 0" style="fill:#000;fill-opacity:1;fill-rule:nonzero;stroke:none" transform="translate(539.369 327.256)"/><path d="M0 0s-3.642 16.939 7.849 26.25c11.491 9.312 23.972 2.973 27.143-2.971 3.168-5.944 5.743-25.893-9.51-30.282C25.482-7.003 7.602-10.4 0 0" style="fill:#d80010;fill-opacity:1;fill-rule:nonzero;stroke:none" transform="translate(540.154 312.495)"/><path d="M0 0c0-8.155-6.61-14.765-14.764-14.765-8.156 0-14.765 6.61-14.765 14.765 0 8.155 6.609 14.766 14.765 14.766C-6.61 14.766 0 8.155 0 0" style="fill:#000;fill-opacity:1;fill-rule:nonzero;stroke:none" transform="translate(570.098 321.312)"/><path d="M0 0a5.151 5.151 0 1 0-10.302 0A5.151 5.151 0 0 0 0 0" style="fill:#fff;fill-opacity:1;fill-rule:nonzero;stroke:none" transform="translate(551.966 322.897)"/><path d="M0 0s-26.097-4.299-32.887 7.529c-6.789 11.828-4.903 40.491 16.766 41.246 21.669.754 27.934-25.225 27.934-25.225S19.577.037 0 0" style="fill:#fff;fill-opacity:1;fill-rule:nonzero;stroke:none" transform="translate(467.574 306.255)"/><path d="M0 0s3.706-15.998-13.332-15.998c0 0 16.141 2.181 13.332 15.998" style="fill:#000;fill-opacity:1;fill-rule:nonzero;stroke:none" transform="translate(480.906 322.253)"/><path d="M0 0s-7.447 32.962-33.598 27.774C-59.749 22.584-51.032-9.51-51.032-9.51l-6.407-3.962 16.71-4.359s-9.491 9.305-5.548 25.755c3.942 16.451 16.397 21.793 29.793 13.868C-3.088 13.868 0 0 0 0" style="fill:#000;fill-opacity:1;fill-rule:nonzero;stroke:none" transform="translate(480.172 327.256)"/><path d="M0 0s3.641 16.939-7.85 26.25c-11.49 9.312-23.972 2.973-27.142-2.971-3.17-5.944-5.745-25.893 9.511-30.282C-25.481-7.003-7.603-10.4 0 0" style="fill:#d80010;fill-opacity:1;fill-rule:nonzero;stroke:none" transform="translate(479.386 312.495)"/><path d="M0 0c0-8.155 6.61-14.765 14.765-14.765 8.154 0 14.765 6.61 14.765 14.765 0 8.155-6.611 14.766-14.765 14.766C6.61 14.766 0 8.155 0 0" style="fill:#000;fill-opacity:1;fill-rule:nonzero;stroke:none" transform="translate(449.442 321.312)"/><path d="M0 0a5.15 5.15 0 1 1 10.302 0A5.15 5.15 0 0 1 0 0" style="fill:#fff;fill-opacity:1;fill-rule:nonzero;stroke:none" transform="translate(467.574 322.897)"/><path d="M0 0c-1.117.121-15.296 2.452-15.296 2.452S-29.475.121-30.592 0c-1.118-.123-11.682-3.425-11.682-3.425s9.118-14.132 26.978-14.132S11.683-3.425 11.683-3.425 1.117-.123 0 0" style="fill:#fff;fill-opacity:1;fill-rule:nonzero;stroke:none" transform="translate(526.427 279.038)"/><path d="M0 0c.002-1.861.41-3.763 1.317-5.382a6.93 6.93 0 0 1 4.211-3.339c1.783-.511 3.668-.408 5.522-.094a45.63 45.63 0 0 1 5.501 1.218c3.621 1.025 7.135 2.463 10.831 3.471 3.685 1.032 7.532 1.548 11.367 1.586v-1.249c-3.743.046-7.479-.369-11.115-1.3-3.641-.904-7.193-2.264-10.888-3.224a46.645 46.645 0 0 0-5.615-1.111c-1.871-.274-3.874-.349-5.743.236a7.361 7.361 0 0 0-4.386 3.631C.094-3.841-.273-1.904-.233.011z" style="fill:#000;fill-opacity:1;fill-rule:nonzero;stroke:none" transform="translate(472.382 284.853)"/><path d="M0 0c3.818-.034 7.677-.547 11.362-1.577 3.697-1.005 7.212-2.441 10.833-3.463a45.858 45.858 0 0 1 5.503-1.213c1.857-.313 3.726-.413 5.508.098a6.9 6.9 0 0 1 4.192 3.328c.903 1.612 1.309 3.514 1.309 5.366l.304.014c.038-1.923-.332-3.862-1.244-5.584a7.393 7.393 0 0 0-4.405-3.641c-1.871-.586-3.89-.509-5.758-.232a46.78 46.78 0 0 0-5.613 1.115c-3.696.963-7.246 2.326-10.886 3.233-3.637.933-7.362 1.35-11.12 1.307z" style="fill:#000;fill-opacity:1;fill-rule:nonzero;stroke:none" transform="translate(511.139 282.313)"/><path d="M0 0s26.082 8.023 46.994 0c0 0-8.666-10.005-23.496-10.005C8.669-10.005 0 0 0 0" style="fill:#000;fill-opacity:1;fill-rule:nonzero;stroke:none" transform="translate(487.634 271.486)"/><path d="M0 0s18.308 11.789 38.797 0c0 0-7.307-6.44-19.363-6.44S0 0 0 0" style="fill:#b21e24;fill-opacity:1;fill-rule:nonzero;stroke:none" transform="translate(491.697 267.922)"/><path d="M0 0s11.905 9.54 26.709 0C26.709 0 12.11 4.256 0 0" style="fill:#911e23;fill-opacity:1;fill-rule:nonzero;stroke:none" transform="translate(496.855 305.493)"/><path d="M0 0s5.769-16.612 1.543-27.923c0 0 1.308 16.351-1.543 27.923" style="fill:#911e23;fill-opacity:1;fill-rule:nonzero;stroke:none" transform="translate(628.487 439.792)"/><path d="M0 0s-3.435-12.248 0-25.935C0-25.935-1.309-5.357 0 0" style="fill:#911e23;fill-opacity:1;fill-rule:nonzero;stroke:none" transform="translate(393.877 437.804)"/><path d="M0 0c-2.516 0-4.565-2.266-5.925-6.552-3.072-9.686-12.104-49.443-.157-66.987l.668-.981c11.991-17.606 20.655-30.326 18.697-41.687-.298-1.731-.739-3.818-1.249-6.234-2.705-12.803-7.231-34.231.565-47.399 11.435-19.311 34.078-31.828 69.222-38.264l.181-.047c.241-.083 24.178-8.281 34.098-8.281 9.929 0 33.171 7.565 33.403 7.642l.23.051c.44.056 44.169 5.895 60.333 25.68 16.547 20.254 14.429 33.461 11.497 51.742-3.181 19.838-2.985 32.653 7.134 43.547 9.439 10.16 15.414 27.948 14.871 44.263-.918 27.568-5.059 43.379-11.362 43.379a4.834 4.834 0 0 1-1.656-.32l-1.22-.448-.399 1.237c-3.829 11.89-16.23 43.031-27.46 44.335-.513.059-1.012.09-1.478.09-6.978 0-7.874-6.613-8.322-15.258-.169-3.289-.317-6.129-1.242-7.792-2.541-4.567-10.273-18.465-22.013-19.59l-.448-.043-.372.253c-.498.336-12.319 8.589-25.172 38.019a1983.003 1983.003 0 0 0-4.234 9.788c-9.052 21.018-14.037 32.596-20.935 32.596-.321 0-.648-.024-.982-.071-7.892-1.112-9.863-5.434-17.198-21.515-.814-1.784-1.691-3.705-2.644-5.773l-.616-1.335C83.101 26.482 71.84 3.532 62.778 1.876l-.324-.059-.313.109c-.456.16-11.228 4.009-15.754 12.056-2.718 4.832-4.304 11.749-5.578 17.308-.735 3.206-1.429 6.233-2.044 7.28l-.225.383c-1.311 2.247-4.04 6.923-6.905 6.923-.708 0-1.412-.283-2.152-.864C24.99 41.483 14.468 33.219 3.531.331l-.469-1.412-1.309.707S1.014 0 0 0m116.1-218.929c-10.125 0-32.953 7.746-34.821 8.385-35.844 6.578-59.013 19.478-70.828 39.432-8.292 14.004-3.64 36.028-.861 49.186.506 2.392.942 4.458 1.232 6.144 1.786 10.365-6.639 22.735-18.3 39.856l-.669.982c-12.303 18.067-4.027 56.95-.158 69.147 2.671 8.423 7.489 8.671 9.868 8.112 11.034 32.61 21.763 41.037 26.377 44.661 1.181.927 2.424 1.397 3.695 1.397 4.299 0 7.398-5.309 9.063-8.161l.22-.376c.811-1.379 1.479-4.296 2.326-7.988 1.238-5.402 2.779-12.124 5.32-16.641C52.225 8.698 60.873 5.088 62.647 4.403c8.541 2.216 21.974 31.338 30.9 50.688l.616 1.336c.953 2.064 1.827 3.981 2.639 5.762 7.387 16.194 9.875 21.649 19.123 22.952.448.064.897.095 1.33.095 8.542 0 13.45-11.398 23.228-34.105 1.316-3.056 2.72-6.316 4.23-9.776 11.298-25.868 21.898-35.084 23.937-36.688 6.758.892 13.348 7.033 19.597 18.264.644 1.156.783 3.852.93 6.707.364 7.018.912 17.626 10.816 17.626a15.3 15.3 0 0 0 1.765-.107c13.932-1.617 26.786-37.824 29.174-44.912.431.082.857.125 1.274.125 8.183 0 12.846-15.408 13.859-45.795.572-17.194-5.526-35.268-15.537-46.045-9.477-10.201-9.623-21.963-6.499-41.452 3.035-18.923 5.226-32.595-12.029-53.718-16.532-20.233-58.754-26.154-61.831-26.56-1.981-.645-23.999-7.729-34.069-7.729" style="fill:#000;fill-opacity:1;fill-rule:nonzero;stroke:none" transform="translate(395.192 455.335)"/></g><g clip-path="url(#u)" transform="matrix(1.546 0 0 -1.546 -588.342 835.721)"><path d="m0 0 47.888.373.046-8.865L.046-8.865Z" style="fill:#000100;fill-opacity:1;fill-rule:nonzero;stroke:none" transform="translate(557.803 175.049)"/><path d="m0 0 47.888.373.007-1.305L.007-1.305Z" style="fill:#bb9221;fill-opacity:1;fill-rule:nonzero;stroke:none" transform="translate(557.799 172.01)"/><path d="m0 0 65.825.44" style="fill:none;stroke:#393939;stroke-width:9;stroke-linecap:butt;stroke-linejoin:miter;stroke-miterlimit:4;stroke-dasharray:.2,.8;stroke-dashoffset:0;stroke-opacity:1" transform="translate(546.831 171.281)"/><path d="m0 0 47.888.373.046-8.865L.046-8.865Z" style="fill:none;stroke:#484848;stroke-width:.329;stroke-linecap:butt;stroke-linejoin:round;stroke-miterlimit:10;stroke-dasharray:none;stroke-opacity:1" transform="translate(557.803 175.049)"/></g></svg>